<?xml version="1.0" standalone="no"?>
<!DOCTYPE svg PUBLIC "-//W3C//DTD SVG 1.1//EN" "http://www.w3.org/Graphics/SVG/1.1/DTD/svg11.dtd" >
<svg>
<metadata>
Created by FontForge 20090914 at Sun Nov 23 17:52:28 2014
 By www-data
Copyright (c) 2011 by vernon adams. All rights reserved.
</metadata>
<defs>
<font id="PaytoneOne" horiz-adv-x="1634" >
  <font-face 
    font-family="Paytone One"
    font-weight="400"
    font-stretch="normal"
    units-per-em="2048"
    panose-1="0 0 0 0 0 0 0 0 0 0"
    ascent="1638"
    descent="-410"
    x-height="1026"
    cap-height="1408"
    bbox="-327 -880 2610 2355"
    underline-thickness="102"
    underline-position="-104"
    unicode-range="U+0002-U+FB02"
  />
<missing-glyph horiz-adv-x="748" 
d="M68 0v1365h544v-1365h-544zM136 68h408v1229h-408v-1229z" />
    <glyph glyph-name=".notdef" horiz-adv-x="748" 
d="M68 0v1365h544v-1365h-544zM136 68h408v1229h-408v-1229z" />
    <glyph glyph-name="uni0002" horiz-adv-x="0" 
 />
    <glyph glyph-name="uni0009" unicode="&#x9;" horiz-adv-x="0" 
 />
    <glyph glyph-name="uni000A" unicode="&#xa;" horiz-adv-x="0" 
 />
    <glyph glyph-name="space" unicode=" " horiz-adv-x="383" 
 />
    <glyph glyph-name="exclam" unicode="!" horiz-adv-x="625" 
d="M94 1096v318h432v-318l-80 -580h-270zM86 176c0 30.667 6.33203 58.667 18.999 84s29.834 47 51.501 65s46.5 32 74.5 42s57 15 87 15c30.667 0 60 -5.33301 88 -16s52.5 -25.334 73.5 -44.001s37.667 -40.5 50 -65.5s18.5 -51.833 18.5 -80.5
c0 -30 -6.5 -57.833 -19.5 -83.5s-30.167 -47.667 -51.5 -66s-45.833 -32.666 -73.5 -42.999s-56.167 -15.5 -85.5 -15.5c-32 0 -62.167 5.33301 -90.5 16s-53 25.5 -74 44.5s-37.5 41 -49.5 66s-18 52.167 -18 81.5z" />
    <glyph glyph-name="quotedbl" unicode="&#x22;" horiz-adv-x="792" 
d="M446 1534h296l-58 -508h-196zM60 1534h294l-58 -508h-196z" />
    <glyph glyph-name="numbersign" unicode="#" horiz-adv-x="1068" 
d="M212 502h-156l16 122h168l38 152h-184l16 126h198l118 474h182l-118 -474h194l116 474h182l-116 -474h146l-16 -126h-164l-36 -152h178l-16 -122h-194l-122 -502h-178l122 502h-196l-122 -502h-178zM616 624l36 152h-194l-38 -152h196z" />
    <glyph glyph-name="dollar" unicode="$" horiz-adv-x="1159" 
d="M64 976c0 65.333 9.50195 122.835 28.502 172.502s46 92.167 81 127.5s77.5 63.5 127.5 84.5s106.333 35.5 169 43.5v172h206v-166c122.667 -10.667 240 -50.667 352 -120l-104 -234l-112 36c-23.333 7.33301 -46.333 13.666 -69 18.999s-45 9.66602 -67 12.999v-288
c68 -23.333 128.833 -49.333 182.5 -78s99 -61.334 136 -98.001s65.167 -78.5 84.5 -125.5s29 -100.5 29 -160.5c0 -47.333 -10.333 -93.666 -31 -138.999s-49.834 -86.333 -87.501 -123s-83.167 -66.834 -136.5 -90.501s-112.333 -37.5 -177 -41.5v-166h-206v156
c-158.667 14.667 -287.334 54 -386.001 118l102 246c58.667 -19.333 111.667 -34.5 159 -45.5s89 -17.167 125 -18.5v270c-57.333 14 -110.5 31.667 -159.5 53s-91.5 49 -127.5 83s-64.5 75.333 -85.5 124s-32.167 107.334 -33.5 176.001zM470.002 1102
c-25.333 -12.667 -45 -26.667 -59 -42s-21 -36 -21 -62c0 -28 6.33301 -49.5 19 -64.5s33 -28.167 61 -39.5v208zM676.002 290.002c14 5.33301 26.667 10.666 38 15.999s21 11.666 29 18.999s14.167 15.833 18.5 25.5s6.5 21.5 6.5 35.5
c0 20.667 -9.16699 38.834 -27.5 54.501s-39.833 26.834 -64.5 33.501v-184z" />
    <glyph glyph-name="percent" unicode="%" horiz-adv-x="1818" 
d="M998 1376h142l-340 -1376h-138zM1396 -32c-58 0 -109.999 10.167 -155.999 30.5s-85 48.5 -117 84.5s-56.5 78.333 -73.5 127s-25.5 101.334 -25.5 158.001c0 58 9.16699 111.667 27.5 161s44 91.833 77 127.5s72.333 63.5 118 83.5s95.5 30 149.5 30
c58 0 110 -11 156 -33s85 -51.5 117 -88.5s56.5 -79.833 73.5 -128.5s25.5 -99.334 25.5 -152.001c0 -58 -9 -111.5 -27 -160.5s-43.5 -91.167 -76.5 -126.5s-72.333 -63 -118 -83s-95.834 -30 -150.501 -30zM1396 172c21.333 0 39.5049 6.16895 54.5049 18.502
s27.167 28 36.5 47s16.166 40.167 20.499 63.5s6.5 45.666 6.5 66.999c0 25.333 -2.66699 49.666 -8 72.999s-13 44 -23 62s-22.333 32.333 -37 43s-31.334 16 -50.001 16c-20.667 0 -38.334 -5.5 -53.001 -16.5s-26.834 -25.5 -36.501 -43.5s-16.834 -38.667 -21.501 -62
s-7 -47.333 -7 -72c0 -26 2.5 -50.833 7.5 -74.5s12.5 -44.5 22.5 -62.5s22.333 -32.333 37 -43s31.667 -16 51 -16zM420.006 614.002c-60 0 -113 10.834 -159 32.501s-84.667 50.834 -116 87.501s-55 79.167 -71 127.5s-24 99.166 -24 152.499
c0 58.667 9.16699 112.5 27.5 161.5s44 91.167 77 126.5s72.5 62.833 118.5 82.5s96.667 29.5 152 29.5c61.333 0 115 -11.667 161 -35s84.5 -54 115.5 -92s54.167 -80.833 69.5 -128.5s23 -95.834 23 -144.501c0 -58.667 -9.16699 -112.5 -27.5 -161.5
s-44 -91.167 -77 -126.5s-72.5 -62.833 -118.5 -82.5s-96.333 -29.5 -151 -29.5zM420.006 816.003c22 0 40.499 6.16895 55.499 18.502s27.333 28.166 37 47.499s16.667 40.666 21 63.999s6.5 46 6.5 68c0 26 -2.66699 50.667 -8 74s-13.166 43.833 -23.499 61.5
s-23 31.834 -38 42.501s-31.833 16 -50.5 16c-21.333 0 -39.5 -5.83301 -54.5 -17.5s-27 -26.834 -36 -45.501s-15.5 -39.5 -19.5 -62.5s-6 -45.833 -6 -68.5c0 -26 2.5 -50.833 7.5 -74.5s12.5 -44.667 22.5 -63s22.167 -33 36.5 -44s30.833 -16.5 49.5 -16.5z" />
    <glyph glyph-name="ampersand" unicode="&#x26;" horiz-adv-x="1375" 
d="M1305 504c-48.667 -94 -106.002 -169.338 -172.002 -226.005l242 -278h-412l-89 103c-50 -40 -104.667 -72.5 -164 -97.5s-121 -37.5 -185 -37.5c-70.667 0 -134.667 9.66699 -192 29s-106.5 47 -147.5 83s-72.667 79.667 -95 131s-33.5 109 -33.5 173
c0 52 7.16699 97.333 21.5 136s34.333 72.667 60 102s55.834 55 90.501 77s72 42.333 112 61c-94.667 104.667 -142 203.334 -142 296.001c0 44.667 10.833 88.334 32.5 131.001s52.667 80.834 93 114.501s89.333 60.834 147 81.501s122.834 31 195.501 31
c61.333 0 117.666 -8.33301 168.999 -25s95.666 -40.5 132.999 -71.5s66.333 -68.167 87 -111.5s31 -92 31 -146c0 -36 -5.66699 -71.833 -17 -107.5s-28.166 -69.5 -50.499 -101.5s-50.166 -61.667 -83.499 -89s-72.333 -50.666 -117 -69.999l28.5 -35l39.5 -48.5l40 -49
c12.667 -15.667 22.667 -27.5 30 -35.5l164 176zM420.998 397.995c0 -38 10.834 -68.834 32.501 -92.501s51.5 -35.5 89.5 -35.5c53.333 0 94.666 14.667 123.999 44l-168 214c-52 -29.333 -78 -72.666 -78 -129.999zM668.999 1145.99c-70.667 0 -106 -31.333 -106 -94
c0 -26 8.66699 -50.5 26 -73.5s42 -47.167 74 -72.5c18 8 33.5 16.333 46.5 25s23.5 18.667 31.5 30s14 24.333 18 39s6 32 6 52c0 28.667 -8.5 51.5 -25.5 68.5s-40.5 25.5 -70.5 25.5z" />
    <glyph glyph-name="quotesingle" unicode="'" horiz-adv-x="406" 
d="M60 1534h296l-58 -508h-196z" />
    <glyph glyph-name="parenleft" unicode="(" horiz-adv-x="855" 
d="M809 -264c-124 11.333 -233.835 42.167 -329.502 92.5s-176 116.333 -241 198s-114.167 177 -147.5 286s-50 227.5 -50 355.5c0 134.667 17.833 255.834 53.5 363.501s86.834 200.334 153.501 278.001s147.334 139.5 242.001 185.5s201 75 319 87v-260
c-47.333 -8 -90.333 -27.833 -129 -59.5s-71.5 -74.834 -98.5 -129.501s-47.833 -120.834 -62.5 -198.501s-22 -166.5 -22 -266.5c0 -90 5.66699 -173.833 17 -251.5s29.5 -146 54.5 -205s57.333 -107.167 97 -144.5s87.5 -61 143.5 -71v-260z" />
    <glyph glyph-name="parenright" unicode=")" horiz-adv-x="855" 
d="M46 -4c48 8 91.1699 28.167 129.503 60.5s71 76.666 98 132.999s47.833 124.333 62.5 204s22 171.167 22 274.5c0 94.667 -6.83301 180.5 -20.5 257.5s-33.667 143.5 -60 199.5s-58.833 100.833 -97.5 134.5s-83.334 54.5 -134.001 62.5v260
c126.667 -13.333 238 -45.166 334 -95.499s176.167 -115.5 240.5 -195.5s112.666 -172.833 144.999 -278.5s48.5 -220.5 48.5 -344.5c0 -132 -17.333 -252.667 -52 -362s-84.834 -204.333 -150.501 -285s-146.167 -145.5 -241.5 -194.5s-203.333 -79.167 -324 -90.5v260z
" />
    <glyph glyph-name="asterisk" unicode="*" horiz-adv-x="1096" 
d="M381 884l-316 138l110 218l276 -166l-22 334h248l-26 -332l268 168l116 -222l-320 -138l234 -246l-208 -164l-196 296l-192 -296l-206 166z" />
    <glyph glyph-name="plus" unicode="+" horiz-adv-x="1092" 
d="M488 458h-440v114h440v454h120v-454h436v-114h-436v-458h-120v458z" />
    <glyph glyph-name="comma" unicode="," horiz-adv-x="604" 
d="M94 -106c46 0 81.668 0.332031 107.001 0.999023s44.166 4.33398 56.499 11.001s19.833 17.167 22.5 31.5s4 35.166 4 62.499h-190v382h420l-4 -208c-1.33301 -73.333 -4 -137.166 -8 -191.499s-11 -100.833 -21 -139.5s-24 -70.167 -42 -94.5s-42.167 -43.5 -72.5 -57.5
s-67.833 -23.667 -112.5 -29s-98 -8 -160 -8v240z" />
    <glyph glyph-name="hyphen" unicode="-" horiz-adv-x="740" 
d="M95 650h550v-242h-550v242z" />
    <glyph glyph-name="period" unicode="." horiz-adv-x="574" 
d="M58 176c0 30 6.5 57.665 19.5 82.998s30.167 47 51.5 65s45.833 32.167 73.5 42.5s56.167 15.5 85.5 15.5c30.667 0 60 -5.5 88 -16.5s52.5 -26 73.5 -45s37.667 -40.833 50 -65.5s18.5 -51 18.5 -79c0 -31.333 -6.5 -59.666 -19.5 -84.999
s-30.167 -47.166 -51.5 -65.499s-45.833 -32.5 -73.5 -42.5s-56.167 -15 -85.5 -15c-32 0 -62 5.33301 -90 16s-52.333 25.334 -73 44.001s-37 40.667 -49 66s-18 52.666 -18 81.999z" />
    <glyph glyph-name="slash" unicode="/" horiz-adv-x="658" 
d="M396 1408h204l-340 -1408h-200z" />
    <glyph glyph-name="zero" unicode="0" horiz-adv-x="1420" 
d="M1186 1178c110.667 -132.667 165.998 -294.663 165.998 -485.996c0 -190.667 -55 -353.334 -165 -488.001c-120 -147.333 -279 -221 -477 -221c-101.333 0 -191.666 19 -270.999 57s-146.5 89.5 -201.5 154.5s-97 140.333 -126 226s-43.5 176.167 -43.5 271.5
c0 74.667 8 144 24 208s38.5 122.167 67.5 174.5s63.333 98.666 103 138.999s83.334 74.166 131.001 101.499s98.167 48.166 151.5 62.499s108.333 21.5 165 21.5c196 0 354.667 -73.667 476 -221zM501.998 826.004c-4 -22 -7.16699 -44.166 -9.5 -66.499
s-3.5 -44.833 -3.5 -67.5c0 -46 4.66699 -91.167 14 -135.5s23.166 -83.833 41.499 -118.5s41.333 -62.5 69 -83.5s59.834 -31.5 96.501 -31.5c30.667 0 59.5 9.16699 86.5 27.5s50.167 43.833 69.5 76.5s34.666 71.5 45.999 116.5s17 94.5 17 148.5
c0 48.667 -4.83301 95.167 -14.5 139.5s-23.667 83.333 -42 117s-41.166 60.5 -68.499 80.5s-58.666 30 -93.999 30c-32.667 0 -60.834 -7.16699 -84.501 -21.5s-43.667 -32.833 -60 -55.5s-29.5 -47.834 -39.5 -75.501s-18 -54.5 -24 -80.5z" />
    <glyph glyph-name="one" unicode="1" horiz-adv-x="926" 
d="M88 302h172v681l-172 -12v266c58 0 121.833 10.833 191.5 32.5s138.5 55.5 206.5 101.5h214v-1069h172v-302h-784v302z" />
    <glyph glyph-name="two" unicode="2" horiz-adv-x="1060" 
d="M405 1044c-10 0 -21.333 -1.00098 -34 -3.00098s-25.167 -4.33301 -37.5 -7s-23.666 -5.66699 -33.999 -9l-24.5 -8l-26 -11.5l-39.5 -17.5l-35.5 -16l-15 -7l-103 305c87.333 36 170 64 248 84s158.667 30 242 30c70 0 132 -12 186 -36s99.5 -56.667 136.5 -98
s65 -89.333 84 -144s28.5 -112.667 28.5 -174c0 -64.667 -13 -126.167 -39 -184.5s-60.833 -113.333 -104.5 -165s-93.834 -99.667 -150.501 -144s-116 -84.833 -178 -121.5l-31 -19h461v-298h-860v288c72 67.333 137.5 132.833 196.5 196.5s109.5 123.334 151.5 179.001
s74.667 106.167 98 151.5s35 83.666 35 114.999c0 20.667 -4.66699 38.334 -14 53.001s-21.5 26.5 -36.5 35.5s-31.667 15.5 -50 19.5s-36.5 6 -54.5 6z" />
    <glyph glyph-name="three" unicode="3" horiz-adv-x="1071" 
d="M456 1068c-84.667 0 -193.333 -20.0039 -326 -60.0039l-70 268c158 73.333 312 110 462 110c58.667 0 113.5 -8.33301 164.5 -25s95.5 -39.167 133.5 -67.5s67.833 -61.666 89.5 -99.999s32.5 -78.833 32.5 -121.5c0 -139.333 -64.667 -250.666 -194 -333.999
c82 -34.667 145.167 -83.167 189.5 -145.5s66.5 -137.833 66.5 -226.5c0 -56 -12 -107.833 -36 -155.5s-58 -88.667 -102 -123s-97 -61.166 -159 -80.499s-131 -29 -207 -29c-128 0 -274.667 26.667 -440 80l70 300c108 -44 209.333 -66 304 -66c54 0 95 8.66699 123 26
s42 47.666 42 90.999c0 38.667 -11.333 69.334 -34 92.001s-51.834 39.834 -87.501 51.501s-75.667 19.167 -120 22.5s-88.166 5 -131.499 5v254c118.667 0 208.5 12.333 269.5 37s91.5 59 91.5 103c0 36 -10.833 60.667 -32.5 74s-54.5 20 -98.5 20z" />
    <glyph glyph-name="four" unicode="4" horiz-adv-x="1300" 
d="M36 333v287l546 751h458v-754h196v-286h-196v-331h-436v333h-568zM338 617h266v405z" />
    <glyph glyph-name="five" unicode="5" horiz-adv-x="1096" 
d="M871 98c-48 -38 -104.334 -68.3369 -169.001 -91.0039s-137 -34 -217 -34c-116 0 -245.667 29.333 -389 88l27 290c121.333 -42.667 240 -64 356 -64c23.333 0 44.666 4 63.999 12s35.833 19.333 49.5 34s24.334 32.167 32.001 52.5s11.5 42.833 11.5 67.5
c0 20.667 -3 40.334 -9 59.001s-14.667 34.834 -26 48.501s-25.333 24.5 -42 32.5s-35.334 12 -56.001 12c-52.667 0 -119.667 -27.667 -201 -83l-214 93l53 756h790l-29 -294h-485l-25 -212l55 18c14 2.66699 27.167 5.83398 39.5 9.50098s24.833 7 37.5 10
s26.334 5.5 41.001 7.5s31.334 3 50.001 3c183.333 0 311 -84.333 383 -253c28 -65.333 42 -134.666 42 -207.999c0 -147.333 -56.333 -265.333 -169 -354z" />
    <glyph glyph-name="six" unicode="6" horiz-adv-x="1283" 
d="M905 1046c-55.333 18 -108.337 27.001 -159.004 27.001c-44 0 -81.5 -8.33301 -112.5 -25s-56.667 -39 -77 -67s-36.333 -60.333 -48 -97s-20.167 -74.667 -25.5 -114l-8 -56l40 38c38 36 79 62.833 123 80.5s90 26.5 138 26.5c68.667 0 130.334 -9.5 185.001 -28.5
s101.167 -46.5 139.5 -82.5s67.833 -79.667 88.5 -131s31 -109.333 31 -174c0 -136.667 -57 -248.334 -171 -335.001c-107.333 -82 -229.666 -123 -366.999 -123c-93.333 0 -177.666 15.5 -252.999 46.5s-139.666 75.333 -192.999 133s-94.333 127.167 -123 208.5
s-43 172.666 -43 273.999c0 74.667 7.83301 144.834 23.5 210.501s37.5 126 65.5 181s61.5 104.333 100.5 148s81.667 80.667 128 111s96 53.5 149 69.5s107.167 24 162.5 24c43.333 0 84.333 -3 123 -9s76.334 -14.667 113.001 -26s73.167 -25.5 109.5 -42.5
s74.166 -36.833 113.499 -59.5l-98 -268l-81 32zM482.996 554.001l1.99902 -14.999c4 -29.333 9.33301 -59.5 16 -90.5s16.334 -59 29.001 -84s29.334 -45.5 50.001 -61.5s47 -24 79 -24c24.667 0 48.167 3.83301 70.5 11.5s41.666 18.5 57.999 32.5s29.333 31.167 39 51.5
s14.5 43.166 14.5 68.499c0 22.667 -4.33301 43.167 -13 61.5s-20.5 34 -35.5 47s-32.333 22.833 -52 29.5s-40.5 10 -62.5 10c-72.667 0 -133 -10.333 -181 -31z" />
    <glyph glyph-name="seven" unicode="7" horiz-adv-x="955" 
d="M492 1073h-438v298h858v-338l-434 -1067l-380 156z" />
    <glyph glyph-name="eight" unicode="8" horiz-adv-x="1284" 
d="M105 206c-29.333 51.333 -43.9971 110.664 -43.9971 177.997c0 46 6.83301 85.667 20.5 119s32.167 62.166 55.5 86.499s50 45 80 62s61.667 32.167 95 45.5l7 4l-6 5c-100 82 -150 190.667 -150 326c0 52 11.5 99.833 34.5 143.5s55.5 81.334 97.5 113.001
s92.333 56.334 151 74.001s123.667 26.5 195 26.5c65.333 0 126.833 -7 184.5 -21s108.167 -34.5 151.5 -61.5s77.5 -60.167 102.5 -99.5s37.5 -84.333 37.5 -135c0 -36 -4.16699 -68 -12.5 -96s-19.666 -52.667 -33.999 -74s-31.5 -40.166 -51.5 -56.499
s-41.667 -30.833 -65 -43.5l-8 -4l8 -4c35.333 -19.333 69.166 -40.666 101.499 -63.999s60.666 -50.166 84.999 -80.499s43.833 -65.5 58.5 -105.5s22 -86 22 -138c0 -76 -15.333 -141.333 -46 -196s-72.334 -99.5 -125.001 -134.5s-114 -60.833 -184 -77.5
s-144.333 -25 -223 -25c-63.333 0 -122.833 5 -178.5 15s-106.334 24.667 -152.001 44s-86.167 43.666 -121.5 72.999s-64 63 -86 101zM537.003 573.998l-2 -2.00098c-20.667 -21.333 -36.5 -45.333 -47.5 -72s-16.5 -58 -16.5 -94c0 -23.333 4.33301 -44.166 13 -62.499
s20.834 -34 36.501 -47s34 -22.833 55 -29.5s44.167 -10 69.5 -10c24.667 0 47.667 2.33301 69 7s39.666 11.5 54.999 20.5s27.5 20.167 36.5 33.5s13.5 28.666 13.5 45.999c0 20.667 -5.16699 39.667 -15.5 57s-24.5 33 -42.5 47s-39 26.833 -63 38.5
s-49.333 22.5 -76 32.5l-44 18l-25.5 11c-6.33301 2.66699 -10.5 4.33398 -12.5 5.00098zM794.003 1020c0 48 -13.166 84.498 -39.499 109.498s-63.5 37.5 -111.5 37.5c-20 0 -39.5 -1.66699 -58.5 -5s-35.833 -9.16602 -50.5 -17.499s-26.334 -19.333 -35.001 -33
s-13 -30.834 -13 -51.501c0 -19.333 4 -36.666 12 -51.999s21.5 -30.333 40.5 -45s44 -29.167 75 -43.5s69.167 -29.833 114.5 -46.5l3 -1l2 2c40.667 38.667 61 87.334 61 146.001z" />
    <glyph glyph-name="nine" unicode="9" horiz-adv-x="1261" 
d="M218 387l74.999 -32.0039c36.667 -15.333 75.167 -28 115.5 -38s79.833 -15 118.5 -15c146 0 233.667 95.667 263 287l10 66l-49 -43c-30 -26 -63 -46.833 -99 -62.5s-81 -23.5 -135 -23.5c-70 0 -133 9.33301 -189 28s-103.833 45.834 -143.5 81.501
s-70 78.834 -91 129.501s-31.5 108 -31.5 172c0 64.667 14 124.667 42 180s66.5 103 115.5 143s107 71.333 174 94s139.833 34 218.5 34c66 0 126.167 -9.16699 180.5 -27.5s102.833 -43.5 145.5 -75.5s80 -70 112 -114s58.333 -91.833 79 -143.5
s36.167 -106.167 46.5 -163.5s15.5 -115 15.5 -173c0 -107.333 -16.5 -204.166 -49.5 -290.499s-77.667 -159.666 -134 -219.999s-121.833 -106.833 -196.5 -139.5s-153.334 -49 -236.001 -49c-40.667 0 -79.667 3 -117 9s-74.166 14.667 -110.499 26
s-72.666 25.5 -108.999 42.5s-73.833 36.5 -112.5 58.5zM593.999 761.996h17c30.667 0 59 3 85 9s51.667 13.667 77 23l17 6l-2 20c-9.33301 95.333 -28.5 166.5 -57.5 213.5s-68.5 70.5 -118.5 70.5c-25.333 0 -49 -3.66699 -71 -11s-41.5 -18 -58.5 -32
s-30.333 -31.5 -40 -52.5s-14.5 -44.833 -14.5 -71.5c0 -25.333 4.16699 -48.666 12.5 -69.999s19.833 -39.833 34.5 -55.5s32.167 -27.834 52.5 -36.501s42.5 -13 66.5 -13z" />
    <glyph glyph-name="colon" unicode=":" horiz-adv-x="634" 
d="M87 206c0 30 6.49902 57.833 19.499 83.5s30.333 47.667 52 66s46.334 32.666 74.001 42.999s56.5 15.5 86.5 15.5c32 0 61.833 -5.83301 89.5 -17.5s51.667 -27 72 -46s36.5 -41.167 48.5 -66.5s18 -51.333 18 -78c0 -30 -6.33301 -57.667 -19 -83s-29.5 -47 -50.5 -65
s-45.333 -32.167 -73 -42.5s-56.167 -15.5 -85.5 -15.5c-32 0 -62.167 5.33301 -90.5 16s-53 25.334 -74 44.001s-37.5 40.5 -49.5 65.5s-18 51.833 -18 80.5zM86.999 820c0 30 6.49902 57.833 19.499 83.5s30.333 47.667 52 66s46.334 32.666 74.001 42.999
s56.5 15.5 86.5 15.5c32 0 61.833 -5.83301 89.5 -17.5s51.667 -27 72 -46s36.5 -41.167 48.5 -66.5s18 -51.333 18 -78c0 -30 -6.33301 -57.667 -19 -83s-29.5 -47 -50.5 -65s-45.333 -32.167 -73 -42.5s-56.167 -15.5 -85.5 -15.5c-32 0 -62.167 5.33301 -90.5 16
s-53 25.334 -74 44.001s-37.5 40.5 -49.5 65.5s-18 51.833 -18 80.5z" />
    <glyph glyph-name="semicolon" unicode=";" horiz-adv-x="612" 
d="M104 -106c45.333 0 80.8311 0.333984 106.498 1.00098s44.834 4.33398 57.501 11.001s20.5 17.167 23.5 31.5s4.5 35.166 4.5 62.499h-192v382h420l-3 -127c-1.33301 -87.333 -3.5 -162.833 -6.5 -226.5s-9 -117.834 -18 -162.501s-22.167 -80.834 -39.5 -108.501
s-41.166 -49.167 -71.499 -64.5s-68.5 -25.666 -114.5 -30.999s-101.667 -8 -167 -8v240zM77.998 820.001c0 30.667 6.66504 58.668 19.998 84.001s30.833 47.166 52.5 65.499s46.334 32.666 74.001 42.999s56.167 15.5 85.5 15.5c31.333 0 60.833 -5.66699 88.5 -17
s51.834 -26.5 72.501 -45.5s37 -41.167 49 -66.5s18 -51.666 18 -78.999c0 -30 -6.33301 -57.667 -19 -83s-29.5 -47 -50.5 -65s-45.333 -32.167 -73 -42.5s-56.167 -15.5 -85.5 -15.5c-32 0 -62.167 5.33301 -90.5 16s-53 25.167 -74 43.5s-37.5 40 -49.5 65
s-18 52.167 -18 81.5z" />
    <glyph glyph-name="less" unicode="&#x3c;" horiz-adv-x="938" 
d="M55 804l780 428v-308l-608 -304l608 -288v-332l-780 456v348z" />
    <glyph glyph-name="equal" unicode="=" horiz-adv-x="838" 
d="M107 442h624v-124h-624v124zM107 720h624v-126h-624v126z" />
    <glyph glyph-name="greater" unicode="&#x3e;" horiz-adv-x="938" 
d="M103 332l608 288l-608 304v308l780 -428v-348l-780 -456v332z" />
    <glyph glyph-name="question" unicode="?" horiz-adv-x="1035" 
d="M534 1026c0 44 -53.999 66.001 -161.999 66.001c-105.333 0 -194 -18 -266 -54l-28 312c146 60 283.333 90 412 90c70 0 135.167 -8.83301 195.5 -26.5s112.833 -43 157.5 -76s79.667 -73.167 105 -120.5s38 -100.333 38 -159c0 -42 -6 -78.833 -18 -110.5
s-28.167 -59.834 -48.5 -84.501s-44.5 -46.5 -72.5 -65.5s-58 -36.5 -90 -52.5l-55.5 -26l-60.5 -28.5c-20 -9.66699 -38.333 -19.334 -55 -29.001s-29.334 -19.167 -38.001 -28.5c-11.333 -12 -17.833 -25.167 -19.5 -39.5s-2.5 -30.166 -2.5 -47.499v-26h-286l-24 77
c-2.66699 10.667 -5.33398 23.667 -8.00098 39s-4 30 -4 44c0 25.333 2.66699 47.833 8 67.5s12.833 37.5 22.5 53.5s21.167 30.333 34.5 43s28 24.334 44 35.001c20 13.333 42.667 26.166 68 38.499l72 36.5c22.667 12 41.834 24 57.501 36s23.5 24 23.5 36z
M148.001 176.001c0 30 6.5 57.499 19.5 82.499s30.333 46.667 52 65s46.5 32.666 74.5 42.999s56.667 15.5 86 15.5c30.667 0 60 -5.5 88 -16.5s52.5 -26 73.5 -45s37.667 -40.833 50 -65.5s18.5 -51 18.5 -79c0 -31.333 -6.5 -59.666 -19.5 -84.999
s-30.167 -47.166 -51.5 -65.499s-45.833 -32.5 -73.5 -42.5s-56.167 -15 -85.5 -15c-32 0 -62.167 5.33301 -90.5 16s-53 25.334 -74 44.001s-37.5 40.667 -49.5 66s-18 52.666 -18 81.999z" />
    <glyph glyph-name="at" unicode="@" horiz-adv-x="1769" 
d="M1362 377c-144.667 0 -248 50.3369 -310 151.004c-24 -46 -56.667 -82.333 -98 -109s-91.333 -40 -150 -40c-55.333 0 -103.833 11.333 -145.5 34s-76.834 52 -105.501 88s-50.167 76 -64.5 120s-21.5 87 -21.5 129c0 51.333 9.5 99 28.5 143s44.167 82.167 75.5 114.5
s67.333 57.666 108 75.999s83 27.5 127 27.5c72.667 0 146.667 -1.66699 222 -5s153 -8.33301 233 -15v-469c26 -27.333 51 -41 75 -41s43.833 8.16699 59.5 24.5s28 37 37 62s15.167 52.333 18.5 82s5 58.167 5 85.5c0 294.667 -182 442 -546 442
c-86 0 -165.167 -13.5 -237.5 -40.5s-134.5 -64.5 -186.5 -112.5s-92.5 -105 -121.5 -171s-43.5 -138 -43.5 -216c0 -88 16.167 -164.667 48.5 -230s75.5 -119.833 129.5 -163.5s115.833 -76.334 185.5 -98.001s141.5 -32.5 215.5 -32.5
c150.667 0 287.334 31.333 410.001 94l120 -204c-40 -23.333 -79.833 -43.5 -119.5 -60.5s-80.667 -31 -123 -42s-87.166 -19.167 -134.499 -24.5s-98.333 -8 -153 -8c-126 0 -240.333 19.167 -343 57.5s-190.667 91.5 -264 159.5s-130 149 -170 243s-60 196.667 -60 308
c0 104.667 19 204.167 57 298.5s93.167 177.166 165.5 248.499s160.833 128 265.5 170s223.667 63 357 63c122 0 232.667 -15 332 -45s184.166 -73.667 254.499 -131s124.833 -128 163.5 -212s58 -180.333 58 -289c0 -69.333 -7.5 -132.333 -22.5 -189
s-37.333 -105.334 -67 -146.001s-66.667 -72 -111 -94s-95.5 -33 -153.5 -33zM1012 902.004h-136.002c-20.667 0 -39.5 -4.16699 -56.5 -12.5s-31.667 -19.833 -44 -34.5s-21.833 -31.5 -28.5 -50.5s-10 -38.833 -10 -59.5c0 -19.333 3.5 -37.5 10.5 -54.5
s16.833 -31.667 29.5 -44s27.334 -22 44.001 -29s35 -10.5 55 -10.5c18.667 0 36.334 3.66699 53.001 11s31.167 17 43.5 29s22 26 29 42s10.5 32.667 10.5 50v163z" />
    <glyph glyph-name="A" unicode="A" horiz-adv-x="1431" 
d="M400 1408h622l408 -1408h-482l-54 270h-364l-58 -270h-462zM846 522l-134 616l-138 -616h272z" />
    <glyph glyph-name="B" unicode="B" horiz-adv-x="1476" 
d="M830 -32c-153.333 0 -385.332 9.99902 -695.999 29.999v1410h704c75.333 0 145 -8 209 -24s119.333 -38.667 166 -68s83.167 -65.166 109.5 -107.499s39.5 -89.833 39.5 -142.5c0 -86 -18.667 -154.667 -56 -206s-93.333 -82.666 -168 -93.999
c93.333 -8.66699 164.666 -42 213.999 -100s74 -137.333 74 -238c0 -63.333 -15 -122.833 -45 -178.5s-71.667 -104.334 -125 -146.001s-116.333 -74.667 -189 -99s-151.667 -36.5 -237 -36.5zM976.001 455.999c0 28 -5.16895 52.666 -15.502 73.999s-24.833 39 -43.5 53
s-41 24.667 -67 32s-54.667 11 -86 11h-176v-329c15.333 -0.666992 30.333 -1 45 -1h42h115c26 0 50.333 3.66699 73 11s42.334 18 59.001 32s29.834 30.833 39.501 50.5s14.5 41.834 14.5 66.501zM935.999 991.998c0 96 -59.999 144.001 -179.999 144.001h-166v-284h162
c26 0 50.333 3.33301 73 10s42.167 16 58.5 28s29.166 26.667 38.499 44s14 36.666 14 57.999z" />
    <glyph glyph-name="C" unicode="C" horiz-adv-x="1237" 
d="M875 338c23.333 0 44.998 1.16895 64.998 3.50195s39.833 5.83301 59.5 10.5s39.834 10.667 60.501 18s43.667 16 69 26l56 -325c-118.667 -68.667 -248 -103 -388 -103c-198 0 -367.667 66.667 -509 200c-148 138.667 -223 317.667 -225 537
c0 106.667 18.333 205 55 295s87.334 167.5 152.001 232.5s141 115.667 229 152s183.333 54.5 286 54.5c146 0 278.667 -34 398 -102l-54 -318c-98 37.333 -186.667 56 -266 56c-111.333 0 -195.833 -32.167 -253.5 -96.5s-86.5 -154.833 -86.5 -271.5
c0 -58 7.83301 -109.833 23.5 -155.5s38.5 -84.334 68.5 -116.001s66.833 -55.834 110.5 -72.501s93.5 -25 149.5 -25z" />
    <glyph glyph-name="D" unicode="D" horiz-adv-x="1565" 
d="M134 1408l611.999 0.000976562c114 0 217.333 -17.167 310 -51.5s171.834 -82.166 237.501 -143.499s116.5 -134.5 152.5 -219.5s54 -178.167 54 -279.5c0 -106.667 -17.833 -203.834 -53.5 -291.501s-86.5 -162.834 -152.5 -225.501s-145.333 -111.167 -238 -145.5
s-196 -51.5 -310 -51.5h-612v1408zM745.999 368.001c51.333 0 95.5 11 132.5 33s67.5 50 91.5 84s41.667 71.667 53 113s17 81.333 17 120c0 46.667 -7.16699 89.667 -21.5 129s-34.5 73.333 -60.5 102s-57 51 -93 67s-75.667 24 -119 24h-160v-672h160z" />
    <glyph glyph-name="E" unicode="E" horiz-adv-x="1218" 
d="M134 1408h988v-310h-492v-256h450v-258h-450v-276h492v-308h-988v1408z" />
    <glyph glyph-name="F" unicode="F" horiz-adv-x="1168" 
d="M134 1408h970v-310h-530v-284h490v-260h-490v-554h-440v1408z" />
    <glyph glyph-name="G" unicode="G" horiz-adv-x="1349" 
d="M1105 1020c-118.667 38.667 -212 58.002 -280 58.002c-50 0 -94.167 -10.333 -132.5 -31s-70.5 -48 -96.5 -82s-45.667 -73.167 -59 -117.5s-20 -89.833 -20 -136.5c0 -52 7.5 -100.833 22.5 -146.5s36 -85.334 63 -119.001s59.5 -60.334 97.5 -80.001
s79.667 -29.5 125 -29.5c24.667 0 52 2 82 6v332l354 40v-640c-159.333 -70.667 -323.333 -106 -492 -106c-196 0 -363 72.667 -501 218c-138 146 -207 322.667 -207 530c0 202 70.333 373.333 211 514c138.667 140 303.667 210 495 210c174.667 0 332.667 -34 474 -102z
" />
    <glyph glyph-name="H" unicode="H" horiz-adv-x="1626" 
d="M134 1408h460v-560h436v560h462v-1408h-462v552h-436v-552h-460v1408z" />
    <glyph glyph-name="I" unicode="I" horiz-adv-x="740" 
d="M134 1408h472v-1408h-472v1408z" />
    <glyph glyph-name="J" unicode="J" horiz-adv-x="934" 
d="M234 242c90.667 0 136 56.666 136 169.999v996h440v-996c0 -78.667 -10.667 -149.167 -32 -211.5s-51.833 -115.166 -91.5 -158.499s-88 -76.5 -145 -99.5s-120.833 -34.5 -191.5 -34.5c-126.667 0 -244 36 -352 108l96 254c54 -18.667 100.667 -28 140 -28z" />
    <glyph glyph-name="K" unicode="K" horiz-adv-x="1570" 
d="M134 1408h474v-574h148l272 574h474v-92l-324 -606l370 -618v-92h-498l-302 560h-140v-560h-474v1408z" />
    <glyph glyph-name="L" unicode="L" horiz-adv-x="1102" 
d="M134 1408h442v-1106h488v-302h-930v1408z" />
    <glyph glyph-name="M" unicode="M" horiz-adv-x="1816" 
d="M134 1408h426l352 -684l344 684h426v-1408h-426v752l-260 -492h-174l-262 492v-752h-426v1408z" />
    <glyph glyph-name="N" unicode="N" horiz-adv-x="1606" 
d="M134 1408h410l562 -758v758h366v-1408h-410l-564 734v-734h-364v1408z" />
    <glyph glyph-name="O" unicode="O" 
d="M64 702c0 203.333 64.666 374.665 193.999 513.998c138 148.667 324.667 223 560 223c114.667 0 218.334 -18.5 311.001 -55.5s171.667 -88.167 237 -153.5s115.666 -143.166 150.999 -233.499s53 -188.5 53 -294.5c0 -64 -7.33301 -126.667 -22 -188
s-36.5 -119.166 -65.5 -173.499s-64.833 -104.333 -107.5 -150s-91.834 -85 -147.501 -118s-117.667 -58.667 -186 -77s-142.833 -27.5 -223.5 -27.5c-82.667 0 -158.5 9.33301 -227.5 28s-131.5 44.667 -187.5 78s-105.167 73 -147.5 119s-77.666 96.167 -105.999 150.5
s-49.666 111.833 -63.999 172.5s-21.5 122.667 -21.5 186zM817.999 339.999c52.667 0 97.498 11.168 134.498 33.501s67.333 51 91 86s41 74.167 52 117.5s16.5 85.666 16.5 126.999c0 54 -6.83301 103.5 -20.5 148.5s-33.334 84 -59.001 117s-56.667 59.167 -93 78.5
s-76.833 30 -121.5 32c-53.333 -1.33301 -98.666 -13.333 -135.999 -36s-67.833 -51.834 -91.5 -87.501s-41 -75.667 -52 -120s-16.5 -88.5 -16.5 -132.5c0 -52 6.83301 -100.167 20.5 -144.5s33.334 -82.666 59.001 -114.999s56.834 -57.833 93.501 -76.5
s77.667 -28 123 -28z" />
    <glyph glyph-name="P" unicode="P" horiz-adv-x="1330" 
d="M134 1408l508.001 0.000976562c105.333 0 199 -10.333 281 -31s151 -51 207 -91s98.667 -88.833 128 -146.5s44 -123.5 44 -197.5c0 -72 -16.667 -136.333 -50 -193s-79 -104.834 -137 -144.501s-125.833 -70 -203.5 -91s-160.834 -31.5 -249.501 -31.5h-86v-482h-442
v1408zM664.001 766.001c70.667 0 125.999 14.6689 165.999 44.002s60 73.333 60 132c0 28.667 -5.83301 53.667 -17.5 75s-27.667 39.166 -48 53.499s-44.166 25.166 -71.499 32.499s-57 11 -89 11h-88v-344c9.33301 -1.33301 21.333 -2.33301 36 -3s32 -1 52 -1z" />
    <glyph glyph-name="Q" unicode="Q" 
d="M1570 -124l-258.001 -201.999l-452 298c-6.66699 -1.33301 -13.667 -2.33301 -21 -3s-15 -1 -23 -1c-163.333 0 -300.333 34.333 -411 103c-53.333 32.667 -101.166 71.667 -143.499 117s-78.333 95.333 -108 150s-52.334 113.167 -68.001 175.5s-23.5 126.5 -23.5 192.5
c0 195.333 63.333 362.666 190 501.999c140 154 328 231 564 231c82 0 157.5 -9.33301 226.5 -28s131.333 -44.5 187 -77.5s104.834 -72.333 147.501 -118s78.167 -95.667 106.5 -150s49.833 -112 64.5 -173s22 -123.167 22 -186.5c0 -56 -5.5 -111 -16.5 -165
s-27.5 -106 -49.5 -156s-49.333 -97 -82 -141s-70.667 -84 -114 -120l262 -171v-77zM815.999 338.001c52.667 0 97.4961 11.333 134.496 34s67.333 51.834 91 87.501s41 75.167 52 118.5s16.5 86 16.5 128c0 52.667 -6.83301 101.5 -20.5 146.5s-33.167 84 -58.5 117
s-56.166 58.833 -92.499 77.5s-77.166 28 -122.499 28c-53.333 0 -98.666 -11.5 -135.999 -34.5s-67.666 -52.333 -90.999 -88s-40.333 -75.334 -51 -119.001s-16 -86.167 -16 -127.5c0 -51.333 7 -99.333 21 -144s33.833 -83.667 59.5 -117s56.667 -59.5 93 -78.5
s76.5 -28.5 120.5 -28.5z" />
    <glyph glyph-name="R" unicode="R" horiz-adv-x="1429" 
d="M1389 4c-87.333 -24 -150.334 -36 -189.001 -36c-247.333 0 -402.666 112.667 -465.999 338l-56 228h-96v-534h-448v1408h626c81.333 0 157.666 -9.16699 228.999 -27.5s133.5 -45 186.5 -80s94.667 -78.167 125 -129.5s45.5 -110.333 45.5 -177
c0 -49.333 -6.16699 -93.5 -18.5 -132.5s-30.166 -74 -53.499 -105s-51.833 -58.5 -85.5 -82.5s-71.834 -45.333 -114.501 -64l9 -49c2 -11.333 4 -21 6 -29l5 -20l11 -43c8 -25.333 17.167 -46.833 27.5 -64.5s23.5 -32 39.5 -43s35.833 -19 59.5 -24s52.5 -7.5 86.5 -7.5
c5.33301 0 13.833 0.666992 25.5 2s26.834 3.33301 45.501 6v-334zM935.999 974c0 26 -5.5 47.499 -16.5 64.499s-26.167 30.333 -45.5 40s-42 16.334 -68 20.001s-54 5.5 -84 5.5h-140v-282h78l66 3c26 2 51.5 5.5 76.5 10.5s47.5 13 67.5 24s36 25.667 48 44
s18 41.833 18 70.5z" />
    <glyph glyph-name="S" unicode="S" horiz-adv-x="1213" 
d="M1152 460c0 -84 -12.832 -156.83 -38.499 -218.497s-62.5 -112.667 -110.5 -153s-106.833 -70.5 -176.5 -90.5s-148.5 -30 -236.5 -30c-195.333 0 -366.666 35.333 -513.999 106c40.667 101.333 72.667 194 96 278c4 14 8 26 12 36l150 -37l58 -13
c20.667 -4.66699 41.334 -8.83398 62.001 -12.501s40.334 -6.83398 59.001 -9.50098s35 -4 49 -4c22.667 0 44.5 0.833008 65.5 2.5s39.5 5.5 55.5 11.5s28.833 14.667 38.5 26s14.5 26.666 14.5 45.999c0 23.333 -11 43 -33 59s-49.5 30.333 -82.5 43
s-69.167 24.167 -108.5 34.5s-76 21.5 -110 33.5c-47.333 14.667 -91.333 34.667 -132 60s-75.834 55.5 -105.501 90.5s-52.834 74.667 -69.501 119s-25 93.166 -25 146.499c0 304 182.667 456 548 456c173.333 0 334.666 -36 483.999 -108l-110 -306l-153.5 39.5
c-37.667 9.66699 -67.834 16.834 -90.501 21.501s-40.667 7.66699 -54 9s-27.333 2 -42 2h-34c-7.33301 0 -13.5 0.166992 -18.5 0.5s-9.83301 0.5 -14.5 0.5c-30 0 -53 -4.5 -69 -13.5s-24 -27.5 -24 -55.5c0 -42 36.667 -74 110 -96c180.667 -42 317.5 -103 410.5 -183
s139.5 -177 139.5 -291z" />
    <glyph glyph-name="T" unicode="T" horiz-adv-x="1182" 
d="M352 1110h-292v298h1062v-298h-292v-1110h-478v1110z" />
    <glyph glyph-name="U" unicode="U" 
d="M817 338c76.667 0 134.834 20.832 174.501 62.499s59.5 102.834 59.5 183.501v824h462v-824c0 -72 -9.5 -137.167 -28.5 -195.5s-45 -110.333 -78 -156s-71.833 -85.167 -116.5 -118.5s-92.834 -60.833 -144.501 -82.5s-105.5 -37.667 -161.5 -48
s-111.667 -15.5 -167 -15.5c-190 0 -351 52 -483 156c-142 110.667 -213 264 -213 460v824h462v-824c0 -164 78 -246 234 -246z" />
    <glyph glyph-name="V" unicode="V" horiz-adv-x="1377" 
d="M4 1408h462l218 -878l218 878h482l-440 -1408h-522z" />
    <glyph glyph-name="W" unicode="W" horiz-adv-x="2028" 
d="M43 1408h460l134 -898l138 660h476l140 -660l132 898h462l-320 -1408h-478l-174 758l-174 -758h-476z" />
    <glyph glyph-name="X" unicode="X" horiz-adv-x="1296" 
d="M391 700l-378 708h464l166 -356l166 356h474l-382 -708l394 -700h-474l-178 350l-178 -350h-464z" />
    <glyph glyph-name="Y" unicode="Y" horiz-adv-x="1253" 
d="M400 392l-406 1016h428l198 -632l196 632h450l-426 -1016v-392h-440v392z" />
    <glyph glyph-name="Z" unicode="Z" horiz-adv-x="1107" 
d="M73 296l482 814h-462v298h920v-298l-470 -814h491v-296h-961v296z" />
    <glyph glyph-name="bracketleft" unicode="[" horiz-adv-x="915" 
d="M119 1408h726v-304h-286v-802h286v-302h-726v1408z" />
    <glyph glyph-name="backslash" unicode="\" horiz-adv-x="656" 
d="M597 0h-200l-340 1408h204z" />
    <glyph glyph-name="bracketright" unicode="]" horiz-adv-x="915" 
d="M70 302h286v802h-286v304h726v-1408h-726v302z" />
    <glyph glyph-name="asciicircum" unicode="^" horiz-adv-x="1204" 
d="M418 1376h366l350 -1026h-304l-226 834l-222 -834h-310z" />
    <glyph glyph-name="underscore" unicode="_" horiz-adv-x="844" 
d="M82 142h680v-174h-680v174z" />
    <glyph glyph-name="grave" unicode="`" horiz-adv-x="864" 
d="M238 1790l600 -420l-126 -220l-682 274z" />
    <glyph glyph-name="a" unicode="a" horiz-adv-x="1425" 
d="M890 190c-32 -66.667 -75.3301 -117.667 -129.997 -153s-123.334 -53 -206.001 -53c-66.667 0 -130.334 13.5 -191.001 40.5s-114 64.333 -160 112s-82.667 104.167 -110 169.5s-41 136.333 -41 213c0 76 13.833 146 41.5 210s64.667 119.167 111 165.5
s99.666 82.333 159.999 108s123.5 38.5 189.5 38.5c34 0 67.5 -4.5 100.5 -13.5s64.333 -23.333 94 -43s56.667 -44.5 81 -74.5s44.5 -66 60.5 -108v239h430v-1041h-430v190zM890.003 520c-1.33301 26.667 -7.66797 52 -19.001 76s-26.166 44.833 -44.499 62.5
s-39.5 31.667 -63.5 42s-49 15.5 -75 15.5c-29.333 0 -56.5 -5.5 -81.5 -16.5s-46.667 -25.667 -65 -44s-32.833 -39.833 -43.5 -64.5s-16 -51 -16 -79c0 -29.333 5.66699 -56.5 17 -81.5s26.5 -46.5 45.5 -64.5s40.833 -32.167 65.5 -42.5s50.667 -15.5 78 -15.5
c28 0 54 5.33301 78 16s45 25 63 43s32.333 38.833 43 62.5s16.667 48.5 18 74.5v16z" />
    <glyph glyph-name="b" unicode="b" horiz-adv-x="1428" 
d="M875 -16c-157.333 0 -268.666 68.666 -333.999 205.999v-190h-434v1350l434 64v-580c34.667 74 79.5 127 134.5 159s120.833 48 197.5 48c69.333 0 134.5 -13.333 195.5 -40s114.167 -63.667 159.5 -111s81.166 -103.166 107.499 -167.499s39.5 -134.5 39.5 -210.5
s-13.667 -146.167 -41 -210.5s-64 -120 -110 -167s-99.167 -83.833 -159.5 -110.5s-123.5 -40 -189.5 -40zM541 511.999c0 -29.333 5.33594 -56.335 16.0029 -81.002s25.334 -46.167 44.001 -64.5s40.167 -32.666 64.5 -42.999s50.166 -15.5 77.499 -15.5
c28.667 0 55.5 5.66699 80.5 17s46.667 26.333 65 45s32.666 40.334 42.999 65.001s15.5 50.334 15.5 77.001c0 29.333 -5.5 56.5 -16.5 81.5s-25.833 46.5 -44.5 64.5s-40.334 32.167 -65.001 42.5s-50.667 15.5 -78 15.5c-28 0 -54.167 -5.16699 -78.5 -15.5
s-45.5 -24.5 -63.5 -42.5s-32.333 -38.833 -43 -62.5s-16.334 -48.834 -17.001 -75.501v-8z" />
    <glyph glyph-name="c" unicode="c" horiz-adv-x="966" 
d="M882 686c-72 22.667 -138.666 34.0029 -199.999 34.0029c-31.333 0 -59.5 -5 -84.5 -15s-46.333 -24 -64 -42s-31.334 -39.833 -41.001 -65.5s-14.5 -54.167 -14.5 -85.5s4.83301 -59.833 14.5 -85.5s23.5 -47.834 41.5 -66.501s39.833 -33 65.5 -43s54.5 -15 86.5 -15
c60.667 0 124.667 11.333 192 34l40 -286c-51.333 -26.667 -101.5 -44.334 -150.5 -53.001s-102.167 -13 -159.5 -13c-80.667 0 -155 12.667 -223 38s-126.667 61 -176 107s-87.833 101.5 -115.5 166.5s-41.5 137.167 -41.5 216.5s15 151.5 45 216.5s70.5 120.667 121.5 167
s110.167 82.166 177.5 107.499s138 38 212 38c32.667 0 62.167 -1.16699 88.5 -3.5s51.5 -6.66602 75.5 -12.999s48 -14.833 72 -25.5s50 -24.334 78 -41.001z" />
    <glyph glyph-name="d" unicode="d" horiz-adv-x="1428" 
d="M553 1041c77.333 0 143.999 -16.002 199.999 -48.002s101.333 -85 136 -159v516l432 64v-1414h-432v190c-32 -68.667 -75.667 -120.167 -131 -154.5s-124.333 -51.5 -207 -51.5c-71.333 0 -137.333 14.5 -198 43.5s-113.167 67.833 -157.5 116.5
s-79.166 104.834 -104.499 168.501s-38 130.167 -38 199.5c0 74.667 13.5 144.334 40.5 209.001s63.5 120.667 109.5 168s99.167 84.5 159.5 111.5s123.833 40.5 190.5 40.5zM888.999 519.998c-1.33301 26.667 -7.66992 51.998 -19.0029 75.998s-26.166 44.833 -44.499 62.5
s-39.5 31.667 -63.5 42s-49 15.5 -75 15.5c-29.333 0 -56.5 -5.5 -81.5 -16.5s-46.5 -25.833 -64.5 -44.5s-32.167 -40.334 -42.5 -65.001s-15.5 -50.667 -15.5 -78c0 -29.333 5.5 -56.333 16.5 -81s25.833 -46.167 44.5 -64.5s40.334 -32.666 65.001 -42.999
s50.667 -15.5 78 -15.5c28.667 0 55.334 5.66699 80.001 17s46 26.333 64 45s32.167 40.334 42.5 65.001s15.5 50.334 15.5 77.001v8z" />
    <glyph glyph-name="e" unicode="e" horiz-adv-x="1138" 
d="M698 271c93.333 0 193.999 24 301.999 72l50 -275c-124 -56 -263.333 -84 -418 -84c-86 0 -164.5 13.167 -235.5 39.5s-132 63 -183 110s-90.667 102.833 -119 167.5s-42.5 135 -42.5 211c0 80 14.833 152.5 44.5 217.5s70.167 120.667 121.5 167s111.333 82 180 107
s142 37.5 220 37.5c78.667 0 147.667 -13.167 207 -39.5s108.833 -62.333 148.5 -108s69.334 -99 89.001 -160s29.5 -126.167 29.5 -195.5c0 -9.33301 -0.333008 -18.333 -1 -27s-1.66699 -17 -3 -25l-614 -80c16 -48 42.667 -82.5 80 -103.5s85.333 -31.5 144 -31.5z
M773.999 664c-23.333 85.333 -75.333 128 -156 128c-25.333 0 -48 -5 -68 -15s-36.833 -23.833 -50.5 -41.5s-24.167 -38.667 -31.5 -63s-11.333 -50.5 -12 -78.5z" />
    <glyph glyph-name="f" unicode="f" horiz-adv-x="890" 
d="M676 1264c-40 0 -71.165 -9.83398 -93.498 -29.501s-33.5 -48.5 -33.5 -86.5c0 -36 11.667 -76.667 35 -122h286v-254h-258v-772h-432v772h-128v254h128c0 95.333 6.83301 177.333 20.5 246s35.5 125.334 65.5 170.001s68.667 77.5 116 98.5s104.666 31.5 171.999 31.5
c105.333 0 216.666 -26 333.999 -78l-14 -278c-78 32 -144 48 -198 48z" />
    <glyph glyph-name="g" unicode="g" horiz-adv-x="1423" 
d="M917 170c-79.333 -113.333 -202.001 -170 -368.001 -170c-66 0 -129 13 -189 39s-112.667 62.167 -158 108.5s-81.333 101.166 -108 164.499s-40 132.333 -40 207c0 78 13.833 149 41.5 213s64.334 119 110.001 165s98.167 81.5 157.5 106.5s120.666 37.5 183.999 37.5
c42 0 81.5 -5.66699 118.5 -17s70.167 -27.5 99.5 -48.5s54.5 -46.167 75.5 -75.5s36.5 -62 46.5 -98v239h432v-781c0 -112 -12.5 -213.167 -37.5 -303.5s-63.5 -167 -115.5 -230s-118 -111.5 -198 -145.5s-175 -51 -285 -51c-32 0 -66 1.66699 -102 5s-74 8.33301 -114 15
l32 306c66.667 -8 113.334 -12 140.001 -12c51.333 0 93.333 8.33301 126 25s59 39.5 79 68.5s35.333 63.333 46 103s19.667 82.834 27 129.501zM886.999 520c-1.33301 26.667 -7.8291 51.833 -19.4961 75.5s-26.834 44.5 -45.501 62.5s-40 32.167 -64 42.5
s-49 15.5 -75 15.5c-29.333 0 -56.5 -5.5 -81.5 -16.5s-46.5 -25.833 -64.5 -44.5s-32.167 -40.334 -42.5 -65.001s-15.5 -50.667 -15.5 -78c0 -32.667 6.16699 -61.667 18.5 -87s28.333 -46.666 48 -63.999s41.667 -30.5 66 -39.5s48.166 -13.5 71.499 -13.5
c27.333 0 53.166 5.33301 77.499 16s45.666 25 63.999 43s33 38.833 44 62.5s17.167 48.5 18.5 74.5v16z" />
    <glyph glyph-name="h" unicode="h" horiz-adv-x="1413" 
d="M107 1350l432.001 63.998v-616c34.667 84.667 80.5 146.334 137.5 185.001s123.833 58 200.5 58c62 0 119.667 -12.5 173 -37.5s99.833 -60.333 139.5 -106s70.834 -100.5 93.501 -164.5s34 -135 34 -213v-520h-430v512c0 26 -3.66699 51.333 -11 76
s-17.333 46.5 -30 65.5s-27.834 34.167 -45.501 45.5s-36.834 17 -57.501 17c-29.333 0 -56.5 -5.83301 -81.5 -17.5s-46.5 -27.5 -64.5 -47.5s-32.167 -43.167 -42.5 -69.5s-15.5 -54.166 -15.5 -83.499v-498h-432v1350z" />
    <glyph glyph-name="i" unicode="i" horiz-adv-x="748" 
d="M91 1366c0 30 6.5 57.666 19.5 82.999s30.167 47.166 51.5 65.499s46 32.5 74 42.5s57 15 87 15c34.667 0 66.167 -6.16699 94.5 -18.5s52.5 -28.333 72.5 -48s35.5 -41.667 46.5 -66s16.5 -48.833 16.5 -73.5c0 -30.667 -6.33301 -58.667 -19 -84
s-29.667 -47.166 -51 -65.499s-45.833 -32.666 -73.5 -42.999s-56.5 -15.5 -86.5 -15.5c-32.667 0 -63.167 5.33301 -91.5 16s-52.833 25.5 -73.5 44.5s-37 41 -49 66s-18 52.167 -18 81.5zM731 53.999c-80.667 -46.667 -170 -70.001 -268 -70.001
c-58 0 -109.667 9.66699 -155 29s-83.5 46.833 -114.5 82.5s-54.5 78.834 -70.5 129.501s-24 107 -24 169v632h434v-612c0 -32.667 8.66699 -57.167 26 -73.5s39.333 -24.5 66 -24.5s54.667 8 84 24z" />
    <glyph glyph-name="j" unicode="j" horiz-adv-x="646" 
d="M-29 -110c90.667 0 136 56.667 136 170v966h432v-966c0 -78 -10.5 -148 -31.5 -210s-51 -114.667 -90 -158s-86.5 -76.5 -142.5 -99.5s-119.333 -34.5 -190 -34.5c-125.333 0 -242 36 -350 108l94 254c62.667 -20 110 -30 142 -30zM85 1366
c0 29.333 6.5 56.6689 19.5 82.002s30.167 47.166 51.5 65.499s45.833 32.666 73.5 42.999s56.167 15.5 85.5 15.5c34.667 0 66.334 -6 95.001 -18s53.167 -27.833 73.5 -47.5s36 -41.834 47 -66.501s16.5 -49.334 16.5 -74.001c0 -30.667 -6.33301 -58.667 -19 -84
s-29.5 -47.166 -50.5 -65.499s-45.667 -32.666 -74 -42.999s-57.833 -15.5 -88.5 -15.5c-32.667 0 -63 5.5 -91 16.5s-52.333 26 -73 45s-36.834 41.167 -48.501 66.5s-17.5 52 -17.5 80z" />
    <glyph glyph-name="k" unicode="k" horiz-adv-x="1314" 
d="M973 592c14.667 -86.667 29.334 -145 44.001 -175c30.667 -68.667 84.667 -103 162 -103c19.333 0 48.666 4 87.999 12l-40 -336c-42 -4 -80 -6 -114 -6c-73.333 0 -134.5 7.5 -183.5 22.5s-90.333 38.5 -124 70.5s-61.5 72.833 -83.5 122.5s-42.333 109.167 -61 178.5
l-120 -96v-282h-434v1350l434 64v-702l526 430l236 -320z" />
    <glyph glyph-name="l" unicode="l" horiz-adv-x="774" 
d="M771 54c-92.667 -46.667 -195.333 -69.998 -308 -69.998c-58 0 -109.667 9.5 -155 28.5s-83.5 46.333 -114.5 82s-54.5 78.667 -70.5 129s-24 107.166 -24 170.499v956l432 64v-990c0 -36.667 11.667 -63.834 35 -81.501s55 -26.5 95 -26.5c30.667 0 62 8 94 24z" />
    <glyph glyph-name="m" unicode="m" horiz-adv-x="2100" 
d="M1240 786c28 84.667 73.001 148.337 135.001 191.004s142.333 64 241 64c56 0 107.667 -13 155 -39s88.333 -62.333 123 -109s61.667 -102.334 81 -167.001s29 -136 29 -214v-512h-432v512c0 28.667 -3.16699 55.167 -9.5 79.5s-15.5 45.5 -27.5 63.5s-26.667 32 -44 42
s-37 15 -59 15c-28.667 0 -53.334 -6.5 -74.001 -19.5s-37.667 -29.333 -51 -49s-23.166 -41.334 -29.499 -65.001s-9.5 -45.834 -9.5 -66.501v-512h-428v512c0 28 -3.16699 54.167 -9.5 78.5s-15.666 45.5 -27.999 63.5s-27.5 32.167 -45.5 42.5s-38.333 15.5 -61 15.5
c-24.667 0 -46.834 -5 -66.501 -15s-36.5 -23.833 -50.5 -41.5s-24.833 -38.167 -32.5 -61.5s-11.834 -48 -12.501 -74v-520h-432v1011h432v-209c38 84.667 86.167 145.667 144.5 183s126.833 56 205.5 56c38 0 74.667 -4.83301 110 -14.5s68.5 -24.834 99.5 -45.501
s59 -47.167 84 -79.5s45.833 -70.833 62.5 -115.5z" />
    <glyph glyph-name="n" unicode="n" horiz-adv-x="1407" 
d="M102 1011l411.998 -0.00195312v-209c40 80.667 91.5 140.667 154.5 180s136.833 59 221.5 59c68 0 128 -12.667 180 -38s95.833 -61.166 131.5 -107.499s62.667 -102 81 -167s27.5 -137.167 27.5 -216.5v-512h-430v554c0 26.667 -2.5 51.334 -7.5 74.001
s-13 42.167 -24 58.5s-24.833 29 -41.5 38s-37 13.5 -61 13.5c-29.333 0 -56.333 -7.16699 -81 -21.5s-46.167 -31.833 -64.5 -52.5s-33.166 -42.167 -44.499 -64.5s-18.666 -41.5 -21.999 -57.5v-542h-432v1011z" />
    <glyph glyph-name="o" unicode="o" horiz-adv-x="1284" 
d="M452 514c0 -37.333 5.5 -70 16.5 -98s25.5 -51.333 43.5 -70s38.667 -32.667 62 -42s47 -14 71 -14s47.5 4.66699 70.5 14s43.667 23.333 62 42s33 42 44 70s16.5 60.667 16.5 98s-5.5 70 -16.5 98s-25.667 51.167 -44 69.5s-39 32.166 -62 41.499s-46.5 14 -70.5 14
s-47.667 -4.66699 -71 -14s-44 -23.166 -62 -41.499s-32.5 -41.5 -43.5 -69.5s-16.5 -60.667 -16.5 -98zM52 514c3.33301 86 21.1699 161.666 53.5029 226.999s75.166 120.333 128.499 165s115.166 78.334 185.499 101.001s145.166 34 224.499 34c86.667 0 166 -13 238 -39
s134 -62.167 186 -108.5s92.333 -101.833 121 -166.5s43 -135.667 43 -213c0 -62.667 -8.16699 -119.334 -24.5 -170.001s-38.5 -95.5 -66.5 -134.5s-61 -72.833 -99 -101.5s-79 -52.167 -123 -70.5s-89.5 -31.833 -136.5 -40.5s-93.833 -13 -140.5 -13
c-88 0 -168.167 12.833 -240.5 38.5s-134.5 61.834 -186.5 108.501s-92.167 102.5 -120.5 167.5s-42.5 136.833 -42.5 215.5z" />
    <glyph glyph-name="p" unicode="p" horiz-adv-x="1423" 
d="M870 -16c-75.333 0 -141 15.833 -197 47.5s-102.333 84.5 -139 158.5v-456l-432 -82v1359h432v-177c35.333 74 80.833 127 136.5 159s121.5 48 197.5 48c63.333 0 123.5 -9.83301 180.5 -29.5s110.833 -54.167 161.5 -103.5c106.667 -104.667 160 -236.667 160 -396
c0 -157.333 -53 -289 -159 -395c-49.333 -49.333 -102.5 -83.833 -159.5 -103.5s-117.5 -29.5 -181.5 -29.5zM534 512c0 -29.333 5.50488 -56.334 16.5049 -81.001s25.833 -46.167 44.5 -64.5s40.167 -32.666 64.5 -42.999s49.833 -15.5 76.5 -15.5
c29.333 0 56.666 5.5 81.999 16.5s47.166 25.833 65.499 44.5s32.666 40.334 42.999 65.001s15.5 50.667 15.5 78c0 32 -6 60.667 -18 86s-27.833 46.666 -47.5 63.999s-41.834 30.666 -66.501 39.999s-49.334 14 -74.001 14c-32 0 -60.167 -6.16699 -84.5 -18.5
s-44.833 -28 -61.5 -47s-29.667 -40.167 -39 -63.5s-15 -45.666 -17 -66.999v-8z" />
    <glyph glyph-name="q" unicode="q" horiz-adv-x="1425" 
d="M555 1041c76 0 141.998 -16.001 197.998 -48.001s102 -85 138 -159v177h432v-1277l-432 -82v538c-36.667 -74 -83.167 -126.833 -139.5 -158.5s-122.5 -47.5 -198.5 -47.5s-144.833 14.5 -206.5 43.5s-114.334 67.833 -158.001 116.5s-77.167 104.834 -100.5 168.501
s-35 130.167 -35 199.5c0 76 13.333 146.333 40 211s62.834 120.5 108.501 167.5s98.834 83.833 159.501 110.5s125.334 40 194.001 40zM890.998 519.999c-1.33301 26.667 -7.83105 52 -19.498 76s-26.834 44.833 -45.501 62.5s-39.834 31.667 -63.501 42
s-48.167 15.5 -73.5 15.5c-29.333 0 -56.5 -5.5 -81.5 -16.5s-46.667 -25.833 -65 -44.5s-32.833 -40.334 -43.5 -65.001s-16 -50.667 -16 -78c0 -29.333 5.66699 -56.333 17 -81s26.5 -46.167 45.5 -64.5s40.833 -32.666 65.5 -42.999s50.667 -15.5 78 -15.5
s53 5.33301 77 16s45 25 63 43s32.5 38.833 43.5 62.5s17.167 48.5 18.5 74.5v16z" />
    <glyph glyph-name="r" unicode="r" horiz-adv-x="914" 
d="M102 1011l432 0.000976562v-209c32.667 82.667 76.167 143.167 130.5 181.5s116.833 57.5 187.5 57.5l60 -335c-130 0 -225.5 -13.833 -286.5 -41.5s-91.5 -71.834 -91.5 -132.501v-532h-432v1011z" />
    <glyph glyph-name="s" unicode="s" horiz-adv-x="947" 
d="M546 786c-81.333 0 -122.001 -14.0029 -122.001 -42.0029c0 -10.667 3 -20.167 9 -28.5s14 -15.666 24 -21.999s21 -11.5 33 -15.5s24 -6.66699 36 -8c52.667 -8 101.5 -20.167 146.5 -36.5s84 -38.166 117 -65.499s59 -60.833 78 -100.5s28.5 -86.834 28.5 -141.501
c0 -54 -9.5 -102.167 -28.5 -144.5s-45.5 -78.166 -79.5 -107.499s-74 -51.666 -120 -66.999s-96 -23 -150 -23c-87.333 0 -167.166 4 -239.499 12s-138.5 25.333 -198.5 52l46 236l57.5 -16c16.333 -4.66699 29.833 -8 40.5 -10l38 -7.5
c15.333 -3 31.833 -5.83301 49.5 -8.5s35.5 -5 53.5 -7s34.333 -3 49 -3c68 0 102 16 102 48c-2 12.667 -7.16699 23.834 -15.5 33.501s-18.833 18 -31.5 25s-27.167 12.833 -43.5 17.5s-33.5 8.66699 -51.5 12c-52 10 -97.833 23.333 -137.5 40
s-72.834 38.167 -99.501 64.5s-46.834 58.666 -60.501 96.999s-20.5 83.833 -20.5 136.5c2.66699 60 15.334 111.167 38.001 153.5s53.334 77 92.001 104s84.167 46.667 136.5 59s109.5 18.5 171.5 18.5c64.667 0 125.667 -3.5 183 -10.5s111 -22.5 161 -46.5l-44 -244
c-100 30.667 -182.667 46 -248 46z" />
    <glyph glyph-name="t" unicode="t" horiz-adv-x="890" 
d="M839 54c-92.667 -46.667 -195.332 -69.999 -307.999 -69.999c-58 0 -109.667 9.5 -155 28.5s-83.5 46.333 -114.5 82s-54.5 78.667 -70.5 129s-24 107.166 -24 170.499l2 378h-130v254h162l190 388h208v-388h236v-254h-236v-348c0 -36 11.667 -63 35 -81s55 -27 95 -27
c31.333 0 62.666 8 93.999 24z" />
    <glyph glyph-name="u" unicode="u" horiz-adv-x="1286" 
d="M516 426c0 -18 3.50195 -34.501 10.502 -49.501s16.667 -27.833 29 -38.5s26.666 -19 42.999 -25s33.5 -9 51.5 -9c17.333 0 33.666 3.16699 48.999 9.5s28.666 15 39.999 26s20.333 23.833 27 38.5s10 30.667 10 48v600h414v-586c0 -70.667 -13.667 -134.167 -41 -190.5
s-65.166 -104.166 -113.499 -143.499s-105.5 -69.5 -171.5 -90.5s-138 -31.5 -216 -31.5c-76.667 0 -148.667 10.167 -216 30.5s-126 50 -176 89s-89.5 86.833 -118.5 143.5s-43.5 121 -43.5 193v586h422v-600z" />
    <glyph glyph-name="v" unicode="v" horiz-adv-x="1168" 
d="M2 1026h476l162 -630l26 140l122 490h376l-326 -1026h-498z" />
    <glyph glyph-name="w" unicode="w" horiz-adv-x="1707" 
d="M41 1026h418l116 -666c8 33.333 15.667 66.833 23 100.5l22.5 105.5l24.5 117l28 134l44 209h352l102 -482l38 -200l40 200l80 482h336l-212 -1026h-496l-110 542l-108 -542h-472z" />
    <glyph glyph-name="x" unicode="x" horiz-adv-x="1136" 
d="M316 532l-292 494h432l116 -242l118 242h420l-286 -494l306 -532h-420l-138 262l-136 -262h-432z" />
    <glyph glyph-name="y" unicode="y" horiz-adv-x="1369" 
d="M852 170c-63.333 -113.333 -162.001 -170.001 -296.001 -170.001c-61.333 0 -119.666 10.833 -174.999 32.5s-104 51.834 -146 90.501s-75.333 84.5 -100 137.5s-37 110.833 -37 173.5v592h430v-572c0 -20 4.16699 -38.833 12.5 -56.5s19 -33.167 32 -46.5
s27.833 -23.833 44.5 -31.5s33.667 -11.5 51 -11.5c24.667 0 47.167 4.5 67.5 13.5s37.666 21.333 51.999 37s25.333 34 33 55s11.5 43.833 11.5 68.5v544h432v-766c0 -120 -12.5 -226 -37.5 -318s-61.833 -169.167 -110.5 -231.5s-108.667 -109.666 -180 -141.999
s-153.333 -48.5 -246 -48.5c-21.333 0 -46.666 1.66699 -75.999 5s-63.333 8.33301 -102 15l44 336c18 -4.66699 35.333 -7.83398 52 -9.50098s33 -2.5 49 -2.5c38.667 0 69.834 9.16699 93.501 27.5s42.5 42 56.5 71s24.167 61.667 30.5 98s11.166 72.833 14.499 109.5z
" />
    <glyph glyph-name="z" unicode="z" horiz-adv-x="1003" 
d="M63 220l360 544h-346v262h852v-222l-318 -542h328v-262h-876v220z" />
    <glyph glyph-name="braceleft" unicode="{" horiz-adv-x="728" 
d="M138 488c0 38 -11.501 67.1689 -34.501 87.502s-53.5 32.5 -91.5 36.5v160c38 4 68.5 15.833 91.5 35.5s34.5 48.5 34.5 86.5c0 83.333 12.333 158.333 37 225s59.667 124 105 172s100.166 86.167 164.499 114.5s136.166 45.833 215.499 52.5v-178
c-45.333 -16.667 -77.666 -58.5 -96.999 -125.5s-29 -153.833 -29 -260.5c0 -46.667 -14 -85.834 -42 -117.501s-66 -59.834 -114 -84.501c48.667 -25.333 86.834 -53.666 114.501 -84.999s41.5 -71 41.5 -119c0 -110.667 10.5 -198.334 31.5 -263.001s52.5 -105 94.5 -121
v-178c-81.333 6 -154.166 23.5 -218.499 52.5s-119 67.833 -164 116.5s-79.5 106.167 -103.5 172.5s-36 139.833 -36 220.5z" />
    <glyph glyph-name="bar" unicode="|" horiz-adv-x="434" 
d="M119 1408h196v-1408h-196v1408z" />
    <glyph glyph-name="braceright" unicode="}" horiz-adv-x="728" 
d="M716 612c-38 -4 -68.5039 -16.1729 -91.5039 -36.5059s-34.5 -49.5 -34.5 -87.5c0 -83.333 -12.167 -158.166 -36.5 -224.499s-59.166 -123.333 -104.499 -171s-100.166 -85.667 -164.499 -114s-136.5 -45.833 -216.5 -52.5v178
c44.667 16.667 76.834 58.167 96.501 124.5s29.5 152.833 29.5 259.5c0 48 13.833 87.667 41.5 119s65.834 59.666 114.501 84.999c-48 24.667 -86 52.834 -114 84.501s-42 70.834 -42 117.501c0 224.667 -42 353.334 -126 386.001v178
c82 -6.66699 155.167 -24.667 219.5 -54s119 -68.166 164 -116.499s79.333 -105.666 103 -171.999s35.5 -140.166 35.5 -221.499c0 -38 11.5 -66.833 34.5 -86.5s53.5 -31.5 91.5 -35.5v-160z" />
    <glyph glyph-name="asciitilde" unicode="~" horiz-adv-x="1188" 
d="M390 710c-14.667 0 -27.3291 -2.99805 -37.9961 -8.99805s-20 -13.833 -28 -23.5s-15.167 -20.834 -21.5 -33.501s-12.5 -26 -18.5 -40l-242 98c19.333 56 41.833 106 67.5 150s53.667 81 84 111s62.166 53 95.499 69s67.666 24 102.999 24
c31.333 0 62.833 -3.66699 94.5 -11s57.5 -14.666 77.5 -21.999c37.333 -14.667 67.666 -27 90.999 -37s43.5 -18.167 60.5 -24.5s32.833 -10.833 47.5 -13.5s31.667 -4 51 -4c28 0 49.667 8.33301 65 25s28.333 39 39 67l238 -98c-38 -114 -84.5 -199.167 -139.5 -255.5
s-119.833 -84.5 -194.5 -84.5c-24 0 -46.333 1.33301 -67 4s-40.334 6.16699 -59.001 10.5s-37 9.66602 -55 15.999s-36.333 13.166 -55 20.499l-100 43c-29.333 12 -61.333 18 -96 18z" />
    <glyph glyph-name="uni00A0" unicode="&#xa0;" horiz-adv-x="383" 
 />
    <glyph glyph-name="exclamdown" unicode="&#xa1;" horiz-adv-x="626" 
d="M95 318.134v-317.961h432v317.961l-80 579.929h-270zM87 1238.02c0 -30.6631 6.33203 -58.6621 18.999 -83.9932c12.667 -25.3301 29.834 -46.9941 51.501 -64.9912c21.667 -17.998 46.5 -31.9961 74.5 -41.9951s57 -14.998 87 -14.998c30.667 0 60 5.33301 88 15.998
s52.5 25.3301 73.5 43.9941c21 18.665 37.667 40.4961 50 65.4932s18.5 51.8271 18.5 80.4902c0 29.9961 -6.5 57.8262 -19.5 83.4902c-13 25.6631 -30.167 47.6602 -51.5 65.9912s-45.833 32.6631 -73.5 42.9951s-56.167 15.498 -85.5 15.498
c-32 0 -62.167 -5.33301 -90.5 -15.998s-53 -25.4961 -74 -44.4932c-21 -18.998 -37.5 -40.9951 -49.5 -65.9922s-18 -52.1602 -18 -81.4893z" />
    <glyph glyph-name="cent" unicode="&#xa2;" horiz-adv-x="1008" 
d="M918 50c-20.667 -9.33301 -44.0029 -19.168 -70.0029 -29.501s-56 -21.166 -90 -32.499v-174h-134v154h-18c-80 0 -153.833 13.5 -221.5 40.5s-126.167 64.5 -175.5 112.5s-87.833 105.333 -115.5 172s-41.5 139.667 -41.5 219c0 78.667 14.167 151.334 42.5 218.001
s67.333 124.167 117 172.5s108.167 86 175.5 113s140.333 40.5 219 40.5h18v134h134v-156c60.667 -20.667 115.334 -46 164.001 -76l-42 -272c-23.333 7.33301 -45.166 13.166 -65.499 17.499s-39.166 7.83301 -56.499 10.5v-406c40 4 79.333 13.333 118 28z
M623.997 713.998c-44 -10.667 -79.333 -33.9971 -106 -69.9971s-40 -80 -40 -132c0 -26 3.66699 -50.333 11 -73s17.5 -42.834 30.5 -60.501s28.333 -32.334 46 -44.001s37.167 -19.834 58.5 -24.501v404z" />
    <glyph glyph-name="sterling" unicode="&#xa3;" horiz-adv-x="1074" 
d="M771 1132c-40 0 -71.167 -9.83691 -93.5 -29.5039s-33.5 -48.5 -33.5 -86.5v-226h256v-174h-256v-316h344v-300h-914v128c42 2.66699 74.167 19.334 96.5 50.001s33.5 71.334 33.5 122.001v316h-130v174h130v104c0 86.667 7 163.834 21 231.501
s38.167 124.834 72.5 171.501s80 82.167 137 106.5s128.5 36.5 214.5 36.5c112 0 230 -26 354 -78l-34 -278c-78 32 -144 48 -198 48z" />
    <glyph glyph-name="currency" unicode="&#xa4;" horiz-adv-x="1145" 
d="M219 378c-65.333 75.333 -98 163.999 -98 265.999c0 50.667 8 98 24 142s39.333 84 70 120l-141 141l92 91l149 -149c74.667 44.667 159 67 253 67c92.667 0 178.667 -23.667 258 -71l153 153l92 -91l-145 -145c62.667 -70.667 94 -156.667 94 -258
s-32.667 -188.666 -98 -261.999l149 -149l-91 -92l-161 160c-74.667 -42.667 -159 -64 -253 -64c-92 0 -173.333 20.333 -244 61l-157 -157l-91 92zM446 517.999c31.333 -31.333 72.334 -46.999 123.001 -46.999c25.333 0 48.333 4.33301 69 13s38.5 20.667 53.5 36
s26.5 33.5 34.5 54.5s12 44.167 12 69.5c0 24.667 -4 47.667 -12 69s-19.333 39.666 -34 54.999s-32.334 27.333 -53.001 36s-43.667 13 -69 13s-48.333 -4.16699 -69 -12.5s-38.5 -20 -53.5 -35s-26.667 -33.167 -35 -54.5s-12.5 -45 -12.5 -71
c0 -53.333 15.333 -95.333 46 -126z" />
    <glyph glyph-name="yen" unicode="&#xa5;" horiz-adv-x="1172" 
d="M158 298h308v90h-308v128h256l-366 860h268l270 -744l266 744h268l-364 -860h272v-128h-326v-90h326v-122h-326v-176h-236v176h-308v122z" />
    <glyph glyph-name="brokenbar" unicode="&#xa6;" horiz-adv-x="438" 
d="M121 552h196v-552h-196v552zM121 1408h196v-552h-196v552z" />
    <glyph glyph-name="section" unicode="&#xa7;" horiz-adv-x="1091" 
d="M883 516c82.667 -54 123.995 -132.002 123.995 -234.002c0 -42 -7 -78.833 -21 -110.5s-32.667 -59 -56 -82s-50.666 -42.333 -81.999 -58s-64.5 -28.167 -99.5 -37.5s-70.667 -16 -107 -20s-71.166 -6 -104.499 -6c-148 0 -290 25.333 -426 76l44 248
c22.667 -7.33301 47.667 -14.5 75 -21.5s55.833 -13.333 85.5 -19s59.667 -10.334 90 -14.001s60.166 -5.5 89.499 -5.5c62.667 0 94 15.333 94 46c0 8 -2.33301 14.833 -7 20.5s-12.834 11.334 -24.501 17.001s-27.667 12 -48 19l-76.5 27.5l-81 29
c-22 8 -48.167 18.833 -78.5 32.5s-59.5 31.5 -87.5 53.5s-51.833 48.833 -71.5 80.5s-29.5 69.167 -29.5 112.5c0 104 41.333 186 124 246c-82.667 52.667 -124 131.334 -124 236.001c2.66699 54.667 17.5 100.5 44.5 137.5s61.833 66.667 104.5 89
s91.167 38.166 145.5 47.499s110.166 14 167.499 14c160 0 294 -25.333 402 -76l-44 -228c-13.333 4.66699 -31.166 9.83398 -53.499 15.501s-47.5 10.834 -75.5 15.501s-58.167 8.66699 -90.5 12s-65.166 5 -98.499 5c-64 0 -96 -13.333 -96 -40c0 -14 12.833 -27 38.5 -39
s57.834 -24.667 96.501 -38s80.334 -28.5 125.001 -45.5s86.334 -37.167 125.001 -60.5s70.834 -51 96.501 -83s38.5 -70 38.5 -114c0 -56.667 -11.333 -106 -34 -148s-54 -75.333 -94 -100zM490.995 803.998c-26.667 -2 -48 -10.834 -64 -26.501s-24 -37.5 -24 -65.5
c0 -8 4.16699 -16.667 12.5 -26s20 -18.833 35 -28.5s33.167 -19 54.5 -28s44.666 -16.833 69.999 -23.5c30.667 0 55.334 7.66699 74.001 23s28 37 28 65c0 21.333 -16 40.833 -48 58.5s-78 34.834 -138 51.501z" />
    <glyph glyph-name="dieresis" unicode="&#xa8;" horiz-adv-x="1246" 
d="M702 1328c0 30.667 6.66406 58.6699 19.9971 84.0029s30.833 47.166 52.5 65.499s46.334 32.666 74.001 42.999s56.167 15.5 85.5 15.5c34.667 0 66 -6.16699 94 -18.5s52 -28.5 72 -48.5s35.333 -42.333 46 -67s16 -49.334 16 -74.001c0 -30 -6.33301 -57.667 -19 -83
s-29.5 -47 -50.5 -65s-45.333 -32.167 -73 -42.5s-56.167 -15.5 -85.5 -15.5c-34.667 0 -66.167 5.66699 -94.5 17s-52.666 26.5 -72.999 45.5s-36.166 40.833 -47.499 65.5s-17 50.667 -17 78zM83.9971 1328c0 29.333 6.33301 56.665 19 81.998s29.667 47.333 51 66
s45.833 33.334 73.5 44.001s56.5 16 86.5 16c32 0 61.833 -5.66699 89.5 -17s52 -26.666 73 -45.999s37.5 -41.5 49.5 -66.5s18 -51.167 18 -78.5c0 -30.667 -6.5 -58.667 -19.5 -84s-30.167 -47 -51.5 -65s-45.833 -32 -73.5 -42s-56.167 -15 -85.5 -15
c-32 0 -61.833 5.33301 -89.5 16s-52 25.167 -73 43.5s-37.5 40 -49.5 65s-18 52.167 -18 81.5z" />
    <glyph glyph-name="copyright" unicode="&#xa9;" horiz-adv-x="1426" 
d="M711 90c68.667 0 133.5 13.834 194.5 41.501s114.333 65.167 160 112.5s81.667 102.666 108 165.999s39.5 130.666 39.5 201.999c0 77.333 -14.167 148 -42.5 212s-66 119 -113 165s-100.5 81.667 -160.5 107s-122 38 -186 38c-70 0 -135.5 -13.667 -196.5 -41
s-114.167 -64.5 -159.5 -111.5s-81 -102.333 -107 -166s-39 -131.5 -39 -203.5c0 -73.333 13 -141.666 39 -204.999s61.667 -118.5 107 -165.5s98.5 -84 159.5 -111s126.5 -40.5 196.5 -40.5zM711 -31.999c-178 0 -329.332 64 -453.999 192
c-124 126.667 -186 279.667 -186 459c0 93.333 17.167 177.333 51.5 252s80.833 140.334 139.5 197.001c26 25.333 55.167 49.166 87.5 71.499s67.666 41.833 105.999 58.5s79.333 29.834 123 39.501s90.167 14.5 139.5 14.5c173.333 0 323.333 -63.333 450 -190
c124.667 -124.667 187 -274.667 187 -450c0 -176.667 -63 -328.334 -189 -455.001c-125.333 -126 -277 -189 -455 -189zM505.001 610.001c0 -78.667 21.0029 -140 63.0029 -184s102.333 -66 181 -66c54.667 0 118 14 190 42l20 -120
c-68.667 -34.667 -143.334 -52 -224.001 -52c-58.667 0.666992 -112 10 -160 28s-89 43.5 -123 76.5s-60.5 72.667 -79.5 119s-28.833 98.5 -29.5 156.5c0 58.667 10.667 111.5 32 158.5s49.666 86.833 84.999 119.5s76.333 57.834 123 75.501s95.334 26.5 146.001 26.5
c87.333 0 164.666 -20.667 231.999 -62l-18 -114c-63.333 32 -127.333 48 -192 48c-78.667 0 -139.334 -22.333 -182.001 -67s-64 -106.334 -64 -185.001z" />
    <glyph glyph-name="ordfeminine" unicode="&#xaa;" horiz-adv-x="1425" 
d="M890 190c-32 -66.667 -75.3301 -117.667 -129.997 -153s-123.334 -53 -206.001 -53c-66.667 0 -130.334 13.5 -191.001 40.5s-114 64.333 -160 112s-82.667 104.167 -110 169.5s-41 136.333 -41 213c0 76 13.833 146 41.5 210s64.667 119.167 111 165.5
s99.666 82.333 159.999 108s123.5 38.5 189.5 38.5c34 0 67.5 -4.5 100.5 -13.5s64.333 -23.333 94 -43s56.667 -44.5 81 -74.5s44.5 -66 60.5 -108v239h430v-1041h-430v190zM890.003 520c-1.33301 26.667 -7.66797 52 -19.001 76s-26.166 44.833 -44.499 62.5
s-39.5 31.667 -63.5 42s-49 15.5 -75 15.5c-29.333 0 -56.5 -5.5 -81.5 -16.5s-46.667 -25.667 -65 -44s-32.833 -39.833 -43.5 -64.5s-16 -51 -16 -79c0 -29.333 5.66699 -56.5 17 -81.5s26.5 -46.5 45.5 -64.5s40.833 -32.167 65.5 -42.5s50.667 -15.5 78 -15.5
c28 0 54 5.33301 78 16s45 25 63 43s32.333 38.833 43 62.5s16.667 48.5 18 74.5v16z" />
    <glyph glyph-name="guillemotleft" unicode="&#xab;" horiz-adv-x="1109" 
d="M585 810l430 306v-372l-198 -118l198 -124v-374l-430 314v368zM53 810l430 306v-372l-196 -118l196 -124v-374l-430 314v368z" />
    <glyph glyph-name="logicalnot" unicode="&#xac;" horiz-adv-x="1094" 
d="M982 852v-678h-220v356h-682v322h902z" />
    <glyph glyph-name="registered" unicode="&#xae;" horiz-adv-x="1426" 
d="M832 565c6 -27.333 12.333 -53.6641 19 -78.9971s16.167 -47.833 28.5 -67.5s28.833 -35.5 49.5 -47.5s48.334 -18 83.001 -18c6.66699 0 15 1.66699 25 5l-26 -102c-40.667 0.666992 -75.5 5.16699 -104.5 13.5s-53.5 20.666 -73.5 36.999s-36.333 36.666 -49 60.999
s-23.334 52.833 -32.001 85.5l-37 143h-132v-324h-116v722h256c186.667 0 280 -66 280 -198c0 -114.667 -59.333 -179.334 -178 -194.001zM877 796.002c0 20.667 -3.33398 37.6699 -10.001 51.0029s-16.667 23.833 -30 31.5s-30.333 12.834 -51 15.501s-45 4 -73 4h-130
v-208h158c22 1.33301 41.5 3.16602 58.5 5.49902s31.333 7.16602 43 14.499s20.334 17.666 26.001 30.999s8.5 31.666 8.5 54.999zM710.999 90.0049c68.667 0 133.5 13.834 194.5 41.501s114.333 65.167 160 112.5s81.667 102.666 108 165.999s39.5 130.666 39.5 201.999
c0 77.333 -14.167 148 -42.5 212s-66 119 -113 165s-100.5 81.667 -160.5 107s-122 38 -186 38c-70 0 -135.5 -13.667 -196.5 -41s-114.167 -64.5 -159.5 -111.5s-81 -102.333 -107 -166s-39 -131.5 -39 -203.5c0 -73.333 13 -141.666 39 -204.999s61.667 -118.5 107 -165.5
s98.5 -84 159.5 -111s126.5 -40.5 196.5 -40.5zM710.999 -31.9941c-178 0 -329.332 64 -453.999 192c-124 126.667 -186 279.667 -186 459c0 93.333 17.167 177.333 51.5 252s80.833 140.334 139.5 197.001c26 25.333 55.167 49.166 87.5 71.499s67.666 41.833 105.999 58.5
s79.333 29.834 123 39.501s90.167 14.5 139.5 14.5c173.333 0 323.333 -63.333 450 -190c124.667 -124.667 187 -274.667 187 -450c0 -176.667 -63 -328.334 -189 -455.001c-125.333 -126 -277 -189 -455 -189z" />
    <glyph glyph-name="macron" unicode="&#xaf;" horiz-adv-x="680" 
d="M69 1412h550v-242h-550v242z" />
    <glyph glyph-name="degree" unicode="&#xb0;" horiz-adv-x="1278" 
d="M909 878c0 44.667 -7 84.833 -21 120.5s-33.167 66 -57.5 91s-52.833 44 -85.5 57s-67.334 19.5 -104.001 19.5c-41.333 0 -78.5 -7.33301 -111.5 -22s-61.167 -34.834 -84.5 -60.501s-41.333 -56.167 -54 -91.5s-19 -73.333 -19 -114
c0 -43.333 6.66699 -82.666 20 -117.999s31.833 -65.666 55.5 -90.999s52 -45 85 -59s69.167 -21 108.5 -21c40 0 76.5 7.16699 109.5 21.5s61.333 34.166 85 59.499s41.834 55.833 54.501 91.5s19 74.5 19 116.5zM662 1421c82.667 0 157.666 -13.499 224.999 -40.499
s124.666 -64.333 171.999 -112s84 -104.334 110 -170.001s39 -137.167 39 -214.5c0 -80 -13.667 -153.833 -41 -221.5s-65.833 -126 -115.5 -175s-109.5 -87.333 -179.5 -115s-147.667 -41.5 -233 -41.5c-80 0 -154.667 12.833 -224 38.5s-129.666 62.167 -180.999 109.5
s-91.666 104.5 -120.999 171.5s-44 142.167 -44 225.5c0 80 13.833 153.5 41.5 220.5s66.667 124.5 117 172.5s110.5 85.333 180.5 112s147.667 40 233 40h21z" />
    <glyph glyph-name="plusminus" unicode="&#xb1;" horiz-adv-x="1140" 
d="M512 644h-440v116h440v452h120v-452h436v-116h-436v-458h-120v458zM72 114h996v-114h-996v114z" />
    <glyph glyph-name="twosuperior" unicode="&#xb2;" horiz-adv-x="666" 
d="M70 1376c97.333 42.667 190 64.0029 278 64.0029c36.667 0 70 -6 100 -18s55.5 -28.833 76.5 -50.5s37.167 -47.834 48.5 -78.501s17 -64.334 17 -101.001c0 -62 -22.333 -121.333 -67 -178s-109.667 -109.334 -195 -158.001h240v-170h-484v162
c90 84 156.833 154.5 200.5 211.5s65.5 100.5 65.5 130.5c0 37.333 -27.333 56 -82 56c-31.333 0 -77.333 -14.667 -138 -44z" />
    <glyph glyph-name="threesuperior" unicode="&#xb3;" horiz-adv-x="644" 
d="M444 1076c93.333 -41.333 139.999 -109.331 139.999 -203.998c0 -35.333 -7 -66.5 -21 -93.5s-33.5 -49.5 -58.5 -67.5s-54.333 -31.667 -88 -41s-69.834 -14 -108.501 -14c-64 0 -144 16 -240 48l38 164c72 -24 129.333 -36 172 -36c24 0 44 4.16699 60 12.5
s24 21.5 24 39.5c0 70.667 -67.333 106 -202 106v138c28 0 54 1.16699 78 3.5s44.833 6.66602 62.5 12.999s31.334 14.833 41.001 25.5s14.5 24 14.5 40c0 15.333 -5.66699 26.833 -17 34.5s-25.666 11.5 -42.999 11.5c-50.667 0 -114 -11.333 -190 -34l-38 158
c88 40 172 60 252 60c30.667 0 60 -4.5 88 -13.5s52.5 -21.5 73.5 -37.5s37.667 -35.167 50 -57.5s18.5 -46.833 18.5 -73.5c0 -74.667 -35.333 -135.334 -106 -182.001z" />
    <glyph glyph-name="acute" unicode="&#xb4;" horiz-adv-x="818" 
d="M4 1370l600 420l208 -366l-682 -274z" />
    <glyph glyph-name="paragraph" unicode="&#xb6;" horiz-adv-x="1138" 
d="M529 728h-86c-57.333 0 -110.166 8.33301 -158.499 25s-90 40 -125 70s-62.5 65.833 -82.5 107.5s-30 87.5 -30 137.5c0 49.333 11.333 94.833 34 136.5s55 77.5 97 107.5s92.667 53.5 152 70.5s125.666 25.5 198.999 25.5h458v-1408h-164v1254h-128v-1254h-166v728z" />
    <glyph glyph-name="periodcentered" unicode="&#xb7;" horiz-adv-x="630" 
d="M86 820c0 29.333 6.33301 56.665 19 81.998s29.667 47.333 51 66s45.833 33.334 73.5 44.001s56.5 16 86.5 16c32 0 61.833 -5.66699 89.5 -17s52 -26.666 73 -45.999s37.5 -41.5 49.5 -66.5s18 -51.167 18 -78.5c0 -30.667 -6.5 -58.667 -19.5 -84
s-30.167 -47 -51.5 -65s-45.833 -32 -73.5 -42s-56.167 -15 -85.5 -15c-32 0 -61.833 5.33301 -89.5 16s-52 25.167 -73 43.5s-37.5 40 -49.5 65s-18 52.167 -18 81.5z" />
    <glyph glyph-name="cedilla" unicode="&#xb8;" horiz-adv-x="560" 
d="M290 -274c0 32 -10.668 55.667 -32.001 71s-50 23 -86 23h-4l60 180h114l-40 -116c66.667 -7.33301 118.667 -24.333 156 -51s56 -63 56 -109c0 -41.333 -10.333 -76.666 -31 -105.999s-46 -53.333 -76 -72s-62.167 -32.334 -96.5 -41.001s-65.166 -13 -92.499 -13
c-59.333 0 -119.333 14.667 -180 44l28 76c35.333 -9.33301 66 -14 92 -14c88 0 132 42.667 132 128z" />
    <glyph glyph-name="onesuperior" unicode="&#xb9;" horiz-adv-x="560" 
d="M86 1338c76 0 145.333 23.333 208 70h114v-566h90v-160h-412v160h90v362l-90 -8v142z" />
    <glyph glyph-name="ordmasculine" unicode="&#xba;" horiz-adv-x="1284" 
d="M452 514c0 -37.333 5.5 -70 16.5 -98s25.5 -51.333 43.5 -70s38.667 -32.667 62 -42s47 -14 71 -14s47.5 4.66699 70.5 14s43.667 23.333 62 42s33 42 44 70s16.5 60.667 16.5 98s-5.5 70 -16.5 98s-25.667 51.167 -44 69.5s-39 32.166 -62 41.499s-46.5 14 -70.5 14
s-47.667 -4.66699 -71 -14s-44 -23.166 -62 -41.499s-32.5 -41.5 -43.5 -69.5s-16.5 -60.667 -16.5 -98zM52 514c3.33301 86 21.1699 161.666 53.5029 226.999s75.166 120.333 128.499 165s115.166 78.334 185.499 101.001s145.166 34 224.499 34c86.667 0 166 -13 238 -39
s134 -62.167 186 -108.5s92.333 -101.833 121 -166.5s43 -135.667 43 -213c0 -62.667 -8.16699 -119.334 -24.5 -170.001s-38.5 -95.5 -66.5 -134.5s-61 -72.833 -99 -101.5s-79 -52.167 -123 -70.5s-89.5 -31.833 -136.5 -40.5s-93.833 -13 -140.5 -13
c-88 0 -168.167 12.833 -240.5 38.5s-134.5 61.834 -186.5 108.501s-92.167 102.5 -120.5 167.5s-42.5 136.833 -42.5 215.5z" />
    <glyph glyph-name="guillemotright" unicode="&#xbb;" horiz-adv-x="1107" 
d="M624 502l196 124l-196 118v372l430 -306v-368l-430 -314v374zM94 502l196 124l-196 118v372l430 -306v-368l-430 -314v374z" />
    <glyph glyph-name="onequarter" unicode="&#xbc;" horiz-adv-x="1553" 
d="M72 1338c76 0 145.333 23.333 208 70h114v-566h90v-160h-412v160h90v362l-90 -8v142zM801 1408h204l-340 -1408h-200zM851 331l302 398h256v-398h94v-156h-94v-172h-246v172h-312v156zM1163 331v202l-144 -202h144z" />
    <glyph glyph-name="onehalf" unicode="&#xbd;" horiz-adv-x="1331" 
d="M66 1338c76 0 145.333 23.333 208 70h114v-566h90v-160h-412v160h90v362l-90 -8v142zM725 1408h204l-340 -1408h-200zM757 729c97.333 42.667 190 64.0029 278 64.0029c36.667 0 70 -6 100 -18s55.5 -28.833 76.5 -50.5s37.167 -47.834 48.5 -78.501
s17 -64.334 17 -101.001c0 -62 -22.333 -121.333 -67 -178s-109.667 -109.334 -195 -158.001h240v-170h-484v162c90 84 156.833 154.5 200.5 211.5s65.5 100.5 65.5 130.5c0 37.333 -27.333 56 -82 56c-31.333 0 -77.333 -14.667 -138 -44z" />
    <glyph glyph-name="threequarters" unicode="&#xbe;" horiz-adv-x="1588" 
d="M437 1076c93.333 -41.333 139.999 -109.331 139.999 -203.998c0 -35.333 -7 -66.5 -21 -93.5s-33.5 -49.5 -58.5 -67.5s-54.333 -31.667 -88 -41s-69.834 -14 -108.501 -14c-64 0 -144 16 -240 48l38 164c72 -24 129.333 -36 172 -36c24 0 44 4.16699 60 12.5
s24 21.5 24 39.5c0 70.667 -67.333 106 -202 106v138c28 0 54 1.16699 78 3.5s44.833 6.66602 62.5 12.999s31.334 14.833 41.001 25.5s14.5 24 14.5 40c0 15.333 -5.66699 26.833 -17 34.5s-25.666 11.5 -42.999 11.5c-50.667 0 -114 -11.333 -190 -34l-38 158
c88 40 172 60 252 60c30.667 0 60 -4.5 88 -13.5s52.5 -21.5 73.5 -37.5s37.667 -35.167 50 -57.5s18.5 -46.833 18.5 -73.5c0 -74.667 -35.333 -135.334 -106 -182.001zM857.999 1408h204l-340 -1408h-200zM885.999 329.002l302 398h256v-398h94v-156h-94v-172h-246v172
h-312v156zM1198 329.002v202l-144 -202h144z" />
    <glyph glyph-name="questiondown" unicode="&#xbf;" horiz-adv-x="1036" 
d="M501 382c0 -44 53.998 -65.998 161.998 -65.998c105.333 0 194 18 266 54l28 -312c-146 -60 -283.333 -90 -412 -90c-69.333 0 -134 8.66699 -194 26s-112.5 42.5 -157.5 75.5s-80.333 73 -106 120s-38.5 100.5 -38.5 160.5c0 41.333 6 78.166 18 110.499
s28 60.833 48 85.5s42.833 46 68.5 64s52.167 33.667 79.5 47c54.667 26.667 98.334 47.334 131.001 62.001s57.5 28.167 74.5 40.5s28 25.833 33 40.5s7.5 35.334 7.5 62.001v26h286l23 -78c3.33301 -10.667 6.5 -23.334 9.5 -38.001s4.16699 -29.334 3.5 -44.001
c-0.666992 -25.333 -3.66699 -47.833 -9 -67.5s-12.833 -37.5 -22.5 -53.5s-21 -30.333 -34 -43s-27.5 -24.334 -43.5 -35.001c-19.333 -12.667 -41.666 -25.167 -66.999 -37.5l-72.5 -36.5c-23 -12 -42.333 -24.167 -58 -36.5s-23.5 -24.5 -23.5 -36.5zM886.998 1232
c0 -30 -6.66699 -57.667 -20 -83s-30.833 -47.166 -52.5 -65.499s-46.5 -32.5 -74.5 -42.5s-56.333 -15 -85 -15c-31.333 0 -60.833 5.5 -88.5 16.5s-52 26 -73 45s-37.667 40.833 -50 65.5s-18.5 51 -18.5 79c0 30 6.33301 57.833 19 83.5s29.667 47.667 51 66
s45.833 32.666 73.5 42.999s56.5 15.5 86.5 15.5c32 0 62 -5.5 90 -16.5s52.5 -26 73.5 -45s37.667 -41 50 -66s18.5 -51.833 18.5 -80.5z" />
    <glyph glyph-name="Agrave" unicode="&#xc0;" horiz-adv-x="1431" 
d="M238 2201l600 -420l-126 -220l-682 274zM400 1408h622l408 -1408h-482l-54 270h-364l-58 -270h-462zM846 522l-134 616l-138 -616h272z" />
    <glyph glyph-name="Aacute" unicode="&#xc1;" horiz-adv-x="1431" 
d="M585 1781l600 420l208 -366l-682 -274zM400 1408h622l408 -1408h-482l-54 270h-364l-58 -270h-462zM846 522l-134 616l-138 -616h272z" />
    <glyph glyph-name="Acircumflex" unicode="&#xc2;" horiz-adv-x="1431" 
d="M522 2071h378l252 -510h-340l-78 218l-24 78l-22 -78l-78 -218h-340zM400 1408h622l408 -1408h-482l-54 270h-364l-58 -270h-462zM846 522l-134 616l-138 -616h272z" />
    <glyph glyph-name="Atilde" unicode="&#xc3;" horiz-adv-x="1431" 
d="M565 1675c-15.333 0 -28.6641 -3.16797 -39.9971 -9.50098s-21.333 -14.666 -30 -24.999s-16 -22 -22 -35s-11.333 -25.833 -16 -38.5l-242 98c20.667 56.667 44 107 70 151s54.167 81.167 84.5 111.5s62.166 53.5 95.499 69.5s67.333 24 102 24
c20.667 0 41.5 -3.5 62.5 -10.5s37.167 -13.167 48.5 -18.5l47 -28c1.33301 -1.33301 3.66602 -3 6.99902 -5s7.33301 -4.66699 12 -8l43 -25c12 -6 24.167 -10.667 36.5 -14s26.166 -5 41.499 -5c46.667 0 80.667 30.667 102 92l240 -98
c-41.333 -118 -89.833 -204.167 -145.5 -258.5s-118.5 -81.5 -188.5 -81.5c-26 0 -49.167 2.83301 -69.5 8.5s-39.166 12.667 -56.499 21s-33.333 17.5 -48 27.5s-29.167 19.167 -43.5 27.5s-28.833 15.333 -43.5 21s-30.334 8.5 -47.001 8.5zM400.002 1408h622l408 -1408
h-482l-54 270h-364l-58 -270h-462zM846.002 521.999l-134 616l-138 -616h272z" />
    <glyph glyph-name="Adieresis" unicode="&#xc4;" horiz-adv-x="1431" 
d="M790 1767c0 30.667 6.66406 58.6699 19.9971 84.0029s30.833 47.166 52.5 65.499s46.334 32.666 74.001 42.999s56.167 15.5 85.5 15.5c34.667 0 66 -6.16699 94 -18.5s52 -28.5 72 -48.5s35.333 -42.333 46 -67s16 -49.334 16 -74.001c0 -30 -6.33301 -57.667 -19 -83
s-29.5 -47 -50.5 -65s-45.333 -32.167 -73 -42.5s-56.167 -15.5 -85.5 -15.5c-34.667 0 -66.167 5.66699 -94.5 17s-52.666 26.5 -72.999 45.5s-36.166 40.833 -47.499 65.5s-17 50.667 -17 78zM171.997 1767c0 29.333 6.33301 56.665 19 81.998s29.667 47.333 51 66
s45.833 33.334 73.5 44.001s56.5 16 86.5 16c32 0 61.833 -5.66699 89.5 -17s52 -26.666 73 -45.999s37.5 -41.5 49.5 -66.5s18 -51.167 18 -78.5c0 -30.667 -6.5 -58.667 -19.5 -84s-30.167 -47 -51.5 -65s-45.833 -32 -73.5 -42s-56.167 -15 -85.5 -15
c-32 0 -61.833 5.33301 -89.5 16s-52 25.167 -73 43.5s-37.5 40 -49.5 65s-18 52.167 -18 81.5zM399.997 1408h622l408 -1408h-482l-54 270h-364l-58 -270h-462zM845.997 522.002l-134 616l-138 -616h272z" />
    <glyph glyph-name="Aring" unicode="&#xc5;" horiz-adv-x="1431" 
d="M708 1946c-18 0 -34.501 -3.16699 -49.501 -9.5s-27.833 -15.166 -38.5 -26.499s-19 -24.833 -25 -40.5s-9 -32.834 -9 -51.501c0 -38 11.833 -68.167 35.5 -90.5s53.834 -33.5 90.501 -33.5c38 0 67.167 11.167 87.5 33.5s30.5 52.5 30.5 90.5
s-11.167 68.833 -33.5 92.5s-51.833 35.5 -88.5 35.5zM359.999 1818c0 54 8.83398 102.667 26.501 146s42.167 80.5 73.5 111.5s68.5 54.833 111.5 71.5s89.833 25 140.5 25c55.333 0 104.666 -9.33301 147.999 -28s80 -44 110 -76s52.833 -69.5 68.5 -112.5
s23.5 -88.833 23.5 -137.5c0 -53.333 -8.66699 -101.5 -26 -144.5s-41.5 -79.667 -72.5 -110s-68 -53.833 -111 -70.5s-89.833 -25 -140.5 -25c-52 0 -99.667 8.5 -143 25.5s-80.5 41 -111.5 72s-55 68 -72 111s-25.5 90.167 -25.5 141.5zM400 1408h622l408 -1408h-482
l-54 270h-364l-58 -270h-462zM846 522l-134 616l-138 -616h272z" />
    <glyph glyph-name="AE" unicode="&#xc6;" horiz-adv-x="1914" 
d="M476 1408h1176l56 -310h-565l49 -256h510l50 -258h-498l60 -276h528l56 -308h-980l-46 270h-346l-84 -270h-448zM824 522l-84 514l-138 -514h222z" />
    <glyph glyph-name="Ccedilla" unicode="&#xc7;" horiz-adv-x="1237" 
d="M802 -287c0 32 -10.668 55.667 -32.001 71s-50 23 -86 23h-4l60 180h114l-40 -116c66.667 -7.33301 118.667 -24.333 156 -51s56 -63 56 -109c0 -41.333 -10.333 -76.666 -31 -105.999s-46 -53.333 -76 -72s-62.167 -32.334 -96.5 -41.001s-65.166 -13 -92.499 -13
c-59.333 0 -119.333 14.667 -180 44l28 76c35.333 -9.33301 66 -14 92 -14c88 0 132 42.667 132 128zM874.999 338c23.333 0 44.998 1.16895 64.998 3.50195s39.833 5.83301 59.5 10.5s39.834 10.667 60.501 18s43.667 16 69 26l56 -325
c-118.667 -68.667 -248 -103 -388 -103c-198 0 -367.667 66.667 -509 200c-148 138.667 -223 317.667 -225 537c0 106.667 18.333 205 55 295s87.334 167.5 152.001 232.5s141 115.667 229 152s183.333 54.5 286 54.5c146 0 278.667 -34 398 -102l-54 -318
c-98 37.333 -186.667 56 -266 56c-111.333 0 -195.833 -32.167 -253.5 -96.5s-86.5 -154.833 -86.5 -271.5c0 -58 7.83301 -109.833 23.5 -155.5s38.5 -84.334 68.5 -116.001s66.833 -55.834 110.5 -72.501s93.5 -25 149.5 -25z" />
    <glyph glyph-name="Egrave" unicode="&#xc8;" horiz-adv-x="1218" 
d="M156 2201l600 -420l-126 -220l-682 274zM134 1408h988v-310h-492v-256h450v-258h-450v-276h492v-308h-988v1408z" />
    <glyph glyph-name="Eacute" unicode="&#xc9;" horiz-adv-x="1218" 
d="M502 1781l600 420l208 -366l-682 -274zM134 1408h988v-310h-492v-256h450v-258h-450v-276h492v-308h-988v1408z" />
    <glyph glyph-name="Ecircumflex" unicode="&#xca;" horiz-adv-x="1218" 
d="M439 2071h378l252 -510h-340l-78 218l-24 78l-22 -78l-78 -218h-340zM134 1408h988v-310h-492v-256h450v-258h-450v-276h492v-308h-988v1408z" />
    <glyph glyph-name="Edieresis" unicode="&#xcb;" horiz-adv-x="1218" 
d="M707 1767c0 30.667 6.66406 58.6699 19.9971 84.0029s30.833 47.166 52.5 65.499s46.334 32.666 74.001 42.999s56.167 15.5 85.5 15.5c34.667 0 66 -6.16699 94 -18.5s52 -28.5 72 -48.5s35.333 -42.333 46 -67s16 -49.334 16 -74.001c0 -30 -6.33301 -57.667 -19 -83
s-29.5 -47 -50.5 -65s-45.333 -32.167 -73 -42.5s-56.167 -15.5 -85.5 -15.5c-34.667 0 -66.167 5.66699 -94.5 17s-52.666 26.5 -72.999 45.5s-36.166 40.833 -47.499 65.5s-17 50.667 -17 78zM88.9971 1767c0 29.333 6.33301 56.665 19 81.998s29.667 47.333 51 66
s45.833 33.334 73.5 44.001s56.5 16 86.5 16c32 0 61.833 -5.66699 89.5 -17s52 -26.666 73 -45.999s37.5 -41.5 49.5 -66.5s18 -51.167 18 -78.5c0 -30.667 -6.5 -58.667 -19.5 -84s-30.167 -47 -51.5 -65s-45.833 -32 -73.5 -42s-56.167 -15 -85.5 -15
c-32 0 -61.833 5.33301 -89.5 16s-52 25.167 -73 43.5s-37.5 40 -49.5 65s-18 52.167 -18 81.5zM133.997 1408h988v-310h-492v-256h450v-258h-450v-276h492v-308h-988v1408z" />
    <glyph glyph-name="Igrave" unicode="&#xcc;" horiz-adv-x="740" 
d="M-102 2201l600 -420l-126 -220l-682 274zM134 1408h472v-1408h-472v1408z" />
    <glyph glyph-name="Iacute" unicode="&#xcd;" horiz-adv-x="740" 
d="M244 1781l600 420l208 -366l-682 -274zM134 1408h472v-1408h-472v1408z" />
    <glyph glyph-name="Icircumflex" unicode="&#xce;" horiz-adv-x="740" 
d="M183 2071h378l252 -510h-340l-78 218l-24 78l-22 -78l-78 -218h-340zM134 1408h472v-1408h-472v1408z" />
    <glyph glyph-name="Idieresis" unicode="&#xcf;" horiz-adv-x="740" 
d="M451 1767c0 30.667 6.66406 58.6699 19.9971 84.0029s30.833 47.166 52.5 65.499s46.334 32.666 74.001 42.999s56.167 15.5 85.5 15.5c34.667 0 66 -6.16699 94 -18.5s52 -28.5 72 -48.5s35.333 -42.333 46 -67s16 -49.334 16 -74.001c0 -30 -6.33301 -57.667 -19 -83
s-29.5 -47 -50.5 -65s-45.333 -32.167 -73 -42.5s-56.167 -15.5 -85.5 -15.5c-34.667 0 -66.167 5.66699 -94.5 17s-52.666 26.5 -72.999 45.5s-36.166 40.833 -47.499 65.5s-17 50.667 -17 78zM-167.003 1767c0 29.333 6.33301 56.665 19 81.998s29.667 47.333 51 66
s45.833 33.334 73.5 44.001s56.5 16 86.5 16c32 0 61.833 -5.66699 89.5 -17s52 -26.666 73 -45.999s37.5 -41.5 49.5 -66.5s18 -51.167 18 -78.5c0 -30.667 -6.5 -58.667 -19.5 -84s-30.167 -47 -51.5 -65s-45.833 -32 -73.5 -42s-56.167 -15 -85.5 -15
c-32 0 -61.833 5.33301 -89.5 16s-52 25.167 -73 43.5s-37.5 40 -49.5 65s-18 52.167 -18 81.5zM133.997 1408h472v-1408h-472v1408z" />
    <glyph glyph-name="Eth" unicode="&#xd0;" horiz-adv-x="1618" 
d="M3 618l0.000976562 174h184v584h612c111.333 0 213.333 -17 306 -51s172.167 -81 238.5 -141s117.833 -131.5 154.5 -214.5s55 -173.5 55 -271.5c0 -67.333 -8.16699 -131.166 -24.5 -191.499s-40 -116.333 -71 -168s-68.833 -98.334 -113.5 -140.001
s-94.834 -77.167 -150.501 -106.5s-116.667 -52 -183 -68s-136.833 -24 -211.5 -24h-612v618h-184zM799.001 368c45.333 0 86.168 8.66699 122.501 26s67.166 41.166 92.499 71.499s44.833 65.833 58.5 106.5s20.5 84 20.5 130c0 44.667 -7.5 85.834 -22.5 123.501
s-35.5 70 -61.5 97s-57 48 -93 63s-75 22.5 -117 22.5h-160v-216h162v-174h-162v-250h160z" />
    <glyph glyph-name="Ntilde" unicode="&#xd1;" horiz-adv-x="1606" 
d="M657 1675c-15.333 0 -28.6641 -3.16797 -39.9971 -9.50098s-21.333 -14.666 -30 -24.999s-16 -22 -22 -35s-11.333 -25.833 -16 -38.5l-242 98c20.667 56.667 44 107 70 151s54.167 81.167 84.5 111.5s62.166 53.5 95.499 69.5s67.333 24 102 24
c20.667 0 41.5 -3.5 62.5 -10.5s37.167 -13.167 48.5 -18.5l47 -28c1.33301 -1.33301 3.66602 -3 6.99902 -5s7.33301 -4.66699 12 -8l43 -25c12 -6 24.167 -10.667 36.5 -14s26.166 -5 41.499 -5c46.667 0 80.667 30.667 102 92l240 -98
c-41.333 -118 -89.833 -204.167 -145.5 -258.5s-118.5 -81.5 -188.5 -81.5c-26 0 -49.167 2.83301 -69.5 8.5s-39.166 12.667 -56.499 21s-33.333 17.5 -48 27.5s-29.167 19.167 -43.5 27.5s-28.833 15.333 -43.5 21s-30.334 8.5 -47.001 8.5zM134.002 1408h410l562 -758
v758h366v-1408h-410l-564 734v-734h-364v1408z" />
    <glyph glyph-name="Ograve" unicode="&#xd2;" 
d="M344 2201l600 -420l-126 -220l-682 274zM64 702c0 203.333 64.666 374.665 193.999 513.998c138 148.667 324.667 223 560 223c114.667 0 218.334 -18.5 311.001 -55.5s171.667 -88.167 237 -153.5s115.666 -143.166 150.999 -233.499s53 -188.5 53 -294.5
c0 -64 -7.33301 -126.667 -22 -188s-36.5 -119.166 -65.5 -173.499s-64.833 -104.333 -107.5 -150s-91.834 -85 -147.501 -118s-117.667 -58.667 -186 -77s-142.833 -27.5 -223.5 -27.5c-82.667 0 -158.5 9.33301 -227.5 28s-131.5 44.667 -187.5 78s-105.167 73 -147.5 119
s-77.666 96.167 -105.999 150.5s-49.666 111.833 -63.999 172.5s-21.5 122.667 -21.5 186zM817.999 339.999c52.667 0 97.498 11.168 134.498 33.501s67.333 51 91 86s41 74.167 52 117.5s16.5 85.666 16.5 126.999c0 54 -6.83301 103.5 -20.5 148.5s-33.334 84 -59.001 117
s-56.667 59.167 -93 78.5s-76.833 30 -121.5 32c-53.333 -1.33301 -98.666 -13.333 -135.999 -36s-67.833 -51.834 -91.5 -87.501s-41 -75.667 -52 -120s-16.5 -88.5 -16.5 -132.5c0 -52 6.83301 -100.167 20.5 -144.5s33.334 -82.666 59.001 -114.999
s56.834 -57.833 93.501 -76.5s77.667 -28 123 -28z" />
    <glyph glyph-name="Oacute" unicode="&#xd3;" 
d="M692 1781l600 420l208 -366l-682 -274zM64 702c0 203.333 64.666 374.665 193.999 513.998c138 148.667 324.667 223 560 223c114.667 0 218.334 -18.5 311.001 -55.5s171.667 -88.167 237 -153.5s115.666 -143.166 150.999 -233.499s53 -188.5 53 -294.5
c0 -64 -7.33301 -126.667 -22 -188s-36.5 -119.166 -65.5 -173.499s-64.833 -104.333 -107.5 -150s-91.834 -85 -147.501 -118s-117.667 -58.667 -186 -77s-142.833 -27.5 -223.5 -27.5c-82.667 0 -158.5 9.33301 -227.5 28s-131.5 44.667 -187.5 78s-105.167 73 -147.5 119
s-77.666 96.167 -105.999 150.5s-49.666 111.833 -63.999 172.5s-21.5 122.667 -21.5 186zM817.999 339.999c52.667 0 97.498 11.168 134.498 33.501s67.333 51 91 86s41 74.167 52 117.5s16.5 85.666 16.5 126.999c0 54 -6.83301 103.5 -20.5 148.5s-33.334 84 -59.001 117
s-56.667 59.167 -93 78.5s-76.833 30 -121.5 32c-53.333 -1.33301 -98.666 -13.333 -135.999 -36s-67.833 -51.834 -91.5 -87.501s-41 -75.667 -52 -120s-16.5 -88.5 -16.5 -132.5c0 -52 6.83301 -100.167 20.5 -144.5s33.334 -82.666 59.001 -114.999
s56.834 -57.833 93.501 -76.5s77.667 -28 123 -28z" />
    <glyph glyph-name="Ocircumflex" unicode="&#xd4;" 
d="M629 2071h378l252 -510h-340l-78 218l-24 78l-22 -78l-78 -218h-340zM64 702c0 203.333 64.666 374.665 193.999 513.998c138 148.667 324.667 223 560 223c114.667 0 218.334 -18.5 311.001 -55.5s171.667 -88.167 237 -153.5s115.666 -143.166 150.999 -233.499
s53 -188.5 53 -294.5c0 -64 -7.33301 -126.667 -22 -188s-36.5 -119.166 -65.5 -173.499s-64.833 -104.333 -107.5 -150s-91.834 -85 -147.501 -118s-117.667 -58.667 -186 -77s-142.833 -27.5 -223.5 -27.5c-82.667 0 -158.5 9.33301 -227.5 28s-131.5 44.667 -187.5 78
s-105.167 73 -147.5 119s-77.666 96.167 -105.999 150.5s-49.666 111.833 -63.999 172.5s-21.5 122.667 -21.5 186zM817.999 339.999c52.667 0 97.498 11.168 134.498 33.501s67.333 51 91 86s41 74.167 52 117.5s16.5 85.666 16.5 126.999c0 54 -6.83301 103.5 -20.5 148.5
s-33.334 84 -59.001 117s-56.667 59.167 -93 78.5s-76.833 30 -121.5 32c-53.333 -1.33301 -98.666 -13.333 -135.999 -36s-67.833 -51.834 -91.5 -87.501s-41 -75.667 -52 -120s-16.5 -88.5 -16.5 -132.5c0 -52 6.83301 -100.167 20.5 -144.5
s33.334 -82.666 59.001 -114.999s56.834 -57.833 93.501 -76.5s77.667 -28 123 -28z" />
    <glyph glyph-name="Otilde" unicode="&#xd5;" 
d="M672 1675c-15.333 0 -28.6641 -3.16797 -39.9971 -9.50098s-21.333 -14.666 -30 -24.999s-16 -22 -22 -35s-11.333 -25.833 -16 -38.5l-242 98c20.667 56.667 44 107 70 151s54.167 81.167 84.5 111.5s62.166 53.5 95.499 69.5s67.333 24 102 24
c20.667 0 41.5 -3.5 62.5 -10.5s37.167 -13.167 48.5 -18.5l47 -28c1.33301 -1.33301 3.66602 -3 6.99902 -5s7.33301 -4.66699 12 -8l43 -25c12 -6 24.167 -10.667 36.5 -14s26.166 -5 41.499 -5c46.667 0 80.667 30.667 102 92l240 -98
c-41.333 -118 -89.833 -204.167 -145.5 -258.5s-118.5 -81.5 -188.5 -81.5c-26 0 -49.167 2.83301 -69.5 8.5s-39.166 12.667 -56.499 21s-33.333 17.5 -48 27.5s-29.167 19.167 -43.5 27.5s-28.833 15.333 -43.5 21s-30.334 8.5 -47.001 8.5zM64.002 701.999
c0 203.333 64.666 374.665 193.999 513.998c138 148.667 324.667 223 560 223c114.667 0 218.334 -18.5 311.001 -55.5s171.667 -88.167 237 -153.5s115.666 -143.166 150.999 -233.499s53 -188.5 53 -294.5c0 -64 -7.33301 -126.667 -22 -188
s-36.5 -119.166 -65.5 -173.499s-64.833 -104.333 -107.5 -150s-91.834 -85 -147.501 -118s-117.667 -58.667 -186 -77s-142.833 -27.5 -223.5 -27.5c-82.667 0 -158.5 9.33301 -227.5 28s-131.5 44.667 -187.5 78s-105.167 73 -147.5 119s-77.666 96.167 -105.999 150.5
s-49.666 111.833 -63.999 172.5s-21.5 122.667 -21.5 186zM818.001 339.998c52.667 0 97.498 11.168 134.498 33.501s67.333 51 91 86s41 74.167 52 117.5s16.5 85.666 16.5 126.999c0 54 -6.83301 103.5 -20.5 148.5s-33.334 84 -59.001 117s-56.667 59.167 -93 78.5
s-76.833 30 -121.5 32c-53.333 -1.33301 -98.666 -13.333 -135.999 -36s-67.833 -51.834 -91.5 -87.501s-41 -75.667 -52 -120s-16.5 -88.5 -16.5 -132.5c0 -52 6.83301 -100.167 20.5 -144.5s33.334 -82.666 59.001 -114.999s56.834 -57.833 93.501 -76.5
s77.667 -28 123 -28z" />
    <glyph glyph-name="Odieresis" unicode="&#xd6;" 
d="M897 1767c0 30.667 6.66406 58.6699 19.9971 84.0029s30.833 47.166 52.5 65.499s46.334 32.666 74.001 42.999s56.167 15.5 85.5 15.5c34.667 0 66 -6.16699 94 -18.5s52 -28.5 72 -48.5s35.333 -42.333 46 -67s16 -49.334 16 -74.001c0 -30 -6.33301 -57.667 -19 -83
s-29.5 -47 -50.5 -65s-45.333 -32.167 -73 -42.5s-56.167 -15.5 -85.5 -15.5c-34.667 0 -66.167 5.66699 -94.5 17s-52.666 26.5 -72.999 45.5s-36.166 40.833 -47.499 65.5s-17 50.667 -17 78zM278.997 1767c0 29.333 6.33301 56.665 19 81.998s29.667 47.333 51 66
s45.833 33.334 73.5 44.001s56.5 16 86.5 16c32 0 61.833 -5.66699 89.5 -17s52 -26.666 73 -45.999s37.5 -41.5 49.5 -66.5s18 -51.167 18 -78.5c0 -30.667 -6.5 -58.667 -19.5 -84s-30.167 -47 -51.5 -65s-45.833 -32 -73.5 -42s-56.167 -15 -85.5 -15
c-32 0 -61.833 5.33301 -89.5 16s-52 25.167 -73 43.5s-37.5 40 -49.5 65s-18 52.167 -18 81.5zM63.9971 702.002c0 203.333 64.666 374.665 193.999 513.998c138 148.667 324.667 223 560 223c114.667 0 218.334 -18.5 311.001 -55.5s171.667 -88.167 237 -153.5
s115.666 -143.166 150.999 -233.499s53 -188.5 53 -294.5c0 -64 -7.33301 -126.667 -22 -188s-36.5 -119.166 -65.5 -173.499s-64.833 -104.333 -107.5 -150s-91.834 -85 -147.501 -118s-117.667 -58.667 -186 -77s-142.833 -27.5 -223.5 -27.5
c-82.667 0 -158.5 9.33301 -227.5 28s-131.5 44.667 -187.5 78s-105.167 73 -147.5 119s-77.666 96.167 -105.999 150.5s-49.666 111.833 -63.999 172.5s-21.5 122.667 -21.5 186zM817.996 340.001c52.667 0 97.498 11.168 134.498 33.501s67.333 51 91 86
s41 74.167 52 117.5s16.5 85.666 16.5 126.999c0 54 -6.83301 103.5 -20.5 148.5s-33.334 84 -59.001 117s-56.667 59.167 -93 78.5s-76.833 30 -121.5 32c-53.333 -1.33301 -98.666 -13.333 -135.999 -36s-67.833 -51.834 -91.5 -87.501s-41 -75.667 -52 -120
s-16.5 -88.5 -16.5 -132.5c0 -52 6.83301 -100.167 20.5 -144.5s33.334 -82.666 59.001 -114.999s56.834 -57.833 93.501 -76.5s77.667 -28 123 -28z" />
    <glyph glyph-name="multiply" unicode="&#xd7;" horiz-adv-x="941" 
d="M386 514l-320 322l84 84l322 -320l320 320l84 -84l-318 -322l310 -312l-82 -80l-314 312l-316 -312l-82 80z" />
    <glyph glyph-name="Oslash" unicode="&#xd8;" horiz-adv-x="1636" 
d="M819 1439c21.333 0 42.499 -0.668945 63.499 -2.00195s41.5 -3.33301 61.5 -6l63 246h140l-71 -275c74 -23.333 141.333 -56.5 202 -99.5s112.834 -94.5 156.501 -154.5s77.334 -127.5 101.001 -202.5s35.5 -156.167 35.5 -243.5c0 -64.667 -7.33301 -127.667 -22 -189
s-36.5 -119.166 -65.5 -173.499s-64.833 -104.166 -107.5 -149.499s-91.834 -84.5 -147.501 -117.5s-117.667 -58.667 -186 -77s-142.833 -27.5 -223.5 -27.5c-38.667 0 -75.334 2 -110.001 6l-81 -314h-136l87 340c-77.333 22 -147.5 54.5 -210.5 97.5
s-117 94.833 -162 155.5s-79.833 128.834 -104.5 204.501s-37 157.167 -37 244.5c0 203.333 64.667 374.666 194 513.999c138.667 148.667 325.334 223 560.001 223zM852.999 1076c-0.666992 0 -3.83301 0.333008 -9.5 1l-24.5 3
c-49.333 -0.666992 -92.5 -11.5 -129.5 -32.5s-67.833 -48.833 -92.5 -83.5s-43.167 -74.5 -55.5 -119.5s-18.5 -91.833 -18.5 -140.5c0 -74.667 13.333 -140 40 -196s64 -99 112 -129zM819 339.998c52.667 0 97.5 11.167 134.5 33.5s67.333 51 91 86s41 74 52 117
s16.5 85.5 16.5 127.5c0 72.667 -11.833 136.167 -35.5 190.5s-56.5 97.5 -98.5 129.5l-176 -684h16z" />
    <glyph glyph-name="Ugrave" unicode="&#xd9;" 
d="M343 2201l600 -420l-126 -220l-682 274zM817 338c76.667 0 134.834 20.832 174.501 62.499s59.5 102.834 59.5 183.501v824h462v-824c0 -72 -9.5 -137.167 -28.5 -195.5s-45 -110.333 -78 -156s-71.833 -85.167 -116.5 -118.5s-92.834 -60.833 -144.501 -82.5
s-105.5 -37.667 -161.5 -48s-111.667 -15.5 -167 -15.5c-190 0 -351 52 -483 156c-142 110.667 -213 264 -213 460v824h462v-824c0 -164 78 -246 234 -246z" />
    <glyph glyph-name="Uacute" unicode="&#xda;" 
d="M691 1781l600 420l208 -366l-682 -274zM817 338c76.667 0 134.834 20.832 174.501 62.499s59.5 102.834 59.5 183.501v824h462v-824c0 -72 -9.5 -137.167 -28.5 -195.5s-45 -110.333 -78 -156s-71.833 -85.167 -116.5 -118.5s-92.834 -60.833 -144.501 -82.5
s-105.5 -37.667 -161.5 -48s-111.667 -15.5 -167 -15.5c-190 0 -351 52 -483 156c-142 110.667 -213 264 -213 460v824h462v-824c0 -164 78 -246 234 -246z" />
    <glyph glyph-name="Ucircumflex" unicode="&#xdb;" 
d="M628 2071h378l252 -510h-340l-78 218l-24 78l-22 -78l-78 -218h-340zM817 338c76.667 0 134.834 20.832 174.501 62.499s59.5 102.834 59.5 183.501v824h462v-824c0 -72 -9.5 -137.167 -28.5 -195.5s-45 -110.333 -78 -156s-71.833 -85.167 -116.5 -118.5
s-92.834 -60.833 -144.501 -82.5s-105.5 -37.667 -161.5 -48s-111.667 -15.5 -167 -15.5c-190 0 -351 52 -483 156c-142 110.667 -213 264 -213 460v824h462v-824c0 -164 78 -246 234 -246z" />
    <glyph glyph-name="Udieresis" unicode="&#xdc;" 
d="M896 1767c0 30.667 6.66406 58.6699 19.9971 84.0029s30.833 47.166 52.5 65.499s46.334 32.666 74.001 42.999s56.167 15.5 85.5 15.5c34.667 0 66 -6.16699 94 -18.5s52 -28.5 72 -48.5s35.333 -42.333 46 -67s16 -49.334 16 -74.001c0 -30 -6.33301 -57.667 -19 -83
s-29.5 -47 -50.5 -65s-45.333 -32.167 -73 -42.5s-56.167 -15.5 -85.5 -15.5c-34.667 0 -66.167 5.66699 -94.5 17s-52.666 26.5 -72.999 45.5s-36.166 40.833 -47.499 65.5s-17 50.667 -17 78zM277.997 1767c0 29.333 6.33301 56.665 19 81.998s29.667 47.333 51 66
s45.833 33.334 73.5 44.001s56.5 16 86.5 16c32 0 61.833 -5.66699 89.5 -17s52 -26.666 73 -45.999s37.5 -41.5 49.5 -66.5s18 -51.167 18 -78.5c0 -30.667 -6.5 -58.667 -19.5 -84s-30.167 -47 -51.5 -65s-45.833 -32 -73.5 -42s-56.167 -15 -85.5 -15
c-32 0 -61.833 5.33301 -89.5 16s-52 25.167 -73 43.5s-37.5 40 -49.5 65s-18 52.167 -18 81.5zM816.997 338.002c76.667 0 134.834 20.832 174.501 62.499s59.5 102.834 59.5 183.501v824h462v-824c0 -72 -9.5 -137.167 -28.5 -195.5s-45 -110.333 -78 -156
s-71.833 -85.167 -116.5 -118.5s-92.834 -60.833 -144.501 -82.5s-105.5 -37.667 -161.5 -48s-111.667 -15.5 -167 -15.5c-190 0 -351 52 -483 156c-142 110.667 -213 264 -213 460v824h462v-824c0 -164 78 -246 234 -246z" />
    <glyph glyph-name="Yacute" unicode="&#xdd;" horiz-adv-x="1253" 
d="M504 1781l600 420l208 -366l-682 -274zM400 392l-406 1016h428l198 -632l196 632h450l-426 -1016v-392h-440v392z" />
    <glyph glyph-name="Thorn" unicode="&#xde;" horiz-adv-x="1334" 
d="M134 1408l439.998 0.000976562v-142h68c105.333 0 199 -10.333 281 -31s151 -51 207 -91s98.667 -88.833 128 -146.5s44 -123.5 44 -197.5c0 -70.667 -16.333 -134.334 -49 -191.001s-77.667 -105 -135 -145s-125.166 -70.667 -203.499 -92s-163.166 -32 -254.499 -32
h-86v-340h-440v1408zM661.998 624.001c69.333 0 124.668 14.667 166.001 44s62 73.333 62 132c0 27.333 -6 51.666 -18 72.999s-28.167 39.333 -48.5 54s-44.333 25.834 -72 33.501s-57.5 11.5 -89.5 11.5h-88v-344c10.667 -1.33301 23.167 -2.33301 37.5 -3
s31.166 -1 50.499 -1z" />
    <glyph glyph-name="germandbls" unicode="&#xdf;" horiz-adv-x="1448" 
d="M694 1168c-44.667 0 -80.4971 -12.502 -107.497 -37.502s-40.5 -58.5 -40.5 -100.5v-1030l-440 -32v1136c0 48 15 92.5 45 133.5s71.333 76.5 124 106.5s115.167 53.5 187.5 70.5s150.833 25.5 235.5 25.5c68.667 0 134.167 -7.83301 196.5 -23.5
s117.166 -38.167 164.499 -67.5s85 -65.5 113 -108.5s42 -91.833 42 -146.5c0 -64.667 -14 -120.5 -42 -167.5s-65.333 -84.5 -112 -112.5c48.667 -14 94.167 -34.333 136.5 -61s79.333 -58 111 -94s56.667 -76 75 -120s27.5 -90.333 27.5 -139c0 -86.667 -17 -161 -51 -223
s-79.333 -113 -136 -153s-121.667 -69.333 -195 -88s-149.333 -28 -228 -28c-7.33301 0 -17.166 0.166992 -29.499 0.5s-25.333 0.5 -39 0.5s-26.667 0.166992 -39 0.5s-21.833 0.5 -28.5 0.5v330c17.333 -1.33301 34.166 -2.33301 50.499 -3s32.833 -1 49.5 -1
c32.667 0 61.834 5.83301 87.501 17.5s47.167 27.834 64.5 48.501s30.666 45.167 39.999 73.5s14 59.166 14 92.499c0 28 -5.66699 55 -17 81s-28 49.833 -50 71.5s-49.667 40.834 -83 57.501s-72 30 -116 40v190c24 4 46.333 10.333 67 19s38.667 19 54 31
s27.333 25.833 36 41.5s13 32.5 13 50.5c0 20 -4.83301 37.5 -14.5 52.5s-22.834 27.333 -39.501 37s-35.834 16.834 -57.501 21.501s-44.5 7 -68.5 7z" />
    <glyph glyph-name="agrave" unicode="&#xe0;" horiz-adv-x="1425" 
d="M500 1818l600 -420l-126 -220l-682 274zM890 190c-32 -66.667 -75.3301 -117.667 -129.997 -153s-123.334 -53 -206.001 -53c-66.667 0 -130.334 13.5 -191.001 40.5s-114 64.333 -160 112s-82.667 104.167 -110 169.5s-41 136.333 -41 213c0 76 13.833 146 41.5 210
s64.667 119.167 111 165.5s99.666 82.333 159.999 108s123.5 38.5 189.5 38.5c34 0 67.5 -4.5 100.5 -13.5s64.333 -23.333 94 -43s56.667 -44.5 81 -74.5s44.5 -66 60.5 -108v239h430v-1041h-430v190zM890.003 520c-1.33301 26.667 -7.66797 52 -19.001 76
s-26.166 44.833 -44.499 62.5s-39.5 31.667 -63.5 42s-49 15.5 -75 15.5c-29.333 0 -56.5 -5.5 -81.5 -16.5s-46.667 -25.667 -65 -44s-32.833 -39.833 -43.5 -64.5s-16 -51 -16 -79c0 -29.333 5.66699 -56.5 17 -81.5s26.5 -46.5 45.5 -64.5s40.833 -32.167 65.5 -42.5
s50.667 -15.5 78 -15.5c28 0 54 5.33301 78 16s45 25 63 43s32.333 38.833 43 62.5s16.667 48.5 18 74.5v16z" />
    <glyph glyph-name="aacute" unicode="&#xe1;" horiz-adv-x="1425" 
d="M596 1398l600 420l208 -366l-682 -274zM890 190c-32 -66.667 -75.3301 -117.667 -129.997 -153s-123.334 -53 -206.001 -53c-66.667 0 -130.334 13.5 -191.001 40.5s-114 64.333 -160 112s-82.667 104.167 -110 169.5s-41 136.333 -41 213c0 76 13.833 146 41.5 210
s64.667 119.167 111 165.5s99.666 82.333 159.999 108s123.5 38.5 189.5 38.5c34 0 67.5 -4.5 100.5 -13.5s64.333 -23.333 94 -43s56.667 -44.5 81 -74.5s44.5 -66 60.5 -108v239h430v-1041h-430v190zM890.003 520c-1.33301 26.667 -7.66797 52 -19.001 76
s-26.166 44.833 -44.499 62.5s-39.5 31.667 -63.5 42s-49 15.5 -75 15.5c-29.333 0 -56.5 -5.5 -81.5 -16.5s-46.667 -25.667 -65 -44s-32.833 -39.833 -43.5 -64.5s-16 -51 -16 -79c0 -29.333 5.66699 -56.5 17 -81.5s26.5 -46.5 45.5 -64.5s40.833 -32.167 65.5 -42.5
s50.667 -15.5 78 -15.5c28 0 54 5.33301 78 16s45 25 63 43s32.333 38.833 43 62.5s16.667 48.5 18 74.5v16z" />
    <glyph glyph-name="acircumflex" unicode="&#xe2;" horiz-adv-x="1425" 
d="M533 1688h378l252 -510h-340l-78 218l-24 78l-22 -78l-78 -218h-340zM890 190c-32 -66.667 -75.3301 -117.667 -129.997 -153s-123.334 -53 -206.001 -53c-66.667 0 -130.334 13.5 -191.001 40.5s-114 64.333 -160 112s-82.667 104.167 -110 169.5s-41 136.333 -41 213
c0 76 13.833 146 41.5 210s64.667 119.167 111 165.5s99.666 82.333 159.999 108s123.5 38.5 189.5 38.5c34 0 67.5 -4.5 100.5 -13.5s64.333 -23.333 94 -43s56.667 -44.5 81 -74.5s44.5 -66 60.5 -108v239h430v-1041h-430v190zM890.003 520
c-1.33301 26.667 -7.66797 52 -19.001 76s-26.166 44.833 -44.499 62.5s-39.5 31.667 -63.5 42s-49 15.5 -75 15.5c-29.333 0 -56.5 -5.5 -81.5 -16.5s-46.667 -25.667 -65 -44s-32.833 -39.833 -43.5 -64.5s-16 -51 -16 -79c0 -29.333 5.66699 -56.5 17 -81.5
s26.5 -46.5 45.5 -64.5s40.833 -32.167 65.5 -42.5s50.667 -15.5 78 -15.5c28 0 54 5.33301 78 16s45 25 63 43s32.333 38.833 43 62.5s16.667 48.5 18 74.5v16z" />
    <glyph glyph-name="atilde" unicode="&#xe3;" horiz-adv-x="1425" 
d="M576 1292c-15.333 0 -28.6641 -3.16797 -39.9971 -9.50098s-21.333 -14.666 -30 -24.999s-16 -22 -22 -35s-11.333 -25.833 -16 -38.5l-242 98c20.667 56.667 44 107 70 151s54.167 81.167 84.5 111.5s62.166 53.5 95.499 69.5s67.333 24 102 24
c20.667 0 41.5 -3.5 62.5 -10.5s37.167 -13.167 48.5 -18.5l47 -28c1.33301 -1.33301 3.66602 -3 6.99902 -5s7.33301 -4.66699 12 -8l43 -25c12 -6 24.167 -10.667 36.5 -14s26.166 -5 41.499 -5c46.667 0 80.667 30.667 102 92l240 -98
c-41.333 -118 -89.833 -204.167 -145.5 -258.5s-118.5 -81.5 -188.5 -81.5c-26 0 -49.167 2.83301 -69.5 8.5s-39.166 12.667 -56.499 21s-33.333 17.5 -48 27.5s-29.167 19.167 -43.5 27.5s-28.833 15.333 -43.5 21s-30.334 8.5 -47.001 8.5zM890.002 189.999
c-32 -66.667 -75.3301 -117.667 -129.997 -153s-123.334 -53 -206.001 -53c-66.667 0 -130.334 13.5 -191.001 40.5s-114 64.333 -160 112s-82.667 104.167 -110 169.5s-41 136.333 -41 213c0 76 13.833 146 41.5 210s64.667 119.167 111 165.5s99.666 82.333 159.999 108
s123.5 38.5 189.5 38.5c34 0 67.5 -4.5 100.5 -13.5s64.333 -23.333 94 -43s56.667 -44.5 81 -74.5s44.5 -66 60.5 -108v239h430v-1041h-430v190zM890.005 519.999c-1.33301 26.667 -7.66797 52 -19.001 76s-26.166 44.833 -44.499 62.5s-39.5 31.667 -63.5 42
s-49 15.5 -75 15.5c-29.333 0 -56.5 -5.5 -81.5 -16.5s-46.667 -25.667 -65 -44s-32.833 -39.833 -43.5 -64.5s-16 -51 -16 -79c0 -29.333 5.66699 -56.5 17 -81.5s26.5 -46.5 45.5 -64.5s40.833 -32.167 65.5 -42.5s50.667 -15.5 78 -15.5c28 0 54 5.33301 78 16
s45 25 63 43s32.333 38.833 43 62.5s16.667 48.5 18 74.5v16z" />
    <glyph glyph-name="adieresis" unicode="&#xe4;" horiz-adv-x="1425" 
d="M801 1384c0 30.667 6.66406 58.6699 19.9971 84.0029s30.833 47.166 52.5 65.499s46.334 32.666 74.001 42.999s56.167 15.5 85.5 15.5c34.667 0 66 -6.16699 94 -18.5s52 -28.5 72 -48.5s35.333 -42.333 46 -67s16 -49.334 16 -74.001c0 -30 -6.33301 -57.667 -19 -83
s-29.5 -47 -50.5 -65s-45.333 -32.167 -73 -42.5s-56.167 -15.5 -85.5 -15.5c-34.667 0 -66.167 5.66699 -94.5 17s-52.666 26.5 -72.999 45.5s-36.166 40.833 -47.499 65.5s-17 50.667 -17 78zM182.997 1384c0 29.333 6.33301 56.665 19 81.998s29.667 47.333 51 66
s45.833 33.334 73.5 44.001s56.5 16 86.5 16c32 0 61.833 -5.66699 89.5 -17s52 -26.666 73 -45.999s37.5 -41.5 49.5 -66.5s18 -51.167 18 -78.5c0 -30.667 -6.5 -58.667 -19.5 -84s-30.167 -47 -51.5 -65s-45.833 -32 -73.5 -42s-56.167 -15 -85.5 -15
c-32 0 -61.833 5.33301 -89.5 16s-52 25.167 -73 43.5s-37.5 40 -49.5 65s-18 52.167 -18 81.5zM889.997 190.002c-32 -66.667 -75.3301 -117.667 -129.997 -153s-123.334 -53 -206.001 -53c-66.667 0 -130.334 13.5 -191.001 40.5s-114 64.333 -160 112
s-82.667 104.167 -110 169.5s-41 136.333 -41 213c0 76 13.833 146 41.5 210s64.667 119.167 111 165.5s99.666 82.333 159.999 108s123.5 38.5 189.5 38.5c34 0 67.5 -4.5 100.5 -13.5s64.333 -23.333 94 -43s56.667 -44.5 81 -74.5s44.5 -66 60.5 -108v239h430v-1041h-430
v190zM890 520.002c-1.33301 26.667 -7.66797 52 -19.001 76s-26.166 44.833 -44.499 62.5s-39.5 31.667 -63.5 42s-49 15.5 -75 15.5c-29.333 0 -56.5 -5.5 -81.5 -16.5s-46.667 -25.667 -65 -44s-32.833 -39.833 -43.5 -64.5s-16 -51 -16 -79
c0 -29.333 5.66699 -56.5 17 -81.5s26.5 -46.5 45.5 -64.5s40.833 -32.167 65.5 -42.5s50.667 -15.5 78 -15.5c28 0 54 5.33301 78 16s45 25 63 43s32.333 38.833 43 62.5s16.667 48.5 18 74.5v16z" />
    <glyph glyph-name="aring" unicode="&#xe5;" horiz-adv-x="1425" 
d="M719 1656c-18 0 -34.501 -3.16699 -49.501 -9.5s-27.833 -15.166 -38.5 -26.499s-19 -24.833 -25 -40.5s-9 -32.834 -9 -51.501c0 -38 11.833 -68.167 35.5 -90.5s53.834 -33.5 90.501 -33.5c38 0 67.167 11.167 87.5 33.5s30.5 52.5 30.5 90.5
s-11.167 68.833 -33.5 92.5s-51.833 35.5 -88.5 35.5zM370.999 1528c0 54 8.83398 102.667 26.501 146s42.167 80.5 73.5 111.5s68.5 54.833 111.5 71.5s89.833 25 140.5 25c55.333 0 104.666 -9.33301 147.999 -28s80 -44 110 -76s52.833 -69.5 68.5 -112.5
s23.5 -88.833 23.5 -137.5c0 -53.333 -8.66699 -101.5 -26 -144.5s-41.5 -79.667 -72.5 -110s-68 -53.833 -111 -70.5s-89.833 -25 -140.5 -25c-52 0 -99.667 8.5 -143 25.5s-80.5 41 -111.5 72s-55 68 -72 111s-25.5 90.167 -25.5 141.5zM890 190
c-32 -66.667 -75.3301 -117.667 -129.997 -153s-123.334 -53 -206.001 -53c-66.667 0 -130.334 13.5 -191.001 40.5s-114 64.333 -160 112s-82.667 104.167 -110 169.5s-41 136.333 -41 213c0 76 13.833 146 41.5 210s64.667 119.167 111 165.5s99.666 82.333 159.999 108
s123.5 38.5 189.5 38.5c34 0 67.5 -4.5 100.5 -13.5s64.333 -23.333 94 -43s56.667 -44.5 81 -74.5s44.5 -66 60.5 -108v239h430v-1041h-430v190zM890.003 520c-1.33301 26.667 -7.66797 52 -19.001 76s-26.166 44.833 -44.499 62.5s-39.5 31.667 -63.5 42
s-49 15.5 -75 15.5c-29.333 0 -56.5 -5.5 -81.5 -16.5s-46.667 -25.667 -65 -44s-32.833 -39.833 -43.5 -64.5s-16 -51 -16 -79c0 -29.333 5.66699 -56.5 17 -81.5s26.5 -46.5 45.5 -64.5s40.833 -32.167 65.5 -42.5s50.667 -15.5 78 -15.5c28 0 54 5.33301 78 16
s45 25 63 43s32.333 38.833 43 62.5s16.667 48.5 18 74.5v16z" />
    <glyph glyph-name="ae" unicode="&#xe6;" horiz-adv-x="2162" 
d="M2075 52c-143.333 -56 -302.67 -84.0029 -478.003 -84.0029c-25.333 0 -51.166 2.66699 -77.499 8s-52.833 13 -79.5 23s-52.667 22.667 -78 38s-49.333 33 -72 53v-90l-400 -32v222c-16 -33.333 -34.833 -63.666 -56.5 -90.999s-46.5 -50.666 -74.5 -69.999
s-59.167 -34.333 -93.5 -45s-72.166 -16 -113.499 -16c-66.667 0 -130.167 14.333 -190.5 43s-113.5 67.834 -159.5 117.501s-82.5 108 -109.5 175s-40.5 138.833 -40.5 215.5c0 76 13.833 146.833 41.5 212.5s64.667 122.5 111 170.5s99.666 85.667 159.999 113
s123.5 41 189.5 41c34 0 67.5 -5.33301 100.5 -16s64.333 -26.667 94 -48s56.667 -47.833 81 -79.5s44.5 -68.5 60.5 -110.5v254l400 -30v-90c86.667 80 194.334 120 323.001 120c76.667 0 146 -12.667 208 -38s115 -60.833 159 -106.5s77.833 -100.167 101.5 -163.5
s35.5 -133.333 35.5 -210c0 -9.33301 -0.333008 -18.333 -1 -27s-1.66699 -17 -3 -25l-674 -80c36.667 -96 121.334 -144 254.001 -144c105.333 0 216 24 332 72zM889.996 519.997c-1.33301 26.667 -7.66797 52 -19.001 76s-26.166 44.833 -44.499 62.5
s-39.5 31.667 -63.5 42s-49 15.5 -75 15.5c-29.333 0 -56.5 -5.5 -81.5 -16.5s-46.667 -25.667 -65 -44s-32.833 -39.833 -43.5 -64.5s-16 -51 -16 -79c0 -29.333 5.66699 -56.5 17 -81.5s26.5 -46.5 45.5 -64.5s40.833 -32.167 65.5 -42.5s50.667 -15.5 78 -15.5
c28 0 54 5.33301 78 16s45 25 63 43s32.333 38.833 43 62.5s16.667 48.5 18 74.5v16zM1798.99 663.997c-13.333 40.667 -35.999 72.167 -67.999 94.5s-71.333 33.5 -118 33.5c-58.667 0 -104.834 -18 -138.501 -54s-51.5 -84 -53.5 -144z" />
    <glyph glyph-name="ccedilla" unicode="&#xe7;" horiz-adv-x="966" 
d="M613 -287c0 32 -10.668 55.667 -32.001 71s-50 23 -86 23h-4l60 180h114l-40 -116c66.667 -7.33301 118.667 -24.333 156 -51s56 -63 56 -109c0 -41.333 -10.333 -76.666 -31 -105.999s-46 -53.333 -76 -72s-62.167 -32.334 -96.5 -41.001s-65.166 -13 -92.499 -13
c-59.333 0 -119.333 14.667 -180 44l28 76c35.333 -9.33301 66 -14 92 -14c88 0 132 42.667 132 128zM881.999 686c-72 22.667 -138.666 34.0029 -199.999 34.0029c-31.333 0 -59.5 -5 -84.5 -15s-46.333 -24 -64 -42s-31.334 -39.833 -41.001 -65.5
s-14.5 -54.167 -14.5 -85.5s4.83301 -59.833 14.5 -85.5s23.5 -47.834 41.5 -66.501s39.833 -33 65.5 -43s54.5 -15 86.5 -15c60.667 0 124.667 11.333 192 34l40 -286c-51.333 -26.667 -101.5 -44.334 -150.5 -53.001s-102.167 -13 -159.5 -13
c-80.667 0 -155 12.667 -223 38s-126.667 61 -176 107s-87.833 101.5 -115.5 166.5s-41.5 137.167 -41.5 216.5s15 151.5 45 216.5s70.5 120.667 121.5 167s110.167 82.166 177.5 107.499s138 38 212 38c32.667 0 62.167 -1.16699 88.5 -3.5s51.5 -6.66602 75.5 -12.999
s48 -14.833 72 -25.5s50 -24.334 78 -41.001z" />
    <glyph glyph-name="egrave" unicode="&#xe8;" horiz-adv-x="1138" 
d="M363 1818l600 -420l-126 -220l-682 274zM698 271c93.333 0 193.999 24 301.999 72l50 -275c-124 -56 -263.333 -84 -418 -84c-86 0 -164.5 13.167 -235.5 39.5s-132 63 -183 110s-90.667 102.833 -119 167.5s-42.5 135 -42.5 211c0 80 14.833 152.5 44.5 217.5
s70.167 120.667 121.5 167s111.333 82 180 107s142 37.5 220 37.5c78.667 0 147.667 -13.167 207 -39.5s108.833 -62.333 148.5 -108s69.334 -99 89.001 -160s29.5 -126.167 29.5 -195.5c0 -9.33301 -0.333008 -18.333 -1 -27s-1.66699 -17 -3 -25l-614 -80
c16 -48 42.667 -82.5 80 -103.5s85.333 -31.5 144 -31.5zM773.999 664c-23.333 85.333 -75.333 128 -156 128c-25.333 0 -48 -5 -68 -15s-36.833 -23.833 -50.5 -41.5s-24.167 -38.667 -31.5 -63s-11.333 -50.5 -12 -78.5z" />
    <glyph glyph-name="eacute" unicode="&#xe9;" horiz-adv-x="1138" 
d="M246 1398l600 420l208 -366l-682 -274zM698 271c93.333 0 193.999 24 301.999 72l50 -275c-124 -56 -263.333 -84 -418 -84c-86 0 -164.5 13.167 -235.5 39.5s-132 63 -183 110s-90.667 102.833 -119 167.5s-42.5 135 -42.5 211c0 80 14.833 152.5 44.5 217.5
s70.167 120.667 121.5 167s111.333 82 180 107s142 37.5 220 37.5c78.667 0 147.667 -13.167 207 -39.5s108.833 -62.333 148.5 -108s69.334 -99 89.001 -160s29.5 -126.167 29.5 -195.5c0 -9.33301 -0.333008 -18.333 -1 -27s-1.66699 -17 -3 -25l-614 -80
c16 -48 42.667 -82.5 80 -103.5s85.333 -31.5 144 -31.5zM773.999 664c-23.333 85.333 -75.333 128 -156 128c-25.333 0 -48 -5 -68 -15s-36.833 -23.833 -50.5 -41.5s-24.167 -38.667 -31.5 -63s-11.333 -50.5 -12 -78.5z" />
    <glyph glyph-name="ecircumflex" unicode="&#xea;" horiz-adv-x="1138" 
d="M429 1688h378l252 -510h-340l-78 218l-24 78l-22 -78l-78 -218h-340zM698 271c93.333 0 193.999 24 301.999 72l50 -275c-124 -56 -263.333 -84 -418 -84c-86 0 -164.5 13.167 -235.5 39.5s-132 63 -183 110s-90.667 102.833 -119 167.5s-42.5 135 -42.5 211
c0 80 14.833 152.5 44.5 217.5s70.167 120.667 121.5 167s111.333 82 180 107s142 37.5 220 37.5c78.667 0 147.667 -13.167 207 -39.5s108.833 -62.333 148.5 -108s69.334 -99 89.001 -160s29.5 -126.167 29.5 -195.5c0 -9.33301 -0.333008 -18.333 -1 -27
s-1.66699 -17 -3 -25l-614 -80c16 -48 42.667 -82.5 80 -103.5s85.333 -31.5 144 -31.5zM773.999 664c-23.333 85.333 -75.333 128 -156 128c-25.333 0 -48 -5 -68 -15s-36.833 -23.833 -50.5 -41.5s-24.167 -38.667 -31.5 -63s-11.333 -50.5 -12 -78.5z" />
    <glyph glyph-name="edieresis" unicode="&#xeb;" horiz-adv-x="1138" 
d="M699 1384c0 30.667 6.66406 58.6699 19.9971 84.0029s30.833 47.166 52.5 65.499s46.334 32.666 74.001 42.999s56.167 15.5 85.5 15.5c34.667 0 66 -6.16699 94 -18.5s52 -28.5 72 -48.5s35.333 -42.333 46 -67s16 -49.334 16 -74.001c0 -30 -6.33301 -57.667 -19 -83
s-29.5 -47 -50.5 -65s-45.333 -32.167 -73 -42.5s-56.167 -15.5 -85.5 -15.5c-34.667 0 -66.167 5.66699 -94.5 17s-52.666 26.5 -72.999 45.5s-36.166 40.833 -47.499 65.5s-17 50.667 -17 78zM80.9971 1384c0 29.333 6.33301 56.665 19 81.998s29.667 47.333 51 66
s45.833 33.334 73.5 44.001s56.5 16 86.5 16c32 0 61.833 -5.66699 89.5 -17s52 -26.666 73 -45.999s37.5 -41.5 49.5 -66.5s18 -51.167 18 -78.5c0 -30.667 -6.5 -58.667 -19.5 -84s-30.167 -47 -51.5 -65s-45.833 -32 -73.5 -42s-56.167 -15 -85.5 -15
c-32 0 -61.833 5.33301 -89.5 16s-52 25.167 -73 43.5s-37.5 40 -49.5 65s-18 52.167 -18 81.5zM697.997 271.002c93.333 0 193.999 24 301.999 72l50 -275c-124 -56 -263.333 -84 -418 -84c-86 0 -164.5 13.167 -235.5 39.5s-132 63 -183 110s-90.667 102.833 -119 167.5
s-42.5 135 -42.5 211c0 80 14.833 152.5 44.5 217.5s70.167 120.667 121.5 167s111.333 82 180 107s142 37.5 220 37.5c78.667 0 147.667 -13.167 207 -39.5s108.833 -62.333 148.5 -108s69.334 -99 89.001 -160s29.5 -126.167 29.5 -195.5
c0 -9.33301 -0.333008 -18.333 -1 -27s-1.66699 -17 -3 -25l-614 -80c16 -48 42.667 -82.5 80 -103.5s85.333 -31.5 144 -31.5zM773.996 664.002c-23.333 85.333 -75.333 128 -156 128c-25.333 0 -48 -5 -68 -15s-36.833 -23.833 -50.5 -41.5s-24.167 -38.667 -31.5 -63
s-11.333 -50.5 -12 -78.5z" />
    <glyph glyph-name="igrave" unicode="&#xec;" horiz-adv-x="748" 
d="M126 1818l600 -420l-126 -220l-682 274zM731 38c-80.667 -46.667 -170 -70.001 -268 -70.001c-58 0 -109.667 9.66699 -155 29s-83.5 46.833 -114.5 82.5s-54.5 78.834 -70.5 129.501s-24 107 -24 169v648h434v-628c0 -32.667 8.66699 -57.167 26 -73.5
s39.333 -24.5 66 -24.5s54.667 8 84 24z" />
    <glyph glyph-name="iacute" unicode="&#xed;" horiz-adv-x="748" 
d="M100 1398l600 420l208 -366l-682 -274zM731 38c-80.667 -46.667 -170 -70.001 -268 -70.001c-58 0 -109.667 9.66699 -155 29s-83.5 46.833 -114.5 82.5s-54.5 78.834 -70.5 129.501s-24 107 -24 169v648h434v-628c0 -32.667 8.66699 -57.167 26 -73.5
s39.333 -24.5 66 -24.5s54.667 8 84 24z" />
    <glyph glyph-name="icircumflex" unicode="&#xee;" horiz-adv-x="748" 
d="M129 1688h378l252 -510h-340l-78 218l-24 78l-22 -78l-78 -218h-340zM731 38c-80.667 -46.667 -170 -70.001 -268 -70.001c-58 0 -109.667 9.66699 -155 29s-83.5 46.833 -114.5 82.5s-54.5 78.834 -70.5 129.501s-24 107 -24 169v648h434v-628
c0 -32.667 8.66699 -57.167 26 -73.5s39.333 -24.5 66 -24.5s54.667 8 84 24z" />
    <glyph glyph-name="idieresis" unicode="&#xef;" horiz-adv-x="748" 
d="M397 1384c0 30.667 6.66406 58.6699 19.9971 84.0029s30.833 47.166 52.5 65.499s46.334 32.666 74.001 42.999s56.167 15.5 85.5 15.5c34.667 0 66 -6.16699 94 -18.5s52 -28.5 72 -48.5s35.333 -42.333 46 -67s16 -49.334 16 -74.001c0 -30 -6.33301 -57.667 -19 -83
s-29.5 -47 -50.5 -65s-45.333 -32.167 -73 -42.5s-56.167 -15.5 -85.5 -15.5c-34.667 0 -66.167 5.66699 -94.5 17s-52.666 26.5 -72.999 45.5s-36.166 40.833 -47.499 65.5s-17 50.667 -17 78zM-221.003 1384c0 29.333 6.33301 56.665 19 81.998s29.667 47.333 51 66
s45.833 33.334 73.5 44.001s56.5 16 86.5 16c32 0 61.833 -5.66699 89.5 -17s52 -26.666 73 -45.999s37.5 -41.5 49.5 -66.5s18 -51.167 18 -78.5c0 -30.667 -6.5 -58.667 -19.5 -84s-30.167 -47 -51.5 -65s-45.833 -32 -73.5 -42s-56.167 -15 -85.5 -15
c-32 0 -61.833 5.33301 -89.5 16s-52 25.167 -73 43.5s-37.5 40 -49.5 65s-18 52.167 -18 81.5zM730.997 38.002c-80.667 -46.667 -170 -70.001 -268 -70.001c-58 0 -109.667 9.66699 -155 29s-83.5 46.833 -114.5 82.5s-54.5 78.834 -70.5 129.501s-24 107 -24 169v648h434
v-628c0 -32.667 8.66699 -57.167 26 -73.5s39.333 -24.5 66 -24.5s54.667 8 84 24z" />
    <glyph glyph-name="eth" unicode="&#xf0;" horiz-adv-x="1324" 
d="M1170 1103c61.333 -119.333 92.002 -257.001 92.002 -413.001c0 -109.333 -15.167 -208.333 -45.5 -297s-73 -164.5 -128 -227.5s-121.167 -111.667 -198.5 -146s-163.333 -51.5 -258 -51.5c-90 0 -171.833 11.667 -245.5 35s-136.667 56 -189 98
s-92.833 92.167 -121.5 150.5s-43 122.5 -43 192.5s12 132 36 186s58 99.5 102 136.5s97.167 65.167 159.5 84.5s132.166 29 209.499 29c103.333 0 192.666 -30.667 267.999 -92c-10 72.667 -25.333 129.334 -46 170.001l-147 -52l-46 115l105 37
c-28.667 14.667 -60 22 -94 22c-86 0 -199.333 -18 -340 -54l-108 304c172 73.333 338.667 110 500 110c195.333 0 352 -76.667 470 -230l145 52l46 -115zM632.002 301.999c29.333 0 54.1699 7 74.5029 21s37.166 33 50.499 57s23.833 51.833 31.5 83.5
s13.5 65.167 17.5 100.5c-54 20 -115.333 30 -184 30c-22.667 0 -43.834 -3.5 -63.501 -10.5s-36.834 -17 -51.501 -30s-26.167 -28.833 -34.5 -47.5s-12.5 -39.334 -12.5 -62.001c0 -22 4.33301 -41.833 13 -59.5s20.5 -32.667 35.5 -45s33 -21.666 54 -27.999
s44.167 -9.5 69.5 -9.5z" />
    <glyph glyph-name="ntilde" unicode="&#xf1;" horiz-adv-x="1407" 
d="M560 1292c-15.333 0 -28.6641 -3.16797 -39.9971 -9.50098s-21.333 -14.666 -30 -24.999s-16 -22 -22 -35s-11.333 -25.833 -16 -38.5l-242 98c20.667 56.667 44 107 70 151s54.167 81.167 84.5 111.5s62.166 53.5 95.499 69.5s67.333 24 102 24
c20.667 0 41.5 -3.5 62.5 -10.5s37.167 -13.167 48.5 -18.5l47 -28c1.33301 -1.33301 3.66602 -3 6.99902 -5s7.33301 -4.66699 12 -8l43 -25c12 -6 24.167 -10.667 36.5 -14s26.166 -5 41.499 -5c46.667 0 80.667 30.667 102 92l240 -98
c-41.333 -118 -89.833 -204.167 -145.5 -258.5s-118.5 -81.5 -188.5 -81.5c-26 0 -49.167 2.83301 -69.5 8.5s-39.166 12.667 -56.499 21s-33.333 17.5 -48 27.5s-29.167 19.167 -43.5 27.5s-28.833 15.333 -43.5 21s-30.334 8.5 -47.001 8.5zM102.002 1011
l411.998 -0.00195312v-209c40 80.667 91.5 140.667 154.5 180s136.833 59 221.5 59c68 0 128 -12.667 180 -38s95.833 -61.166 131.5 -107.499s62.667 -102 81 -167s27.5 -137.167 27.5 -216.5v-512h-430v554c0 26.667 -2.5 51.334 -7.5 74.001s-13 42.167 -24 58.5
s-24.833 29 -41.5 38s-37 13.5 -61 13.5c-29.333 0 -56.333 -7.16699 -81 -21.5s-46.167 -31.833 -64.5 -52.5s-33.166 -42.167 -44.499 -64.5s-18.666 -41.5 -21.999 -57.5v-542h-432v1011z" />
    <glyph glyph-name="ograve" unicode="&#xf2;" horiz-adv-x="1284" 
d="M452 1818l600 -420l-126 -220l-682 274zM452 514c0 -37.333 5.5 -70 16.5 -98s25.5 -51.333 43.5 -70s38.667 -32.667 62 -42s47 -14 71 -14s47.5 4.66699 70.5 14s43.667 23.333 62 42s33 42 44 70s16.5 60.667 16.5 98s-5.5 70 -16.5 98s-25.667 51.167 -44 69.5
s-39 32.166 -62 41.499s-46.5 14 -70.5 14s-47.667 -4.66699 -71 -14s-44 -23.166 -62 -41.499s-32.5 -41.5 -43.5 -69.5s-16.5 -60.667 -16.5 -98zM52 514c3.33301 86 21.1699 161.666 53.5029 226.999s75.166 120.333 128.499 165s115.166 78.334 185.499 101.001
s145.166 34 224.499 34c86.667 0 166 -13 238 -39s134 -62.167 186 -108.5s92.333 -101.833 121 -166.5s43 -135.667 43 -213c0 -62.667 -8.16699 -119.334 -24.5 -170.001s-38.5 -95.5 -66.5 -134.5s-61 -72.833 -99 -101.5s-79 -52.167 -123 -70.5
s-89.5 -31.833 -136.5 -40.5s-93.833 -13 -140.5 -13c-88 0 -168.167 12.833 -240.5 38.5s-134.5 61.834 -186.5 108.501s-92.167 102.5 -120.5 167.5s-42.5 136.833 -42.5 215.5z" />
    <glyph glyph-name="oacute" unicode="&#xf3;" horiz-adv-x="1284" 
d="M281 1398l600 420l208 -366l-682 -274zM452 514c0 -37.333 5.5 -70 16.5 -98s25.5 -51.333 43.5 -70s38.667 -32.667 62 -42s47 -14 71 -14s47.5 4.66699 70.5 14s43.667 23.333 62 42s33 42 44 70s16.5 60.667 16.5 98s-5.5 70 -16.5 98s-25.667 51.167 -44 69.5
s-39 32.166 -62 41.499s-46.5 14 -70.5 14s-47.667 -4.66699 -71 -14s-44 -23.166 -62 -41.499s-32.5 -41.5 -43.5 -69.5s-16.5 -60.667 -16.5 -98zM52 514c3.33301 86 21.1699 161.666 53.5029 226.999s75.166 120.333 128.499 165s115.166 78.334 185.499 101.001
s145.166 34 224.499 34c86.667 0 166 -13 238 -39s134 -62.167 186 -108.5s92.333 -101.833 121 -166.5s43 -135.667 43 -213c0 -62.667 -8.16699 -119.334 -24.5 -170.001s-38.5 -95.5 -66.5 -134.5s-61 -72.833 -99 -101.5s-79 -52.167 -123 -70.5
s-89.5 -31.833 -136.5 -40.5s-93.833 -13 -140.5 -13c-88 0 -168.167 12.833 -240.5 38.5s-134.5 61.834 -186.5 108.501s-92.167 102.5 -120.5 167.5s-42.5 136.833 -42.5 215.5z" />
    <glyph glyph-name="ocircumflex" unicode="&#xf4;" horiz-adv-x="1284" 
d="M455 1688h378l252 -510h-340l-78 218l-24 78l-22 -78l-78 -218h-340zM452 514c0 -37.333 5.5 -70 16.5 -98s25.5 -51.333 43.5 -70s38.667 -32.667 62 -42s47 -14 71 -14s47.5 4.66699 70.5 14s43.667 23.333 62 42s33 42 44 70s16.5 60.667 16.5 98s-5.5 70 -16.5 98
s-25.667 51.167 -44 69.5s-39 32.166 -62 41.499s-46.5 14 -70.5 14s-47.667 -4.66699 -71 -14s-44 -23.166 -62 -41.499s-32.5 -41.5 -43.5 -69.5s-16.5 -60.667 -16.5 -98zM52 514c3.33301 86 21.1699 161.666 53.5029 226.999s75.166 120.333 128.499 165
s115.166 78.334 185.499 101.001s145.166 34 224.499 34c86.667 0 166 -13 238 -39s134 -62.167 186 -108.5s92.333 -101.833 121 -166.5s43 -135.667 43 -213c0 -62.667 -8.16699 -119.334 -24.5 -170.001s-38.5 -95.5 -66.5 -134.5s-61 -72.833 -99 -101.5
s-79 -52.167 -123 -70.5s-89.5 -31.833 -136.5 -40.5s-93.833 -13 -140.5 -13c-88 0 -168.167 12.833 -240.5 38.5s-134.5 61.834 -186.5 108.501s-92.167 102.5 -120.5 167.5s-42.5 136.833 -42.5 215.5z" />
    <glyph glyph-name="otilde" unicode="&#xf5;" horiz-adv-x="1284" 
d="M498 1292c-15.333 0 -28.6641 -3.16797 -39.9971 -9.50098s-21.333 -14.666 -30 -24.999s-16 -22 -22 -35s-11.333 -25.833 -16 -38.5l-242 98c20.667 56.667 44 107 70 151s54.167 81.167 84.5 111.5s62.166 53.5 95.499 69.5s67.333 24 102 24
c20.667 0 41.5 -3.5 62.5 -10.5s37.167 -13.167 48.5 -18.5l47 -28c1.33301 -1.33301 3.66602 -3 6.99902 -5s7.33301 -4.66699 12 -8l43 -25c12 -6 24.167 -10.667 36.5 -14s26.166 -5 41.499 -5c46.667 0 80.667 30.667 102 92l240 -98
c-41.333 -118 -89.833 -204.167 -145.5 -258.5s-118.5 -81.5 -188.5 -81.5c-26 0 -49.167 2.83301 -69.5 8.5s-39.166 12.667 -56.499 21s-33.333 17.5 -48 27.5s-29.167 19.167 -43.5 27.5s-28.833 15.333 -43.5 21s-30.334 8.5 -47.001 8.5zM452.002 513.999
c0 -37.333 5.5 -70 16.5 -98s25.5 -51.333 43.5 -70s38.667 -32.667 62 -42s47 -14 71 -14s47.5 4.66699 70.5 14s43.667 23.333 62 42s33 42 44 70s16.5 60.667 16.5 98s-5.5 70 -16.5 98s-25.667 51.167 -44 69.5s-39 32.166 -62 41.499s-46.5 14 -70.5 14
s-47.667 -4.66699 -71 -14s-44 -23.166 -62 -41.499s-32.5 -41.5 -43.5 -69.5s-16.5 -60.667 -16.5 -98zM52.002 513.999c3.33301 86 21.1699 161.666 53.5029 226.999s75.166 120.333 128.499 165s115.166 78.334 185.499 101.001s145.166 34 224.499 34
c86.667 0 166 -13 238 -39s134 -62.167 186 -108.5s92.333 -101.833 121 -166.5s43 -135.667 43 -213c0 -62.667 -8.16699 -119.334 -24.5 -170.001s-38.5 -95.5 -66.5 -134.5s-61 -72.833 -99 -101.5s-79 -52.167 -123 -70.5s-89.5 -31.833 -136.5 -40.5
s-93.833 -13 -140.5 -13c-88 0 -168.167 12.833 -240.5 38.5s-134.5 61.834 -186.5 108.501s-92.167 102.5 -120.5 167.5s-42.5 136.833 -42.5 215.5z" />
    <glyph glyph-name="odieresis" unicode="&#xf6;" horiz-adv-x="1284" 
d="M723 1384c0 30.667 6.66406 58.6699 19.9971 84.0029s30.833 47.166 52.5 65.499s46.334 32.666 74.001 42.999s56.167 15.5 85.5 15.5c34.667 0 66 -6.16699 94 -18.5s52 -28.5 72 -48.5s35.333 -42.333 46 -67s16 -49.334 16 -74.001c0 -30 -6.33301 -57.667 -19 -83
s-29.5 -47 -50.5 -65s-45.333 -32.167 -73 -42.5s-56.167 -15.5 -85.5 -15.5c-34.667 0 -66.167 5.66699 -94.5 17s-52.666 26.5 -72.999 45.5s-36.166 40.833 -47.499 65.5s-17 50.667 -17 78zM104.997 1384c0 29.333 6.33301 56.665 19 81.998s29.667 47.333 51 66
s45.833 33.334 73.5 44.001s56.5 16 86.5 16c32 0 61.833 -5.66699 89.5 -17s52 -26.666 73 -45.999s37.5 -41.5 49.5 -66.5s18 -51.167 18 -78.5c0 -30.667 -6.5 -58.667 -19.5 -84s-30.167 -47 -51.5 -65s-45.833 -32 -73.5 -42s-56.167 -15 -85.5 -15
c-32 0 -61.833 5.33301 -89.5 16s-52 25.167 -73 43.5s-37.5 40 -49.5 65s-18 52.167 -18 81.5zM451.997 514.002c0 -37.333 5.5 -70 16.5 -98s25.5 -51.333 43.5 -70s38.667 -32.667 62 -42s47 -14 71 -14s47.5 4.66699 70.5 14s43.667 23.333 62 42s33 42 44 70
s16.5 60.667 16.5 98s-5.5 70 -16.5 98s-25.667 51.167 -44 69.5s-39 32.166 -62 41.499s-46.5 14 -70.5 14s-47.667 -4.66699 -71 -14s-44 -23.166 -62 -41.499s-32.5 -41.5 -43.5 -69.5s-16.5 -60.667 -16.5 -98zM51.9971 514.002
c3.33301 86 21.1699 161.666 53.5029 226.999s75.166 120.333 128.499 165s115.166 78.334 185.499 101.001s145.166 34 224.499 34c86.667 0 166 -13 238 -39s134 -62.167 186 -108.5s92.333 -101.833 121 -166.5s43 -135.667 43 -213
c0 -62.667 -8.16699 -119.334 -24.5 -170.001s-38.5 -95.5 -66.5 -134.5s-61 -72.833 -99 -101.5s-79 -52.167 -123 -70.5s-89.5 -31.833 -136.5 -40.5s-93.833 -13 -140.5 -13c-88 0 -168.167 12.833 -240.5 38.5s-134.5 61.834 -186.5 108.501s-92.167 102.5 -120.5 167.5
s-42.5 136.833 -42.5 215.5z" />
    <glyph glyph-name="divide" unicode="&#xf7;" horiz-adv-x="926" 
d="M50 580h826v-114h-826v114zM259 200c0 26.667 5.66602 51.1689 16.999 73.502s26.333 41.5 45 57.5s40.334 28.5 65.001 37.5s50 13.5 76 13.5c27.333 0 53.166 -4.83301 77.499 -14.5s45.5 -22.834 63.5 -39.501s32.333 -36 43 -58s16 -45.333 16 -70
c0 -26 -5.33301 -50 -16 -72s-25.167 -41 -43.5 -57s-39.666 -28.5 -63.999 -37.5s-49.833 -13.5 -76.5 -13.5c-28 0 -54.333 4.66699 -79 14s-46.167 22.166 -64.5 38.499s-32.833 35.333 -43.5 57s-16 45.167 -16 70.5zM258.999 846.002c0 26 5.66699 50.168 17 72.501
s26.5 41.5 45.5 57.5s40.667 28.667 65 38s49.5 14 75.5 14c27.333 0 53.166 -5 77.499 -15s45.5 -23.333 63.5 -40s32.333 -36 43 -58s16 -45 16 -69c0 -26 -5.33301 -50 -16 -72s-25.167 -41 -43.5 -57s-39.666 -28.5 -63.999 -37.5s-49.833 -13.5 -76.5 -13.5
c-29.333 0 -56.333 4.66699 -81 14s-46 22.166 -64 38.499s-32.167 35.333 -42.5 57s-15.5 45.167 -15.5 70.5z" />
    <glyph glyph-name="oslash" unicode="&#xf8;" horiz-adv-x="1244" 
d="M432 -2c-56 18 -107.34 42.834 -154.007 74.501s-86.5 69.334 -119.5 113.001s-58.667 93 -77 148s-27.5 115.167 -27.5 180.5c0 62.667 7.83301 119.5 23.5 170.5s37.334 96.667 65.001 137s60.334 75.166 98.001 104.499s78.834 53.666 123.501 72.999
s91.834 33.666 141.501 42.999s99.834 14 150.501 14h9c3.33301 0 6.83301 -0.166992 10.5 -0.5s7.83398 -0.833008 12.501 -1.5h2l36 148h118l-42 -170c56.667 -17.333 108.834 -41.833 156.501 -73.5s88.667 -69.5 123 -113.5s61 -93.833 80 -149.5
s28.5 -116.167 28.5 -181.5c0 -63.333 -8.16699 -120.833 -24.5 -172.5s-39 -97.667 -68 -138s-63.167 -75.333 -102.5 -105s-81.833 -54.167 -127.5 -73.5s-93.334 -33.666 -143.001 -42.999s-99.5 -14 -149.5 -14h-16c-2.66699 0 -5.66699 0.166992 -9 0.5
s-6.66602 0.833008 -9.99902 1.5l-34 -144h-116zM619.993 288.001c26.667 4 51.668 12.835 75.001 26.502s43.5 30.667 60.5 51s30.333 43.166 40 68.499s14.5 52 14.5 80c0 40 -8.33301 76.167 -25 108.5s-38.334 58.166 -65.001 77.499zM613.994 738.003
c-27.333 -1.33301 -52.334 -8.16992 -75.001 -20.5029s-42 -28.666 -58 -48.999s-28.5 -43.666 -37.5 -69.999s-13.5 -54.5 -13.5 -84.5c0 -40 7.83301 -76.167 23.5 -108.5s35.834 -58.166 60.501 -77.499z" />
    <glyph glyph-name="ugrave" unicode="&#xf9;" horiz-adv-x="1286" 
d="M441 1818l600 -420l-126 -220l-682 274zM516 426c0 -18 3.50195 -34.501 10.502 -49.501s16.667 -27.833 29 -38.5s26.666 -19 42.999 -25s33.5 -9 51.5 -9c17.333 0 33.666 3.16699 48.999 9.5s28.666 15 39.999 26s20.333 23.833 27 38.5s10 30.667 10 48v600h414v-586
c0 -70.667 -13.667 -134.167 -41 -190.5s-65.166 -104.166 -113.499 -143.499s-105.5 -69.5 -171.5 -90.5s-138 -31.5 -216 -31.5c-76.667 0 -148.667 10.167 -216 30.5s-126 50 -176 89s-89.5 86.833 -118.5 143.5s-43.5 121 -43.5 193v586h422v-600z" />
    <glyph glyph-name="uacute" unicode="&#xfa;" horiz-adv-x="1286" 
d="M288 1398l600 420l208 -366l-682 -274zM516 426c0 -18 3.50195 -34.501 10.502 -49.501s16.667 -27.833 29 -38.5s26.666 -19 42.999 -25s33.5 -9 51.5 -9c17.333 0 33.666 3.16699 48.999 9.5s28.666 15 39.999 26s20.333 23.833 27 38.5s10 30.667 10 48v600h414v-586
c0 -70.667 -13.667 -134.167 -41 -190.5s-65.166 -104.166 -113.499 -143.499s-105.5 -69.5 -171.5 -90.5s-138 -31.5 -216 -31.5c-76.667 0 -148.667 10.167 -216 30.5s-126 50 -176 89s-89.5 86.833 -118.5 143.5s-43.5 121 -43.5 193v586h422v-600z" />
    <glyph glyph-name="ucircumflex" unicode="&#xfb;" horiz-adv-x="1286" 
d="M453 1688h378l252 -510h-340l-78 218l-24 78l-22 -78l-78 -218h-340zM516 426c0 -18 3.50195 -34.501 10.502 -49.501s16.667 -27.833 29 -38.5s26.666 -19 42.999 -25s33.5 -9 51.5 -9c17.333 0 33.666 3.16699 48.999 9.5s28.666 15 39.999 26s20.333 23.833 27 38.5
s10 30.667 10 48v600h414v-586c0 -70.667 -13.667 -134.167 -41 -190.5s-65.166 -104.166 -113.499 -143.499s-105.5 -69.5 -171.5 -90.5s-138 -31.5 -216 -31.5c-76.667 0 -148.667 10.167 -216 30.5s-126 50 -176 89s-89.5 86.833 -118.5 143.5s-43.5 121 -43.5 193v586
h422v-600z" />
    <glyph glyph-name="udieresis" unicode="&#xfc;" horiz-adv-x="1286" 
d="M721 1384c0 30.667 6.66406 58.6699 19.9971 84.0029s30.833 47.166 52.5 65.499s46.334 32.666 74.001 42.999s56.167 15.5 85.5 15.5c34.667 0 66 -6.16699 94 -18.5s52 -28.5 72 -48.5s35.333 -42.333 46 -67s16 -49.334 16 -74.001c0 -30 -6.33301 -57.667 -19 -83
s-29.5 -47 -50.5 -65s-45.333 -32.167 -73 -42.5s-56.167 -15.5 -85.5 -15.5c-34.667 0 -66.167 5.66699 -94.5 17s-52.666 26.5 -72.999 45.5s-36.166 40.833 -47.499 65.5s-17 50.667 -17 78zM102.997 1384c0 29.333 6.33301 56.665 19 81.998s29.667 47.333 51 66
s45.833 33.334 73.5 44.001s56.5 16 86.5 16c32 0 61.833 -5.66699 89.5 -17s52 -26.666 73 -45.999s37.5 -41.5 49.5 -66.5s18 -51.167 18 -78.5c0 -30.667 -6.5 -58.667 -19.5 -84s-30.167 -47 -51.5 -65s-45.833 -32 -73.5 -42s-56.167 -15 -85.5 -15
c-32 0 -61.833 5.33301 -89.5 16s-52 25.167 -73 43.5s-37.5 40 -49.5 65s-18 52.167 -18 81.5zM515.997 426.002c0 -18 3.50195 -34.501 10.502 -49.501s16.667 -27.833 29 -38.5s26.666 -19 42.999 -25s33.5 -9 51.5 -9c17.333 0 33.666 3.16699 48.999 9.5
s28.666 15 39.999 26s20.333 23.833 27 38.5s10 30.667 10 48v600h414v-586c0 -70.667 -13.667 -134.167 -41 -190.5s-65.166 -104.166 -113.499 -143.499s-105.5 -69.5 -171.5 -90.5s-138 -31.5 -216 -31.5c-76.667 0 -148.667 10.167 -216 30.5s-126 50 -176 89
s-89.5 86.833 -118.5 143.5s-43.5 121 -43.5 193v586h422v-600z" />
    <glyph glyph-name="yacute" unicode="&#xfd;" horiz-adv-x="1369" 
d="M330 1398l600 420l208 -366l-682 -274zM852 170c-63.333 -113.333 -162.001 -170.001 -296.001 -170.001c-61.333 0 -119.666 10.833 -174.999 32.5s-104 51.834 -146 90.501s-75.333 84.5 -100 137.5s-37 110.833 -37 173.5v592h430v-572
c0 -20 4.16699 -38.833 12.5 -56.5s19 -33.167 32 -46.5s27.833 -23.833 44.5 -31.5s33.667 -11.5 51 -11.5c24.667 0 47.167 4.5 67.5 13.5s37.666 21.333 51.999 37s25.333 34 33 55s11.5 43.833 11.5 68.5v544h432v-766c0 -120 -12.5 -226 -37.5 -318
s-61.833 -169.167 -110.5 -231.5s-108.667 -109.666 -180 -141.999s-153.333 -48.5 -246 -48.5c-21.333 0 -46.666 1.66699 -75.999 5s-63.333 8.33301 -102 15l44 336c18 -4.66699 35.333 -7.83398 52 -9.50098s33 -2.5 49 -2.5c38.667 0 69.834 9.16699 93.501 27.5
s42.5 42 56.5 71s24.167 61.667 30.5 98s11.166 72.833 14.499 109.5z" />
    <glyph glyph-name="thorn" unicode="&#xfe;" horiz-adv-x="1427" 
d="M875 -32c-80 0 -148 19.998 -204 59.998s-100 94 -132 162v-700h-432v1860l432 64v-580c68.667 148 180 222 334 222c69.333 0 134.5 -14.167 195.5 -42.5s114.167 -67 159.5 -116s81.166 -106.667 107.499 -173s39.5 -137.166 39.5 -212.499
c0 -50 -6.16699 -98.167 -18.5 -144.5s-29.666 -89.666 -51.999 -129.999s-49 -77 -80 -110s-65 -61.333 -102 -85s-76.5 -42 -118.5 -55s-85 -19.5 -129 -19.5zM539 511.998c0 -28.667 5.50391 -55.3301 16.5039 -79.9971s25.667 -46.167 44 -64.5
s39.666 -32.833 63.999 -43.5s50.166 -16 77.499 -16c28.667 0 55.667 5.5 81 16.5s47.166 26 65.499 45s32.833 40.667 43.5 65s16 50.166 16 77.499c0 32.667 -6.16699 61.667 -18.5 87s-28.5 46.666 -48.5 63.999s-42.167 30.5 -66.5 39.5s-48.5 13.5 -72.5 13.5
c-28 0 -54.167 -5.16699 -78.5 -15.5s-45.5 -24.5 -63.5 -42.5s-32.333 -38.833 -43 -62.5s-16.334 -48.834 -17.001 -75.501v-8z" />
    <glyph glyph-name="ydieresis" unicode="&#xff;" horiz-adv-x="1369" 
d="M760 1384c0 30.667 6.66406 58.6699 19.9971 84.0029s30.833 47.166 52.5 65.499s46.334 32.666 74.001 42.999s56.167 15.5 85.5 15.5c34.667 0 66 -6.16699 94 -18.5s52 -28.5 72 -48.5s35.333 -42.333 46 -67s16 -49.334 16 -74.001c0 -30 -6.33301 -57.667 -19 -83
s-29.5 -47 -50.5 -65s-45.333 -32.167 -73 -42.5s-56.167 -15.5 -85.5 -15.5c-34.667 0 -66.167 5.66699 -94.5 17s-52.666 26.5 -72.999 45.5s-36.166 40.833 -47.499 65.5s-17 50.667 -17 78zM141.997 1384c0 29.333 6.33301 56.665 19 81.998s29.667 47.333 51 66
s45.833 33.334 73.5 44.001s56.5 16 86.5 16c32 0 61.833 -5.66699 89.5 -17s52 -26.666 73 -45.999s37.5 -41.5 49.5 -66.5s18 -51.167 18 -78.5c0 -30.667 -6.5 -58.667 -19.5 -84s-30.167 -47 -51.5 -65s-45.833 -32 -73.5 -42s-56.167 -15 -85.5 -15
c-32 0 -61.833 5.33301 -89.5 16s-52 25.167 -73 43.5s-37.5 40 -49.5 65s-18 52.167 -18 81.5zM851.997 170.002c-63.333 -113.333 -162.001 -170.001 -296.001 -170.001c-61.333 0 -119.666 10.833 -174.999 32.5s-104 51.834 -146 90.501s-75.333 84.5 -100 137.5
s-37 110.833 -37 173.5v592h430v-572c0 -20 4.16699 -38.833 12.5 -56.5s19 -33.167 32 -46.5s27.833 -23.833 44.5 -31.5s33.667 -11.5 51 -11.5c24.667 0 47.167 4.5 67.5 13.5s37.666 21.333 51.999 37s25.333 34 33 55s11.5 43.833 11.5 68.5v544h432v-766
c0 -120 -12.5 -226 -37.5 -318s-61.833 -169.167 -110.5 -231.5s-108.667 -109.666 -180 -141.999s-153.333 -48.5 -246 -48.5c-21.333 0 -46.666 1.66699 -75.999 5s-63.333 8.33301 -102 15l44 336c18 -4.66699 35.333 -7.83398 52 -9.50098s33 -2.5 49 -2.5
c38.667 0 69.834 9.16699 93.501 27.5s42.5 42 56.5 71s24.167 61.667 30.5 98s11.166 72.833 14.499 109.5z" />
    <glyph glyph-name="Amacron" unicode="&#x100;" horiz-adv-x="1431" 
d="M436 1803h550v-242h-550v242zM400 1408h622l408 -1408h-482l-54 270h-364l-58 -270h-462zM846 522l-134 616l-138 -616h272z" />
    <glyph glyph-name="amacron" unicode="&#x101;" horiz-adv-x="1425" 
d="M447 1420h550v-242h-550v242zM890 190c-32 -66.667 -75.3301 -117.667 -129.997 -153s-123.334 -53 -206.001 -53c-66.667 0 -130.334 13.5 -191.001 40.5s-114 64.333 -160 112s-82.667 104.167 -110 169.5s-41 136.333 -41 213c0 76 13.833 146 41.5 210
s64.667 119.167 111 165.5s99.666 82.333 159.999 108s123.5 38.5 189.5 38.5c34 0 67.5 -4.5 100.5 -13.5s64.333 -23.333 94 -43s56.667 -44.5 81 -74.5s44.5 -66 60.5 -108v239h430v-1041h-430v190zM890.003 520c-1.33301 26.667 -7.66797 52 -19.001 76
s-26.166 44.833 -44.499 62.5s-39.5 31.667 -63.5 42s-49 15.5 -75 15.5c-29.333 0 -56.5 -5.5 -81.5 -16.5s-46.667 -25.667 -65 -44s-32.833 -39.833 -43.5 -64.5s-16 -51 -16 -79c0 -29.333 5.66699 -56.5 17 -81.5s26.5 -46.5 45.5 -64.5s40.833 -32.167 65.5 -42.5
s50.667 -15.5 78 -15.5c28 0 54 5.33301 78 16s45 25 63 43s32.333 38.833 43 62.5s16.667 48.5 18 74.5v16z" />
    <glyph glyph-name="Abreve" unicode="&#x102;" horiz-adv-x="1431" 
d="M1062 1911c0 -53.333 -8.66797 -101.5 -26.001 -144.5s-41.5 -79.667 -72.5 -110s-68 -53.833 -111 -70.5s-89.833 -25 -140.5 -25c-52 0 -99.667 8.5 -143 25.5s-80.5 41 -111.5 72s-55 68 -72 111s-25.5 90.167 -25.5 141.5h226c0 -36.667 11.833 -66.5 35.5 -89.5
s53.834 -34.5 90.501 -34.5s65.5 11.167 86.5 33.5s31.5 52.5 31.5 90.5h232zM399.999 1408h622l408 -1408h-482l-54 270h-364l-58 -270h-462zM845.999 522l-134 616l-138 -616h272z" />
    <glyph glyph-name="abreve" unicode="&#x103;" horiz-adv-x="1425" 
d="M1073 1528c0 -53.333 -8.66797 -101.5 -26.001 -144.5s-41.5 -79.667 -72.5 -110s-68 -53.833 -111 -70.5s-89.833 -25 -140.5 -25c-52 0 -99.667 8.5 -143 25.5s-80.5 41 -111.5 72s-55 68 -72 111s-25.5 90.167 -25.5 141.5h226c0 -36.667 11.833 -66.5 35.5 -89.5
s53.834 -34.5 90.501 -34.5s65.5 11.167 86.5 33.5s31.5 52.5 31.5 90.5h232zM889.999 190c-32 -66.667 -75.3301 -117.667 -129.997 -153s-123.334 -53 -206.001 -53c-66.667 0 -130.334 13.5 -191.001 40.5s-114 64.333 -160 112s-82.667 104.167 -110 169.5
s-41 136.333 -41 213c0 76 13.833 146 41.5 210s64.667 119.167 111 165.5s99.666 82.333 159.999 108s123.5 38.5 189.5 38.5c34 0 67.5 -4.5 100.5 -13.5s64.333 -23.333 94 -43s56.667 -44.5 81 -74.5s44.5 -66 60.5 -108v239h430v-1041h-430v190zM890.002 520
c-1.33301 26.667 -7.66797 52 -19.001 76s-26.166 44.833 -44.499 62.5s-39.5 31.667 -63.5 42s-49 15.5 -75 15.5c-29.333 0 -56.5 -5.5 -81.5 -16.5s-46.667 -25.667 -65 -44s-32.833 -39.833 -43.5 -64.5s-16 -51 -16 -79c0 -29.333 5.66699 -56.5 17 -81.5
s26.5 -46.5 45.5 -64.5s40.833 -32.167 65.5 -42.5s50.667 -15.5 78 -15.5c28 0 54 5.33301 78 16s45 25 63 43s32.333 38.833 43 62.5s16.667 48.5 18 74.5v16z" />
    <glyph glyph-name="Aogonek" unicode="&#x104;" horiz-adv-x="1431" 
d="M1005 -385c19.333 0 51.3311 4.66699 95.998 14l2 -76c-70.667 -29.333 -136.667 -44 -198 -44c-31.333 0 -60.666 3.66699 -87.999 11s-51 18.333 -71 33s-35.833 33 -47.5 55s-17.5 47.667 -17.5 77c0 24 5.16699 47 15.5 69s23.5 43 39.5 63s33.667 39 53 57l56 50
l57 48c13.333 11.333 24.666 20.333 33.999 27s16.333 12.667 21 18h112c-21.333 -44.667 -42.666 -85.667 -63.999 -123s-42.666 -71.333 -63.999 -102l-20 -31c-4 -5.33301 -8 -15.333 -12 -30s-6 -28.667 -6 -42c0 -49.333 34 -74 102 -74zM399.998 1408h622l408 -1408
h-482l-54 270h-364l-58 -270h-462zM845.998 522l-134 616l-138 -616h272z" />
    <glyph glyph-name="aogonek" unicode="&#x105;" horiz-adv-x="1425" 
d="M1049 -415c19.333 0 51.3311 4.66699 95.998 14l2 -76c-70.667 -29.333 -136.667 -44 -198 -44c-31.333 0 -60.666 3.66699 -87.999 11s-51 18.333 -71 33s-35.833 33 -47.5 55s-17.5 47.667 -17.5 77c0 24 5.16699 47 15.5 69s23.5 43 39.5 63s33.667 39 53 57l56 50
l57 48c13.333 11.333 24.666 20.333 33.999 27s16.333 12.667 21 18h112c-21.333 -44.667 -42.666 -85.667 -63.999 -123s-42.666 -71.333 -63.999 -102l-20 -31c-4 -5.33301 -8 -15.333 -12 -30s-6 -28.667 -6 -42c0 -49.333 34 -74 102 -74zM889.998 190
c-32 -66.667 -75.3301 -117.667 -129.997 -153s-123.334 -53 -206.001 -53c-66.667 0 -130.334 13.5 -191.001 40.5s-114 64.333 -160 112s-82.667 104.167 -110 169.5s-41 136.333 -41 213c0 76 13.833 146 41.5 210s64.667 119.167 111 165.5s99.666 82.333 159.999 108
s123.5 38.5 189.5 38.5c34 0 67.5 -4.5 100.5 -13.5s64.333 -23.333 94 -43s56.667 -44.5 81 -74.5s44.5 -66 60.5 -108v239h430v-1041h-430v190zM890.001 520c-1.33301 26.667 -7.66797 52 -19.001 76s-26.166 44.833 -44.499 62.5s-39.5 31.667 -63.5 42
s-49 15.5 -75 15.5c-29.333 0 -56.5 -5.5 -81.5 -16.5s-46.667 -25.667 -65 -44s-32.833 -39.833 -43.5 -64.5s-16 -51 -16 -79c0 -29.333 5.66699 -56.5 17 -81.5s26.5 -46.5 45.5 -64.5s40.833 -32.167 65.5 -42.5s50.667 -15.5 78 -15.5c28 0 54 5.33301 78 16
s45 25 63 43s32.333 38.833 43 62.5s16.667 48.5 18 74.5v16z" />
    <glyph glyph-name="Cacute" unicode="&#x106;" horiz-adv-x="1237" 
d="M371 1781l600 420l208 -366l-682 -274zM875 338c23.333 0 44.998 1.16895 64.998 3.50195s39.833 5.83301 59.5 10.5s39.834 10.667 60.501 18s43.667 16 69 26l56 -325c-118.667 -68.667 -248 -103 -388 -103c-198 0 -367.667 66.667 -509 200
c-148 138.667 -223 317.667 -225 537c0 106.667 18.333 205 55 295s87.334 167.5 152.001 232.5s141 115.667 229 152s183.333 54.5 286 54.5c146 0 278.667 -34 398 -102l-54 -318c-98 37.333 -186.667 56 -266 56c-111.333 0 -195.833 -32.167 -253.5 -96.5
s-86.5 -154.833 -86.5 -271.5c0 -58 7.83301 -109.833 23.5 -155.5s38.5 -84.334 68.5 -116.001s66.833 -55.834 110.5 -72.501s93.5 -25 149.5 -25z" />
    <glyph glyph-name="cacute" unicode="&#x107;" horiz-adv-x="966" 
d="M107 1398l600 420l208 -366l-682 -274zM882 686c-72 22.667 -138.666 34.0029 -199.999 34.0029c-31.333 0 -59.5 -5 -84.5 -15s-46.333 -24 -64 -42s-31.334 -39.833 -41.001 -65.5s-14.5 -54.167 -14.5 -85.5s4.83301 -59.833 14.5 -85.5s23.5 -47.834 41.5 -66.501
s39.833 -33 65.5 -43s54.5 -15 86.5 -15c60.667 0 124.667 11.333 192 34l40 -286c-51.333 -26.667 -101.5 -44.334 -150.5 -53.001s-102.167 -13 -159.5 -13c-80.667 0 -155 12.667 -223 38s-126.667 61 -176 107s-87.833 101.5 -115.5 166.5s-41.5 137.167 -41.5 216.5
s15 151.5 45 216.5s70.5 120.667 121.5 167s110.167 82.166 177.5 107.499s138 38 212 38c32.667 0 62.167 -1.16699 88.5 -3.5s51.5 -6.66602 75.5 -12.999s48 -14.833 72 -25.5s50 -24.334 78 -41.001z" />
    <glyph glyph-name="Ccircumflex" unicode="&#x108;" horiz-adv-x="1237" 
d="M596 2071h378l252 -510h-340l-78 218l-24 78l-22 -78l-78 -218h-340zM875 338c23.333 0 44.998 1.16895 64.998 3.50195s39.833 5.83301 59.5 10.5s39.834 10.667 60.501 18s43.667 16 69 26l56 -325c-118.667 -68.667 -248 -103 -388 -103
c-198 0 -367.667 66.667 -509 200c-148 138.667 -223 317.667 -225 537c0 106.667 18.333 205 55 295s87.334 167.5 152.001 232.5s141 115.667 229 152s183.333 54.5 286 54.5c146 0 278.667 -34 398 -102l-54 -318c-98 37.333 -186.667 56 -266 56
c-111.333 0 -195.833 -32.167 -253.5 -96.5s-86.5 -154.833 -86.5 -271.5c0 -58 7.83301 -109.833 23.5 -155.5s38.5 -84.334 68.5 -116.001s66.833 -55.834 110.5 -72.501s93.5 -25 149.5 -25z" />
    <glyph glyph-name="ccircumflex" unicode="&#x109;" horiz-adv-x="966" 
d="M419 1688h378l252 -510h-340l-78 218l-24 78l-22 -78l-78 -218h-340zM882 686c-72 22.667 -138.666 34.0029 -199.999 34.0029c-31.333 0 -59.5 -5 -84.5 -15s-46.333 -24 -64 -42s-31.334 -39.833 -41.001 -65.5s-14.5 -54.167 -14.5 -85.5s4.83301 -59.833 14.5 -85.5
s23.5 -47.834 41.5 -66.501s39.833 -33 65.5 -43s54.5 -15 86.5 -15c60.667 0 124.667 11.333 192 34l40 -286c-51.333 -26.667 -101.5 -44.334 -150.5 -53.001s-102.167 -13 -159.5 -13c-80.667 0 -155 12.667 -223 38s-126.667 61 -176 107s-87.833 101.5 -115.5 166.5
s-41.5 137.167 -41.5 216.5s15 151.5 45 216.5s70.5 120.667 121.5 167s110.167 82.166 177.5 107.499s138 38 212 38c32.667 0 62.167 -1.16699 88.5 -3.5s51.5 -6.66602 75.5 -12.999s48 -14.833 72 -25.5s50 -24.334 78 -41.001z" />
    <glyph glyph-name="Cdotaccent" unicode="&#x10a;" horiz-adv-x="1237" 
d="M555 1769c0 30 6.5 57.665 19.5 82.998s30.167 47 51.5 65s45.833 32.167 73.5 42.5s56.167 15.5 85.5 15.5c30.667 0 60 -5.5 88 -16.5s52.5 -26 73.5 -45s37.667 -40.833 50 -65.5s18.5 -51 18.5 -79c0 -31.333 -6.5 -59.666 -19.5 -84.999
s-30.167 -47.166 -51.5 -65.499s-45.833 -32.5 -73.5 -42.5s-56.167 -15 -85.5 -15c-32 0 -62 5.33301 -90 16s-52.333 25.334 -73 44.001s-37 40.667 -49 66s-18 52.666 -18 81.999zM875 337.998c23.333 0 44.998 1.16895 64.998 3.50195s39.833 5.83301 59.5 10.5
s39.834 10.667 60.501 18s43.667 16 69 26l56 -325c-118.667 -68.667 -248 -103 -388 -103c-198 0 -367.667 66.667 -509 200c-148 138.667 -223 317.667 -225 537c0 106.667 18.333 205 55 295s87.334 167.5 152.001 232.5s141 115.667 229 152s183.333 54.5 286 54.5
c146 0 278.667 -34 398 -102l-54 -318c-98 37.333 -186.667 56 -266 56c-111.333 0 -195.833 -32.167 -253.5 -96.5s-86.5 -154.833 -86.5 -271.5c0 -58 7.83301 -109.833 23.5 -155.5s38.5 -84.334 68.5 -116.001s66.833 -55.834 110.5 -72.501s93.5 -25 149.5 -25z" />
    <glyph glyph-name="cdotaccent" unicode="&#x10b;" horiz-adv-x="966" 
d="M378 1386c0 30 6.5 57.665 19.5 82.998s30.167 47 51.5 65s45.833 32.167 73.5 42.5s56.167 15.5 85.5 15.5c30.667 0 60 -5.5 88 -16.5s52.5 -26 73.5 -45s37.667 -40.833 50 -65.5s18.5 -51 18.5 -79c0 -31.333 -6.5 -59.666 -19.5 -84.999
s-30.167 -47.166 -51.5 -65.499s-45.833 -32.5 -73.5 -42.5s-56.167 -15 -85.5 -15c-32 0 -62 5.33301 -90 16s-52.333 25.334 -73 44.001s-37 40.667 -49 66s-18 52.666 -18 81.999zM882 685.998c-72 22.667 -138.666 34.0029 -199.999 34.0029
c-31.333 0 -59.5 -5 -84.5 -15s-46.333 -24 -64 -42s-31.334 -39.833 -41.001 -65.5s-14.5 -54.167 -14.5 -85.5s4.83301 -59.833 14.5 -85.5s23.5 -47.834 41.5 -66.501s39.833 -33 65.5 -43s54.5 -15 86.5 -15c60.667 0 124.667 11.333 192 34l40 -286
c-51.333 -26.667 -101.5 -44.334 -150.5 -53.001s-102.167 -13 -159.5 -13c-80.667 0 -155 12.667 -223 38s-126.667 61 -176 107s-87.833 101.5 -115.5 166.5s-41.5 137.167 -41.5 216.5s15 151.5 45 216.5s70.5 120.667 121.5 167s110.167 82.166 177.5 107.499
s138 38 212 38c32.667 0 62.167 -1.16699 88.5 -3.5s51.5 -6.66602 75.5 -12.999s48 -14.833 72 -25.5s50 -24.334 78 -41.001z" />
    <glyph glyph-name="Ccaron" unicode="&#x10c;" horiz-adv-x="1237" 
d="M344 2071l340 -0.000976562l78 -218l22 -80c5.33301 18 12.5 40.167 21.5 66.5l28.5 81.5l29 82c9.33301 26.667 17 49.334 23 68.001h340l-252 -510h-378zM875 337.999c23.333 0 44.998 1.16895 64.998 3.50195s39.833 5.83301 59.5 10.5s39.834 10.667 60.501 18
s43.667 16 69 26l56 -325c-118.667 -68.667 -248 -103 -388 -103c-198 0 -367.667 66.667 -509 200c-148 138.667 -223 317.667 -225 537c0 106.667 18.333 205 55 295s87.334 167.5 152.001 232.5s141 115.667 229 152s183.333 54.5 286 54.5c146 0 278.667 -34 398 -102
l-54 -318c-98 37.333 -186.667 56 -266 56c-111.333 0 -195.833 -32.167 -253.5 -96.5s-86.5 -154.833 -86.5 -271.5c0 -58 7.83301 -109.833 23.5 -155.5s38.5 -84.334 68.5 -116.001s66.833 -55.834 110.5 -72.501s93.5 -25 149.5 -25z" />
    <glyph glyph-name="ccaron" unicode="&#x10d;" horiz-adv-x="966" 
d="M167 1688l340 -0.000976562l78 -218l22 -80c5.33301 18 12.5 40.167 21.5 66.5l28.5 81.5l29 82c9.33301 26.667 17 49.334 23 68.001h340l-252 -510h-378zM882 685.999c-72 22.667 -138.666 34.0029 -199.999 34.0029c-31.333 0 -59.5 -5 -84.5 -15s-46.333 -24 -64 -42
s-31.334 -39.833 -41.001 -65.5s-14.5 -54.167 -14.5 -85.5s4.83301 -59.833 14.5 -85.5s23.5 -47.834 41.5 -66.501s39.833 -33 65.5 -43s54.5 -15 86.5 -15c60.667 0 124.667 11.333 192 34l40 -286c-51.333 -26.667 -101.5 -44.334 -150.5 -53.001
s-102.167 -13 -159.5 -13c-80.667 0 -155 12.667 -223 38s-126.667 61 -176 107s-87.833 101.5 -115.5 166.5s-41.5 137.167 -41.5 216.5s15 151.5 45 216.5s70.5 120.667 121.5 167s110.167 82.166 177.5 107.499s138 38 212 38c32.667 0 62.167 -1.16699 88.5 -3.5
s51.5 -6.66602 75.5 -12.999s48 -14.833 72 -25.5s50 -24.334 78 -41.001z" />
    <glyph glyph-name="Dcaron" unicode="&#x10e;" horiz-adv-x="1565" 
d="M376 2071l340 -0.000976562l78 -218l22 -80c5.33301 18 12.5 40.167 21.5 66.5l28.5 81.5l29 82c9.33301 26.667 17 49.334 23 68.001h340l-252 -510h-378zM134 1408l611.999 0.000976562c114 0 217.333 -17.167 310 -51.5s171.834 -82.166 237.501 -143.499
s116.5 -134.5 152.5 -219.5s54 -178.167 54 -279.5c0 -106.667 -17.833 -203.834 -53.5 -291.501s-86.5 -162.834 -152.5 -225.501s-145.333 -111.167 -238 -145.5s-196 -51.5 -310 -51.5h-612v1408zM745.999 368c51.333 0 95.5 11 132.5 33s67.5 50 91.5 84
s41.667 71.667 53 113s17 81.333 17 120c0 46.667 -7.16699 89.667 -21.5 129s-34.5 73.333 -60.5 102s-57 51 -93 67s-75.667 24 -119 24h-160v-672h160z" />
    <glyph glyph-name="dcaron" unicode="&#x10f;" horiz-adv-x="1428" 
d="M1504 926c46 0 81.668 0.332031 107.001 0.999023s44.166 4.33398 56.499 11.001s19.833 17.167 22.5 31.5s4 35.166 4 62.499h-190v382h420l-4 -208c-1.33301 -73.333 -4 -137.166 -8 -191.499s-11 -100.833 -21 -139.5s-24 -70.167 -42 -94.5
s-42.167 -43.5 -72.5 -57.5s-67.833 -23.667 -112.5 -29s-98 -8 -160 -8v240zM553.001 1041c77.333 0 143.999 -16.002 199.999 -48.002s101.333 -85 136 -159v516l432 64v-1414h-432v190c-32 -68.667 -75.667 -120.167 -131 -154.5s-124.333 -51.5 -207 -51.5
c-71.333 0 -137.333 14.5 -198 43.5s-113.167 67.833 -157.5 116.5s-79.166 104.834 -104.499 168.501s-38 130.167 -38 199.5c0 74.667 13.5 144.334 40.5 209.001s63.5 120.667 109.5 168s99.167 84.5 159.5 111.5s123.833 40.5 190.5 40.5zM889 519.997
c-1.33301 26.667 -7.66992 51.998 -19.0029 75.998s-26.166 44.833 -44.499 62.5s-39.5 31.667 -63.5 42s-49 15.5 -75 15.5c-29.333 0 -56.5 -5.5 -81.5 -16.5s-46.5 -25.833 -64.5 -44.5s-32.167 -40.334 -42.5 -65.001s-15.5 -50.667 -15.5 -78
c0 -29.333 5.5 -56.333 16.5 -81s25.833 -46.167 44.5 -64.5s40.334 -32.666 65.001 -42.999s50.667 -15.5 78 -15.5c28.667 0 55.334 5.66699 80.001 17s46 26.333 64 45s32.167 40.334 42.5 65.001s15.5 50.334 15.5 77.001v8z" />
    <glyph glyph-name="Dcroat" unicode="&#x110;" horiz-adv-x="1565" 
d="M78 766l56 0.000976562v610h612c111.333 0 213.166 -16.833 305.499 -50.5s171.833 -80.5 238.5 -140.5s118.334 -131.5 155.001 -214.5s55 -173.833 55 -272.5c0 -190.667 -63.333 -351.334 -190 -482.001c-139.333 -144 -327.333 -216 -564 -216h-612v592h-56v174z
M746 368.001c45.333 0 86.168 8.66797 122.501 26.001s67.166 41.166 92.499 71.499s44.833 65.833 58.5 106.5s20.5 84 20.5 130c0 44.667 -7.5 85.667 -22.5 123s-35.5 69.5 -61.5 96.5s-57 48.167 -93 63.5s-75 23 -117 23h-160v-242h132v-174h-132v-224h160z" />
    <glyph glyph-name="dcroat" unicode="&#x111;" horiz-adv-x="1428" 
d="M553 1056c154.667 0 266.667 -73.999 336 -221.999v272h-142v174h142v70l432 64v-134h66v-174h-66v-1106h-432v190c-32 -68 -76 -122 -132 -162s-124.667 -60 -206 -60c-126.667 0 -239.667 49.667 -339 149c-106 106 -159 237.667 -159 395c0 75.333 13.5 146 40.5 212
s63.5 123.667 109.5 173s99.167 88.166 159.5 116.499s123.833 42.5 190.5 42.5zM889 520.001c-1.33301 26.667 -7.66992 51.998 -19.0029 75.998s-26.166 44.833 -44.499 62.5s-39.5 31.667 -63.5 42s-49 15.5 -75 15.5c-29.333 0 -56.5 -5.5 -81.5 -16.5
s-46.5 -25.833 -64.5 -44.5s-32.167 -40.334 -42.5 -65.001s-15.5 -50.667 -15.5 -78c0 -29.333 5.5 -56.333 16.5 -81s25.833 -46.167 44.5 -64.5s40.334 -32.666 65.001 -42.999s50.667 -15.5 78 -15.5c28.667 0 55.334 5.66699 80.001 17s46 26.333 64 45
s32.167 40.334 42.5 65.001s15.5 50.334 15.5 77.001v8z" />
    <glyph glyph-name="Emacron" unicode="&#x112;" horiz-adv-x="1218" 
d="M353 1803h550v-242h-550v242zM134 1408h988v-310h-492v-256h450v-258h-450v-276h492v-308h-988v1408z" />
    <glyph glyph-name="emacron" unicode="&#x113;" horiz-adv-x="1138" 
d="M343 1420h550v-242h-550v242zM698 271c93.333 0 193.999 24 301.999 72l50 -275c-124 -56 -263.333 -84 -418 -84c-86 0 -164.5 13.167 -235.5 39.5s-132 63 -183 110s-90.667 102.833 -119 167.5s-42.5 135 -42.5 211c0 80 14.833 152.5 44.5 217.5
s70.167 120.667 121.5 167s111.333 82 180 107s142 37.5 220 37.5c78.667 0 147.667 -13.167 207 -39.5s108.833 -62.333 148.5 -108s69.334 -99 89.001 -160s29.5 -126.167 29.5 -195.5c0 -9.33301 -0.333008 -18.333 -1 -27s-1.66699 -17 -3 -25l-614 -80
c16 -48 42.667 -82.5 80 -103.5s85.333 -31.5 144 -31.5zM773.999 664c-23.333 85.333 -75.333 128 -156 128c-25.333 0 -48 -5 -68 -15s-36.833 -23.833 -50.5 -41.5s-24.167 -38.667 -31.5 -63s-11.333 -50.5 -12 -78.5z" />
    <glyph glyph-name="Ebreve" unicode="&#x114;" horiz-adv-x="1218" 
d="M979 1911c0 -53.333 -8.66797 -101.5 -26.001 -144.5s-41.5 -79.667 -72.5 -110s-68 -53.833 -111 -70.5s-89.833 -25 -140.5 -25c-52 0 -99.667 8.5 -143 25.5s-80.5 41 -111.5 72s-55 68 -72 111s-25.5 90.167 -25.5 141.5h226c0 -36.667 11.833 -66.5 35.5 -89.5
s53.834 -34.5 90.501 -34.5s65.5 11.167 86.5 33.5s31.5 52.5 31.5 90.5h232zM133.999 1408h988v-310h-492v-256h450v-258h-450v-276h492v-308h-988v1408z" />
    <glyph glyph-name="ebreve" unicode="&#x115;" horiz-adv-x="1138" 
d="M969 1528c0 -53.333 -8.66797 -101.5 -26.001 -144.5s-41.5 -79.667 -72.5 -110s-68 -53.833 -111 -70.5s-89.833 -25 -140.5 -25c-52 0 -99.667 8.5 -143 25.5s-80.5 41 -111.5 72s-55 68 -72 111s-25.5 90.167 -25.5 141.5h226c0 -36.667 11.833 -66.5 35.5 -89.5
s53.834 -34.5 90.501 -34.5s65.5 11.167 86.5 33.5s31.5 52.5 31.5 90.5h232zM697.999 271c93.333 0 193.999 24 301.999 72l50 -275c-124 -56 -263.333 -84 -418 -84c-86 0 -164.5 13.167 -235.5 39.5s-132 63 -183 110s-90.667 102.833 -119 167.5s-42.5 135 -42.5 211
c0 80 14.833 152.5 44.5 217.5s70.167 120.667 121.5 167s111.333 82 180 107s142 37.5 220 37.5c78.667 0 147.667 -13.167 207 -39.5s108.833 -62.333 148.5 -108s69.334 -99 89.001 -160s29.5 -126.167 29.5 -195.5c0 -9.33301 -0.333008 -18.333 -1 -27
s-1.66699 -17 -3 -25l-614 -80c16 -48 42.667 -82.5 80 -103.5s85.333 -31.5 144 -31.5zM773.998 664c-23.333 85.333 -75.333 128 -156 128c-25.333 0 -48 -5 -68 -15s-36.833 -23.833 -50.5 -41.5s-24.167 -38.667 -31.5 -63s-11.333 -50.5 -12 -78.5z" />
    <glyph glyph-name="Edotaccent" unicode="&#x116;" horiz-adv-x="1218" 
d="M398 1769c0 30 6.5 57.665 19.5 82.998s30.167 47 51.5 65s45.833 32.167 73.5 42.5s56.167 15.5 85.5 15.5c30.667 0 60 -5.5 88 -16.5s52.5 -26 73.5 -45s37.667 -40.833 50 -65.5s18.5 -51 18.5 -79c0 -31.333 -6.5 -59.666 -19.5 -84.999
s-30.167 -47.166 -51.5 -65.499s-45.833 -32.5 -73.5 -42.5s-56.167 -15 -85.5 -15c-32 0 -62 5.33301 -90 16s-52.333 25.334 -73 44.001s-37 40.667 -49 66s-18 52.666 -18 81.999zM134 1408h988v-310h-492v-256h450v-258h-450v-276h492v-308h-988v1408z" />
    <glyph glyph-name="edotaccent" unicode="&#x117;" horiz-adv-x="1138" 
d="M388 1386c0 30 6.5 57.665 19.5 82.998s30.167 47 51.5 65s45.833 32.167 73.5 42.5s56.167 15.5 85.5 15.5c30.667 0 60 -5.5 88 -16.5s52.5 -26 73.5 -45s37.667 -40.833 50 -65.5s18.5 -51 18.5 -79c0 -31.333 -6.5 -59.666 -19.5 -84.999
s-30.167 -47.166 -51.5 -65.499s-45.833 -32.5 -73.5 -42.5s-56.167 -15 -85.5 -15c-32 0 -62 5.33301 -90 16s-52.333 25.334 -73 44.001s-37 40.667 -49 66s-18 52.666 -18 81.999zM698 270.998c93.333 0 193.999 24 301.999 72l50 -275c-124 -56 -263.333 -84 -418 -84
c-86 0 -164.5 13.167 -235.5 39.5s-132 63 -183 110s-90.667 102.833 -119 167.5s-42.5 135 -42.5 211c0 80 14.833 152.5 44.5 217.5s70.167 120.667 121.5 167s111.333 82 180 107s142 37.5 220 37.5c78.667 0 147.667 -13.167 207 -39.5s108.833 -62.333 148.5 -108
s69.334 -99 89.001 -160s29.5 -126.167 29.5 -195.5c0 -9.33301 -0.333008 -18.333 -1 -27s-1.66699 -17 -3 -25l-614 -80c16 -48 42.667 -82.5 80 -103.5s85.333 -31.5 144 -31.5zM773.999 663.998c-23.333 85.333 -75.333 128 -156 128c-25.333 0 -48 -5 -68 -15
s-36.833 -23.833 -50.5 -41.5s-24.167 -38.667 -31.5 -63s-11.333 -50.5 -12 -78.5z" />
    <glyph glyph-name="Eogonek" unicode="&#x118;" horiz-adv-x="1218" 
d="M676 -385c19.333 0 51.3311 4.66699 95.998 14l2 -76c-70.667 -29.333 -136.667 -44 -198 -44c-31.333 0 -60.666 3.66699 -87.999 11s-51 18.333 -71 33s-35.833 33 -47.5 55s-17.5 47.667 -17.5 77c0 24 5.16699 47 15.5 69s23.5 43 39.5 63s33.667 39 53 57l56 50
l57 48c13.333 11.333 24.666 20.333 33.999 27s16.333 12.667 21 18h112c-21.333 -44.667 -42.666 -85.667 -63.999 -123s-42.666 -71.333 -63.999 -102l-20 -31c-4 -5.33301 -8 -15.333 -12 -30s-6 -28.667 -6 -42c0 -49.333 34 -74 102 -74zM133.998 1408h988v-310h-492
v-256h450v-258h-450v-276h492v-308h-988v1408z" />
    <glyph glyph-name="eogonek" unicode="&#x119;" horiz-adv-x="1138" 
d="M624 -415c19.333 0 51.3311 4.66699 95.998 14l2 -76c-70.667 -29.333 -136.667 -44 -198 -44c-31.333 0 -60.666 3.66699 -87.999 11s-51 18.333 -71 33s-35.833 33 -47.5 55s-17.5 47.667 -17.5 77c0 24 5.16699 47 15.5 69s23.5 43 39.5 63s33.667 39 53 57l56 50
l57 48c13.333 11.333 24.666 20.333 33.999 27s16.333 12.667 21 18h112c-21.333 -44.667 -42.666 -85.667 -63.999 -123s-42.666 -71.333 -63.999 -102l-20 -31c-4 -5.33301 -8 -15.333 -12 -30s-6 -28.667 -6 -42c0 -49.333 34 -74 102 -74zM697.998 271
c93.333 0 193.999 24 301.999 72l50 -275c-124 -56 -263.333 -84 -418 -84c-86 0 -164.5 13.167 -235.5 39.5s-132 63 -183 110s-90.667 102.833 -119 167.5s-42.5 135 -42.5 211c0 80 14.833 152.5 44.5 217.5s70.167 120.667 121.5 167s111.333 82 180 107
s142 37.5 220 37.5c78.667 0 147.667 -13.167 207 -39.5s108.833 -62.333 148.5 -108s69.334 -99 89.001 -160s29.5 -126.167 29.5 -195.5c0 -9.33301 -0.333008 -18.333 -1 -27s-1.66699 -17 -3 -25l-614 -80c16 -48 42.667 -82.5 80 -103.5s85.333 -31.5 144 -31.5z
M773.997 664c-23.333 85.333 -75.333 128 -156 128c-25.333 0 -48 -5 -68 -15s-36.833 -23.833 -50.5 -41.5s-24.167 -38.667 -31.5 -63s-11.333 -50.5 -12 -78.5z" />
    <glyph glyph-name="Ecaron" unicode="&#x11a;" horiz-adv-x="1218" 
d="M187 2071l340 -0.000976562l78 -218l22 -80c5.33301 18 12.5 40.167 21.5 66.5l28.5 81.5l29 82c9.33301 26.667 17 49.334 23 68.001h340l-252 -510h-378zM134 1408h988v-310h-492v-256h450v-258h-450v-276h492v-308h-988v1408z" />
    <glyph glyph-name="ecaron" unicode="&#x11b;" horiz-adv-x="1138" 
d="M177 1688l340 -0.000976562l78 -218l22 -80c5.33301 18 12.5 40.167 21.5 66.5l28.5 81.5l29 82c9.33301 26.667 17 49.334 23 68.001h340l-252 -510h-378zM698 270.999c93.333 0 193.999 24 301.999 72l50 -275c-124 -56 -263.333 -84 -418 -84
c-86 0 -164.5 13.167 -235.5 39.5s-132 63 -183 110s-90.667 102.833 -119 167.5s-42.5 135 -42.5 211c0 80 14.833 152.5 44.5 217.5s70.167 120.667 121.5 167s111.333 82 180 107s142 37.5 220 37.5c78.667 0 147.667 -13.167 207 -39.5s108.833 -62.333 148.5 -108
s69.334 -99 89.001 -160s29.5 -126.167 29.5 -195.5c0 -9.33301 -0.333008 -18.333 -1 -27s-1.66699 -17 -3 -25l-614 -80c16 -48 42.667 -82.5 80 -103.5s85.333 -31.5 144 -31.5zM773.999 663.999c-23.333 85.333 -75.333 128 -156 128c-25.333 0 -48 -5 -68 -15
s-36.833 -23.833 -50.5 -41.5s-24.167 -38.667 -31.5 -63s-11.333 -50.5 -12 -78.5z" />
    <glyph glyph-name="Gcircumflex" unicode="&#x11c;" horiz-adv-x="1349" 
d="M578 2072h378l252 -510h-340l-78 218l-24 78l-22 -78l-78 -218h-340zM1105 1020c-118.667 38.667 -212 58.002 -280 58.002c-50 0 -94.167 -10.333 -132.5 -31s-70.5 -48 -96.5 -82s-45.667 -73.167 -59 -117.5s-20 -89.833 -20 -136.5c0 -52 7.5 -100.833 22.5 -146.5
s36 -85.334 63 -119.001s59.5 -60.334 97.5 -80.001s79.667 -29.5 125 -29.5c24.667 0 52 2 82 6v332l354 40v-640c-159.333 -70.667 -323.333 -106 -492 -106c-196 0 -363 72.667 -501 218c-138 146 -207 322.667 -207 530c0 202 70.333 373.333 211 514
c138.667 140 303.667 210 495 210c174.667 0 332.667 -34 474 -102z" />
    <glyph glyph-name="gcircumflex" unicode="&#x11d;" horiz-adv-x="1423" 
d="M527 1688h378l252 -510h-340l-78 218l-24 78l-22 -78l-78 -218h-340zM917 170c-79.333 -113.333 -202.001 -170 -368.001 -170c-66 0 -129 13 -189 39s-112.667 62.167 -158 108.5s-81.333 101.166 -108 164.499s-40 132.333 -40 207c0 78 13.833 149 41.5 213
s64.334 119 110.001 165s98.167 81.5 157.5 106.5s120.666 37.5 183.999 37.5c42 0 81.5 -5.66699 118.5 -17s70.167 -27.5 99.5 -48.5s54.5 -46.167 75.5 -75.5s36.5 -62 46.5 -98v239h432v-781c0 -112 -12.5 -213.167 -37.5 -303.5s-63.5 -167 -115.5 -230
s-118 -111.5 -198 -145.5s-175 -51 -285 -51c-32 0 -66 1.66699 -102 5s-74 8.33301 -114 15l32 306c66.667 -8 113.334 -12 140.001 -12c51.333 0 93.333 8.33301 126 25s59 39.5 79 68.5s35.333 63.333 46 103s19.667 82.834 27 129.501zM886.999 520
c-1.33301 26.667 -7.8291 51.833 -19.4961 75.5s-26.834 44.5 -45.501 62.5s-40 32.167 -64 42.5s-49 15.5 -75 15.5c-29.333 0 -56.5 -5.5 -81.5 -16.5s-46.5 -25.833 -64.5 -44.5s-32.167 -40.334 -42.5 -65.001s-15.5 -50.667 -15.5 -78
c0 -32.667 6.16699 -61.667 18.5 -87s28.333 -46.666 48 -63.999s41.667 -30.5 66 -39.5s48.166 -13.5 71.499 -13.5c27.333 0 53.166 5.33301 77.499 16s45.666 25 63.999 43s33 38.833 44 62.5s17.167 48.5 18.5 74.5v16z" />
    <glyph glyph-name="Gbreve" unicode="&#x11e;" horiz-adv-x="1349" 
d="M1118 1912c0 -53.333 -8.66797 -101.5 -26.001 -144.5s-41.5 -79.667 -72.5 -110s-68 -53.833 -111 -70.5s-89.833 -25 -140.5 -25c-52 0 -99.667 8.5 -143 25.5s-80.5 41 -111.5 72s-55 68 -72 111s-25.5 90.167 -25.5 141.5h226c0 -36.667 11.833 -66.5 35.5 -89.5
s53.834 -34.5 90.501 -34.5s65.5 11.167 86.5 33.5s31.5 52.5 31.5 90.5h232zM1105 1020c-118.667 38.667 -212 58.002 -280 58.002c-50 0 -94.167 -10.333 -132.5 -31s-70.5 -48 -96.5 -82s-45.667 -73.167 -59 -117.5s-20 -89.833 -20 -136.5
c0 -52 7.5 -100.833 22.5 -146.5s36 -85.334 63 -119.001s59.5 -60.334 97.5 -80.001s79.667 -29.5 125 -29.5c24.667 0 52 2 82 6v332l354 40v-640c-159.333 -70.667 -323.333 -106 -492 -106c-196 0 -363 72.667 -501 218c-138 146 -207 322.667 -207 530
c0 202 70.333 373.333 211 514c138.667 140 303.667 210 495 210c174.667 0 332.667 -34 474 -102z" />
    <glyph glyph-name="gbreve" unicode="&#x11f;" horiz-adv-x="1423" 
d="M1067 1528c0 -53.333 -8.66797 -101.5 -26.001 -144.5s-41.5 -79.667 -72.5 -110s-68 -53.833 -111 -70.5s-89.833 -25 -140.5 -25c-52 0 -99.667 8.5 -143 25.5s-80.5 41 -111.5 72s-55 68 -72 111s-25.5 90.167 -25.5 141.5h226c0 -36.667 11.833 -66.5 35.5 -89.5
s53.834 -34.5 90.501 -34.5s65.5 11.167 86.5 33.5s31.5 52.5 31.5 90.5h232zM916.999 170c-79.333 -113.333 -202.001 -170 -368.001 -170c-66 0 -129 13 -189 39s-112.667 62.167 -158 108.5s-81.333 101.166 -108 164.499s-40 132.333 -40 207c0 78 13.833 149 41.5 213
s64.334 119 110.001 165s98.167 81.5 157.5 106.5s120.666 37.5 183.999 37.5c42 0 81.5 -5.66699 118.5 -17s70.167 -27.5 99.5 -48.5s54.5 -46.167 75.5 -75.5s36.5 -62 46.5 -98v239h432v-781c0 -112 -12.5 -213.167 -37.5 -303.5s-63.5 -167 -115.5 -230
s-118 -111.5 -198 -145.5s-175 -51 -285 -51c-32 0 -66 1.66699 -102 5s-74 8.33301 -114 15l32 306c66.667 -8 113.334 -12 140.001 -12c51.333 0 93.333 8.33301 126 25s59 39.5 79 68.5s35.333 63.333 46 103s19.667 82.834 27 129.501zM886.998 520
c-1.33301 26.667 -7.8291 51.833 -19.4961 75.5s-26.834 44.5 -45.501 62.5s-40 32.167 -64 42.5s-49 15.5 -75 15.5c-29.333 0 -56.5 -5.5 -81.5 -16.5s-46.5 -25.833 -64.5 -44.5s-32.167 -40.334 -42.5 -65.001s-15.5 -50.667 -15.5 -78
c0 -32.667 6.16699 -61.667 18.5 -87s28.333 -46.666 48 -63.999s41.667 -30.5 66 -39.5s48.166 -13.5 71.499 -13.5c27.333 0 53.166 5.33301 77.499 16s45.666 25 63.999 43s33 38.833 44 62.5s17.167 48.5 18.5 74.5v16z" />
    <glyph glyph-name="Gdotaccent" unicode="&#x120;" horiz-adv-x="1349" 
d="M537 1770c0 30 6.5 57.665 19.5 82.998s30.167 47 51.5 65s45.833 32.167 73.5 42.5s56.167 15.5 85.5 15.5c30.667 0 60 -5.5 88 -16.5s52.5 -26 73.5 -45s37.667 -40.833 50 -65.5s18.5 -51 18.5 -79c0 -31.333 -6.5 -59.666 -19.5 -84.999
s-30.167 -47.166 -51.5 -65.499s-45.833 -32.5 -73.5 -42.5s-56.167 -15 -85.5 -15c-32 0 -62 5.33301 -90 16s-52.333 25.334 -73 44.001s-37 40.667 -49 66s-18 52.666 -18 81.999zM1105 1020c-118.667 38.667 -212 58.002 -280 58.002c-50 0 -94.167 -10.333 -132.5 -31
s-70.5 -48 -96.5 -82s-45.667 -73.167 -59 -117.5s-20 -89.833 -20 -136.5c0 -52 7.5 -100.833 22.5 -146.5s36 -85.334 63 -119.001s59.5 -60.334 97.5 -80.001s79.667 -29.5 125 -29.5c24.667 0 52 2 82 6v332l354 40v-640c-159.333 -70.667 -323.333 -106 -492 -106
c-196 0 -363 72.667 -501 218c-138 146 -207 322.667 -207 530c0 202 70.333 373.333 211 514c138.667 140 303.667 210 495 210c174.667 0 332.667 -34 474 -102z" />
    <glyph glyph-name="gdotaccent" unicode="&#x121;" horiz-adv-x="1423" 
d="M486 1386c0 30 6.5 57.665 19.5 82.998s30.167 47 51.5 65s45.833 32.167 73.5 42.5s56.167 15.5 85.5 15.5c30.667 0 60 -5.5 88 -16.5s52.5 -26 73.5 -45s37.667 -40.833 50 -65.5s18.5 -51 18.5 -79c0 -31.333 -6.5 -59.666 -19.5 -84.999
s-30.167 -47.166 -51.5 -65.499s-45.833 -32.5 -73.5 -42.5s-56.167 -15 -85.5 -15c-32 0 -62 5.33301 -90 16s-52.333 25.334 -73 44.001s-37 40.667 -49 66s-18 52.666 -18 81.999zM917 169.998c-79.333 -113.333 -202.001 -170 -368.001 -170c-66 0 -129 13 -189 39
s-112.667 62.167 -158 108.5s-81.333 101.166 -108 164.499s-40 132.333 -40 207c0 78 13.833 149 41.5 213s64.334 119 110.001 165s98.167 81.5 157.5 106.5s120.666 37.5 183.999 37.5c42 0 81.5 -5.66699 118.5 -17s70.167 -27.5 99.5 -48.5s54.5 -46.167 75.5 -75.5
s36.5 -62 46.5 -98v239h432v-781c0 -112 -12.5 -213.167 -37.5 -303.5s-63.5 -167 -115.5 -230s-118 -111.5 -198 -145.5s-175 -51 -285 -51c-32 0 -66 1.66699 -102 5s-74 8.33301 -114 15l32 306c66.667 -8 113.334 -12 140.001 -12c51.333 0 93.333 8.33301 126 25
s59 39.5 79 68.5s35.333 63.333 46 103s19.667 82.834 27 129.501zM886.999 519.998c-1.33301 26.667 -7.8291 51.833 -19.4961 75.5s-26.834 44.5 -45.501 62.5s-40 32.167 -64 42.5s-49 15.5 -75 15.5c-29.333 0 -56.5 -5.5 -81.5 -16.5s-46.5 -25.833 -64.5 -44.5
s-32.167 -40.334 -42.5 -65.001s-15.5 -50.667 -15.5 -78c0 -32.667 6.16699 -61.667 18.5 -87s28.333 -46.666 48 -63.999s41.667 -30.5 66 -39.5s48.166 -13.5 71.499 -13.5c27.333 0 53.166 5.33301 77.499 16s45.666 25 63.999 43s33 38.833 44 62.5
s17.167 48.5 18.5 74.5v16z" />
    <glyph glyph-name="Gcommaaccent" unicode="&#x122;" horiz-adv-x="1349" 
d="M559 -640c46 0 81.668 0.332031 107.001 0.999023s44.166 4.33398 56.499 11.001s19.833 17.167 22.5 31.5s4 35.166 4 62.499h-190v382h420l-4 -208c-1.33301 -73.333 -4 -137.166 -8 -191.499s-11 -100.833 -21 -139.5s-24 -70.167 -42 -94.5
s-42.167 -43.5 -72.5 -57.5s-67.833 -23.667 -112.5 -29s-98 -8 -160 -8v240zM1105 1020c-118.667 38.667 -212 58.002 -280 58.002c-50 0 -94.167 -10.333 -132.5 -31s-70.5 -48 -96.5 -82s-45.667 -73.167 -59 -117.5s-20 -89.833 -20 -136.5
c0 -52 7.5 -100.833 22.5 -146.5s36 -85.334 63 -119.001s59.5 -60.334 97.5 -80.001s79.667 -29.5 125 -29.5c24.667 0 52 2 82 6v332l354 40v-640c-159.333 -70.667 -323.333 -106 -492 -106c-196 0 -363 72.667 -501 218c-138 146 -207 322.667 -207 530
c0 202 70.333 373.333 211 514c138.667 140 303.667 210 495 210c174.667 0 332.667 -34 474 -102z" />
    <glyph glyph-name="gcommaaccent" unicode="&#x123;" horiz-adv-x="1423" 
d="M917 170c-79.333 -113.333 -202.001 -170 -368.001 -170c-66 0 -129 13 -189 39s-112.667 62.167 -158 108.5s-81.333 101.166 -108 164.499s-40 132.333 -40 207c0 78 13.833 149 41.5 213s64.334 119 110.001 165s98.167 81.5 157.5 106.5s120.666 37.5 183.999 37.5
c42 0 81.5 -5.66699 118.5 -17s70.167 -27.5 99.5 -48.5s54.5 -46.167 75.5 -75.5s36.5 -62 46.5 -98v239h432v-781c0 -112 -12.5 -213.167 -37.5 -303.5s-63.5 -167 -115.5 -230s-118 -111.5 -198 -145.5s-175 -51 -285 -51c-32 0 -66 1.66699 -102 5s-74 8.33301 -114 15
l32 306c66.667 -8 113.334 -12 140.001 -12c51.333 0 93.333 8.33301 126 25s59 39.5 79 68.5s35.333 63.333 46 103s19.667 82.834 27 129.501zM886.999 520c-1.33301 26.667 -7.8291 51.833 -19.4961 75.5s-26.834 44.5 -45.501 62.5s-40 32.167 -64 42.5
s-49 15.5 -75 15.5c-29.333 0 -56.5 -5.5 -81.5 -16.5s-46.5 -25.833 -64.5 -44.5s-32.167 -40.334 -42.5 -65.001s-15.5 -50.667 -15.5 -78c0 -32.667 6.16699 -61.667 18.5 -87s28.333 -46.666 48 -63.999s41.667 -30.5 66 -39.5s48.166 -13.5 71.499 -13.5
c27.333 0 53.166 5.33301 77.499 16s45.666 25 63.999 43s33 38.833 44 62.5s17.167 48.5 18.5 74.5v16zM650.003 1340c46 0 81.668 0.332031 107.001 0.999023s44.166 4.33398 56.499 11.001s19.833 17.167 22.5 31.5s4 35.166 4 62.499h-190v382h420l-4 -208
c-1.33301 -73.333 -4 -137.166 -8 -191.499s-11 -100.833 -21 -139.5s-24 -70.167 -42 -94.5s-42.167 -43.5 -72.5 -57.5s-67.833 -23.667 -112.5 -29s-98 -8 -160 -8v240z" />
    <glyph glyph-name="Hcircumflex" unicode="&#x124;" horiz-adv-x="1626" 
d="M624 2071h378l252 -510h-340l-78 218l-24 78l-22 -78l-78 -218h-340zM134 1408h460v-560h436v560h462v-1408h-462v552h-436v-552h-460v1408z" />
    <glyph glyph-name="hcircumflex" unicode="&#x125;" horiz-adv-x="1413" 
d="M523 2046h378l252 -510h-340l-78 218l-24 78l-22 -78l-78 -218h-340zM107 1350l432.001 63.998v-616c34.667 84.667 80.5 146.334 137.5 185.001s123.833 58 200.5 58c62 0 119.667 -12.5 173 -37.5s99.833 -60.333 139.5 -106s70.834 -100.5 93.501 -164.5
s34 -135 34 -213v-520h-430v512c0 26 -3.66699 51.333 -11 76s-17.333 46.5 -30 65.5s-27.834 34.167 -45.501 45.5s-36.834 17 -57.501 17c-29.333 0 -56.5 -5.83301 -81.5 -17.5s-46.5 -27.5 -64.5 -47.5s-32.167 -43.167 -42.5 -69.5s-15.5 -54.166 -15.5 -83.499v-498
h-432v1350z" />
    <glyph glyph-name="Hbar" unicode="&#x126;" horiz-adv-x="1647" 
d="M86 1152h58v224h460v-224h436v224h462v-224h60v-174h-60v-978h-462v552h-436v-552h-460v978h-58v174zM1040 848v130h-436v-130h436z" />
    <glyph glyph-name="hbar" unicode="&#x127;" horiz-adv-x="1413" 
d="M-15 1280h122.001v70l432 64v-134h214v-174h-214v-308c34.667 84 80.5 148 137.5 192s123.833 66 200.5 66c62 0 119.667 -13.333 173 -40s99.833 -63.834 139.5 -111.501s70.834 -104.167 93.501 -169.5s34 -137 34 -215v-520h-430v512c0 26 -3.66699 51.333 -11 76
s-17.333 46.5 -30 65.5s-27.834 34.167 -45.501 45.5s-36.834 17 -57.501 17c-29.333 0 -56.5 -5.83301 -81.5 -17.5s-46.5 -27.5 -64.5 -47.5s-32.167 -43.167 -42.5 -69.5s-15.5 -54.166 -15.5 -83.499v-498h-432v1106h-122v174z" />
    <glyph glyph-name="Itilde" unicode="&#x128;" horiz-adv-x="740" 
d="M226 1675c-15.333 0 -28.6641 -3.16797 -39.9971 -9.50098s-21.333 -14.666 -30 -24.999s-16 -22 -22 -35s-11.333 -25.833 -16 -38.5l-242 98c20.667 56.667 44 107 70 151s54.167 81.167 84.5 111.5s62.166 53.5 95.499 69.5s67.333 24 102 24
c20.667 0 41.5 -3.5 62.5 -10.5s37.167 -13.167 48.5 -18.5l47 -28c1.33301 -1.33301 3.66602 -3 6.99902 -5s7.33301 -4.66699 12 -8l43 -25c12 -6 24.167 -10.667 36.5 -14s26.166 -5 41.499 -5c46.667 0 80.667 30.667 102 92l240 -98
c-41.333 -118 -89.833 -204.167 -145.5 -258.5s-118.5 -81.5 -188.5 -81.5c-26 0 -49.167 2.83301 -69.5 8.5s-39.166 12.667 -56.499 21s-33.333 17.5 -48 27.5s-29.167 19.167 -43.5 27.5s-28.833 15.333 -43.5 21s-30.334 8.5 -47.001 8.5zM134.002 1408h472v-1408h-472
v1408z" />
    <glyph glyph-name="itilde" unicode="&#x129;" horiz-adv-x="748" 
d="M172 1292c-15.333 0 -28.6641 -3.16797 -39.9971 -9.50098s-21.333 -14.666 -30 -24.999s-16 -22 -22 -35s-11.333 -25.833 -16 -38.5l-242 98c20.667 56.667 44 107 70 151s54.167 81.167 84.5 111.5s62.166 53.5 95.499 69.5s67.333 24 102 24
c20.667 0 41.5 -3.5 62.5 -10.5s37.167 -13.167 48.5 -18.5l47 -28c1.33301 -1.33301 3.66602 -3 6.99902 -5s7.33301 -4.66699 12 -8l43 -25c12 -6 24.167 -10.667 36.5 -14s26.166 -5 41.499 -5c46.667 0 80.667 30.667 102 92l240 -98
c-41.333 -118 -89.833 -204.167 -145.5 -258.5s-118.5 -81.5 -188.5 -81.5c-26 0 -49.167 2.83301 -69.5 8.5s-39.166 12.667 -56.499 21s-33.333 17.5 -48 27.5s-29.167 19.167 -43.5 27.5s-28.833 15.333 -43.5 21s-30.334 8.5 -47.001 8.5zM731.002 37.999
c-80.667 -46.667 -170 -70.001 -268 -70.001c-58 0 -109.667 9.66699 -155 29s-83.5 46.833 -114.5 82.5s-54.5 78.834 -70.5 129.501s-24 107 -24 169v648h434v-628c0 -32.667 8.66699 -57.167 26 -73.5s39.333 -24.5 66 -24.5s54.667 8 84 24z" />
    <glyph glyph-name="Imacron" unicode="&#x12a;" horiz-adv-x="740" 
d="M95 1803h550v-242h-550v242zM134 1408h472v-1408h-472v1408z" />
    <glyph glyph-name="imacron" unicode="&#x12b;" horiz-adv-x="748" 
d="M43 1420h550v-242h-550v242zM731 38c-80.667 -46.667 -170 -70.001 -268 -70.001c-58 0 -109.667 9.66699 -155 29s-83.5 46.833 -114.5 82.5s-54.5 78.834 -70.5 129.501s-24 107 -24 169v648h434v-628c0 -32.667 8.66699 -57.167 26 -73.5s39.333 -24.5 66 -24.5
s54.667 8 84 24z" />
    <glyph glyph-name="Ibreve" unicode="&#x12c;" horiz-adv-x="740" 
d="M723 1911c0 -53.333 -8.66797 -101.5 -26.001 -144.5s-41.5 -79.667 -72.5 -110s-68 -53.833 -111 -70.5s-89.833 -25 -140.5 -25c-52 0 -99.667 8.5 -143 25.5s-80.5 41 -111.5 72s-55 68 -72 111s-25.5 90.167 -25.5 141.5h226c0 -36.667 11.833 -66.5 35.5 -89.5
s53.834 -34.5 90.501 -34.5s65.5 11.167 86.5 33.5s31.5 52.5 31.5 90.5h232zM133.999 1408h472v-1408h-472v1408z" />
    <glyph glyph-name="ibreve" unicode="&#x12d;" horiz-adv-x="748" 
d="M669 1528c0 -53.333 -8.66797 -101.5 -26.001 -144.5s-41.5 -79.667 -72.5 -110s-68 -53.833 -111 -70.5s-89.833 -25 -140.5 -25c-52 0 -99.667 8.5 -143 25.5s-80.5 41 -111.5 72s-55 68 -72 111s-25.5 90.167 -25.5 141.5h226c0 -36.667 11.833 -66.5 35.5 -89.5
s53.834 -34.5 90.501 -34.5s65.5 11.167 86.5 33.5s31.5 52.5 31.5 90.5h232zM730.999 38c-80.667 -46.667 -170 -70.001 -268 -70.001c-58 0 -109.667 9.66699 -155 29s-83.5 46.833 -114.5 82.5s-54.5 78.834 -70.5 129.501s-24 107 -24 169v648h434v-628
c0 -32.667 8.66699 -57.167 26 -73.5s39.333 -24.5 66 -24.5s54.667 8 84 24z" />
    <glyph glyph-name="Iogonek" unicode="&#x12e;" horiz-adv-x="740" 
d="M364 -385c19.333 0 51.3311 4.66699 95.998 14l2 -76c-70.667 -29.333 -136.667 -44 -198 -44c-31.333 0 -60.666 3.66699 -87.999 11s-51 18.333 -71 33s-35.833 33 -47.5 55s-17.5 47.667 -17.5 77c0 24 5.16699 47 15.5 69s23.5 43 39.5 63s33.667 39 53 57l56 50
l57 48c13.333 11.333 24.666 20.333 33.999 27s16.333 12.667 21 18h112c-21.333 -44.667 -42.666 -85.667 -63.999 -123s-42.666 -71.333 -63.999 -102l-20 -31c-4 -5.33301 -8 -15.333 -12 -30s-6 -28.667 -6 -42c0 -49.333 34 -74 102 -74zM133.998 1408h472v-1408h-472
v1408z" />
    <glyph glyph-name="iogonek" unicode="&#x12f;" horiz-adv-x="748" 
d="M455 -415c19.333 0 51.3311 4.66699 95.998 14l2 -76c-70.667 -29.333 -136.667 -44 -198 -44c-31.333 0 -60.666 3.66699 -87.999 11s-51 18.333 -71 33s-35.833 33 -47.5 55s-17.5 47.667 -17.5 77c0 24 5.16699 47 15.5 69s23.5 43 39.5 63s33.667 39 53 57l56 50
l57 48c13.333 11.333 24.666 20.333 33.999 27s16.333 12.667 21 18h112c-21.333 -44.667 -42.666 -85.667 -63.999 -123s-42.666 -71.333 -63.999 -102l-20 -31c-4 -5.33301 -8 -15.333 -12 -30s-6 -28.667 -6 -42c0 -49.333 34 -74 102 -74zM90.998 1366
c0 30 6.5 57.666 19.5 82.999s30.167 47.166 51.5 65.499s46 32.5 74 42.5s57 15 87 15c34.667 0 66.167 -6.16699 94.5 -18.5s52.5 -28.333 72.5 -48s35.5 -41.667 46.5 -66s16.5 -48.833 16.5 -73.5c0 -30.667 -6.33301 -58.667 -19 -84s-29.667 -47.166 -51 -65.499
s-45.833 -32.666 -73.5 -42.999s-56.5 -15.5 -86.5 -15.5c-32.667 0 -63.167 5.33301 -91.5 16s-52.833 25.5 -73.5 44.5s-37 41 -49 66s-18 52.167 -18 81.5zM730.998 53.999c-80.667 -46.667 -170 -70.001 -268 -70.001c-58 0 -109.667 9.66699 -155 29
s-83.5 46.833 -114.5 82.5s-54.5 78.834 -70.5 129.501s-24 107 -24 169v632h434v-612c0 -32.667 8.66699 -57.167 26 -73.5s39.333 -24.5 66 -24.5s54.667 8 84 24z" />
    <glyph glyph-name="Idotaccent" unicode="&#x130;" horiz-adv-x="740" 
d="M140 1769c0 30 6.5 57.665 19.5 82.998s30.167 47 51.5 65s45.833 32.167 73.5 42.5s56.167 15.5 85.5 15.5c30.667 0 60 -5.5 88 -16.5s52.5 -26 73.5 -45s37.667 -40.833 50 -65.5s18.5 -51 18.5 -79c0 -31.333 -6.5 -59.666 -19.5 -84.999
s-30.167 -47.166 -51.5 -65.499s-45.833 -32.5 -73.5 -42.5s-56.167 -15 -85.5 -15c-32 0 -62 5.33301 -90 16s-52.333 25.334 -73 44.001s-37 40.667 -49 66s-18 52.666 -18 81.999zM134 1408h472v-1408h-472v1408z" />
    <glyph glyph-name="dotlessi" unicode="&#x131;" horiz-adv-x="748" 
d="M731 38c-80.667 -46.667 -170 -70.001 -268 -70.001c-58 0 -109.667 9.66699 -155 29s-83.5 46.833 -114.5 82.5s-54.5 78.834 -70.5 129.501s-24 107 -24 169v648h434v-628c0 -32.667 8.66699 -57.167 26 -73.5s39.333 -24.5 66 -24.5s54.667 8 84 24z" />
    <glyph glyph-name="IJ" unicode="&#x132;" horiz-adv-x="1762" 
d="M134 1408h472v-1408h-472v1408zM1062 242c90.667 0 136 56.666 136 169.999v996h440v-996c0 -78.667 -10.667 -149.167 -32 -211.5s-51.833 -115.166 -91.5 -158.499s-88 -76.5 -145 -99.5s-120.833 -34.5 -191.5 -34.5c-126.667 0 -244 36 -352 108l96 254
c54 -18.667 100.667 -28 140 -28z" />
    <glyph glyph-name="ij" unicode="&#x133;" horiz-adv-x="646" 
d="M-29 -110c90.667 0 136 56.667 136 170v966h432v-966c0 -78 -10.5 -148 -31.5 -210s-51 -114.667 -90 -158s-86.5 -76.5 -142.5 -99.5s-119.333 -34.5 -190 -34.5c-125.333 0 -242 36 -350 108l94 254c62.667 -20 110 -30 142 -30zM85 1366
c0 29.333 6.5 56.6689 19.5 82.002s30.167 47.166 51.5 65.499s45.833 32.666 73.5 42.999s56.167 15.5 85.5 15.5c34.667 0 66.334 -6 95.001 -18s53.167 -27.833 73.5 -47.5s36 -41.834 47 -66.501s16.5 -49.334 16.5 -74.001c0 -30.667 -6.33301 -58.667 -19 -84
s-29.5 -47.166 -50.5 -65.499s-45.667 -32.666 -74 -42.999s-57.833 -15.5 -88.5 -15.5c-32.667 0 -63 5.5 -91 16.5s-52.333 26 -73 45s-36.834 41.167 -48.501 66.5s-17.5 52 -17.5 80z" />
    <glyph glyph-name="Jcircumflex" unicode="&#x134;" horiz-adv-x="934" 
d="M401 2071h378l252 -510h-340l-78 218l-24 78l-22 -78l-78 -218h-340zM234 242c90.667 0 136 56.666 136 169.999v996h440v-996c0 -78.667 -10.667 -149.167 -32 -211.5s-51.833 -115.166 -91.5 -158.499s-88 -76.5 -145 -99.5s-120.833 -34.5 -191.5 -34.5
c-126.667 0 -244 36 -352 108l96 254c54 -18.667 100.667 -28 140 -28z" />
    <glyph glyph-name="jcircumflex" unicode="&#x135;" horiz-adv-x="646" 
d="M136 1688h378l252 -510h-340l-78 218l-24 78l-22 -78l-78 -218h-340zM-29 -110c90.667 0 136 56.667 136 170v966h432v-966c0 -78 -10.5 -148 -31.5 -210s-51 -114.667 -90 -158s-86.5 -76.5 -142.5 -99.5s-119.333 -34.5 -190 -34.5c-125.333 0 -242 36 -350 108l94 254
c62.667 -20 110 -30 142 -30z" />
    <glyph glyph-name="Kcommaaccent" unicode="&#x136;" horiz-adv-x="1570" 
d="M631 -608c46 0 81.668 0.332031 107.001 0.999023s44.166 4.33398 56.499 11.001s19.833 17.167 22.5 31.5s4 35.166 4 62.499h-190v382h420l-4 -208c-1.33301 -73.333 -4 -137.166 -8 -191.499s-11 -100.833 -21 -139.5s-24 -70.167 -42 -94.5
s-42.167 -43.5 -72.5 -57.5s-67.833 -23.667 -112.5 -29s-98 -8 -160 -8v240zM134.001 1408h474v-574h148l272 574h474v-92l-324 -606l370 -618v-92h-498l-302 560h-140v-560h-474v1408z" />
    <glyph glyph-name="kcommaaccent" unicode="&#x137;" horiz-adv-x="1314" 
d="M462 -638c46 0 81.668 0.332031 107.001 0.999023s44.166 4.33398 56.499 11.001s19.833 17.167 22.5 31.5s4 35.166 4 62.499h-190v382h420l-4 -208c-1.33301 -73.333 -4 -137.166 -8 -191.499s-11 -100.833 -21 -139.5s-24 -70.167 -42 -94.5
s-42.167 -43.5 -72.5 -57.5s-67.833 -23.667 -112.5 -29s-98 -8 -160 -8v240zM973.001 591.999c14.667 -86.667 29.334 -145 44.001 -175c30.667 -68.667 84.667 -103 162 -103c19.333 0 48.666 4 87.999 12l-40 -336c-42 -4 -80 -6 -114 -6
c-73.333 0 -134.5 7.5 -183.5 22.5s-90.333 38.5 -124 70.5s-61.5 72.833 -83.5 122.5s-42.333 109.167 -61 178.5l-120 -96v-282h-434v1350l434 64v-702l526 430l236 -320z" />
    <glyph glyph-name="kgreenlandic" unicode="&#x138;" horiz-adv-x="1309" 
d="M1169 314c17.333 0 46.668 4 88.001 12l-32 -350c-40 -4 -77.333 -6 -112 -6c-72 0 -132.667 7.83301 -182 23.5s-91 39.5 -125 71.5s-62.333 72.333 -85 121s-43.334 106 -62.001 172l-120 -96v-262h-432v1024h432v-332l386 332h220l148 -176l-342 -276l12 -59l15 -52
c6 -20 13.667 -39 23 -57s21.5 -33.667 36.5 -47s33.167 -23.833 54.5 -31.5s47 -11.5 77 -11.5z" />
    <glyph glyph-name="Lacute" unicode="&#x139;" horiz-adv-x="1102" 
d="M145 1781l600 420l208 -366l-682 -274zM134 1408h442v-1106h488v-302h-930v1408z" />
    <glyph glyph-name="lacute" unicode="&#x13a;" horiz-adv-x="774" 
d="M102 1756l600 420l208 -366l-682 -274zM771 54c-92.667 -46.667 -195.333 -69.998 -308 -69.998c-58 0 -109.667 9.5 -155 28.5s-83.5 46.333 -114.5 82s-54.5 78.667 -70.5 129s-24 107.166 -24 170.499v956l432 64v-990c0 -36.667 11.667 -63.834 35 -81.501
s55 -26.5 95 -26.5c30.667 0 62 8 94 24z" />
    <glyph glyph-name="Lcommaaccent" unicode="&#x13b;" horiz-adv-x="1102" 
d="M389 -608c46 0 81.668 0.332031 107.001 0.999023s44.166 4.33398 56.499 11.001s19.833 17.167 22.5 31.5s4 35.166 4 62.499h-190v382h420l-4 -208c-1.33301 -73.333 -4 -137.166 -8 -191.499s-11 -100.833 -21 -139.5s-24 -70.167 -42 -94.5
s-42.167 -43.5 -72.5 -57.5s-67.833 -23.667 -112.5 -29s-98 -8 -160 -8v240zM134.001 1408h442v-1106h488v-302h-930v1408z" />
    <glyph glyph-name="lcommaaccent" unicode="&#x13c;" horiz-adv-x="774" 
d="M253 -640c46 0 81.668 0.332031 107.001 0.999023s44.166 4.33398 56.499 11.001s19.833 17.167 22.5 31.5s4 35.166 4 62.499h-190v382h420l-4 -208c-1.33301 -73.333 -4 -137.166 -8 -191.499s-11 -100.833 -21 -139.5s-24 -70.167 -42 -94.5
s-42.167 -43.5 -72.5 -57.5s-67.833 -23.667 -112.5 -29s-98 -8 -160 -8v240zM771.001 53.999c-92.667 -46.667 -195.333 -69.998 -308 -69.998c-58 0 -109.667 9.5 -155 28.5s-83.5 46.333 -114.5 82s-54.5 78.667 -70.5 129s-24 107.166 -24 170.499v956l432 64v-990
c0 -36.667 11.667 -63.834 35 -81.501s55 -26.5 95 -26.5c30.667 0 62 8 94 24z" />
    <glyph glyph-name="Lcaron" unicode="&#x13d;" horiz-adv-x="1102" 
d="M1247 951c46 0 81.668 0.332031 107.001 0.999023s44.166 4.33398 56.499 11.001s19.833 17.167 22.5 31.5s4 35.166 4 62.499h-190v382h420l-4 -208c-1.33301 -73.333 -4 -137.166 -8 -191.499s-11 -100.833 -21 -139.5s-24 -70.167 -42 -94.5
s-42.167 -43.5 -72.5 -57.5s-67.833 -23.667 -112.5 -29s-98 -8 -160 -8v240zM134.001 1408h442v-1106h488v-302h-930v1408z" />
    <glyph glyph-name="lcaron" unicode="&#x13e;" horiz-adv-x="774" 
d="M714 926c46 0 81.668 0.332031 107.001 0.999023s44.166 4.33398 56.499 11.001s19.833 17.167 22.5 31.5s4 35.166 4 62.499h-190v382h420l-4 -208c-1.33301 -73.333 -4 -137.166 -8 -191.499s-11 -100.833 -21 -139.5s-24 -70.167 -42 -94.5s-42.167 -43.5 -72.5 -57.5
s-67.833 -23.667 -112.5 -29s-98 -8 -160 -8v240zM771.001 53.999c-92.667 -46.667 -195.333 -69.998 -308 -69.998c-58 0 -109.667 9.5 -155 28.5s-83.5 46.333 -114.5 82s-54.5 78.667 -70.5 129s-24 107.166 -24 170.499v956l432 64v-990
c0 -36.667 11.667 -63.834 35 -81.501s55 -26.5 95 -26.5c30.667 0 62 8 94 24z" />
    <glyph glyph-name="Ldot" unicode="&#x13f;" horiz-adv-x="1102" 
d="M603 720c0 29.333 6.33301 56.665 19 81.998s29.667 47.333 51 66s45.833 33.334 73.5 44.001s56.5 16 86.5 16c32 0 61.833 -5.66699 89.5 -17s52 -26.666 73 -45.999s37.5 -41.5 49.5 -66.5s18 -51.167 18 -78.5c0 -30.667 -6.5 -58.667 -19.5 -84
s-30.167 -47 -51.5 -65s-45.833 -32 -73.5 -42s-56.167 -15 -85.5 -15c-32 0 -61.833 5.33301 -89.5 16s-52 25.167 -73 43.5s-37.5 40 -49.5 65s-18 52.167 -18 81.5zM134 1408h442v-1106h488v-302h-930v1408z" />
    <glyph glyph-name="ldot" unicode="&#x140;" horiz-adv-x="1404" 
d="M860 820c0 29.333 6.33301 56.665 19 81.998s29.667 47.333 51 66s45.833 33.334 73.5 44.001s56.5 16 86.5 16c32 0 61.833 -5.66699 89.5 -17s52 -26.666 73 -45.999s37.5 -41.5 49.5 -66.5s18 -51.167 18 -78.5c0 -30.667 -6.5 -58.667 -19.5 -84
s-30.167 -47 -51.5 -65s-45.833 -32 -73.5 -42s-56.167 -15 -85.5 -15c-32 0 -61.833 5.33301 -89.5 16s-52 25.167 -73 43.5s-37.5 40 -49.5 65s-18 52.167 -18 81.5zM771 53.999c-92.667 -46.667 -195.333 -69.998 -308 -69.998c-58 0 -109.667 9.5 -155 28.5
s-83.5 46.333 -114.5 82s-54.5 78.667 -70.5 129s-24 107.166 -24 170.499v956l432 64v-990c0 -36.667 11.667 -63.834 35 -81.501s55 -26.5 95 -26.5c30.667 0 62 8 94 24z" />
    <glyph glyph-name="Lslash" unicode="&#x141;" horiz-adv-x="1156" 
d="M6 788l184 47v573h440v-461l306 79v-174l-306 -79v-471h490v-302h-930v661l-184 -47v174z" />
    <glyph glyph-name="lslash" unicode="&#x142;" horiz-adv-x="863" 
d="M828 38c-88.667 -46.667 -181.333 -70.001 -278 -70.001c-58 0 -109.333 9.66699 -154 29s-82.5 46.833 -113.5 82.5s-54.5 78.834 -70.5 129.501s-24 107 -24 169v288l-172 -52v174l172 52v510l432 64v-442l176 54v-174l-176 -54v-390c0 -72 32.667 -108 98 -108
c28.667 0 58 8 88 24z" />
    <glyph glyph-name="Nacute" unicode="&#x143;" horiz-adv-x="1606" 
d="M441 1781l600 420l208 -366l-682 -274zM134 1408h410l562 -758v758h366v-1408h-410l-564 734v-734h-364v1408z" />
    <glyph glyph-name="nacute" unicode="&#x144;" horiz-adv-x="1407" 
d="M580 1398l600 420l208 -366l-682 -274zM102 1011l411.998 -0.00195312v-209c40 80.667 91.5 140.667 154.5 180s136.833 59 221.5 59c68 0 128 -12.667 180 -38s95.833 -61.166 131.5 -107.499s62.667 -102 81 -167s27.5 -137.167 27.5 -216.5v-512h-430v554
c0 26.667 -2.5 51.334 -7.5 74.001s-13 42.167 -24 58.5s-24.833 29 -41.5 38s-37 13.5 -61 13.5c-29.333 0 -56.333 -7.16699 -81 -21.5s-46.167 -31.833 -64.5 -52.5s-33.166 -42.167 -44.499 -64.5s-18.666 -41.5 -21.999 -57.5v-542h-432v1011z" />
    <glyph glyph-name="Ncommaaccent" unicode="&#x145;" horiz-adv-x="1606" 
d="M593 -608c46 0 81.668 0.332031 107.001 0.999023s44.166 4.33398 56.499 11.001s19.833 17.167 22.5 31.5s4 35.166 4 62.499h-190v382h420l-4 -208c-1.33301 -73.333 -4 -137.166 -8 -191.499s-11 -100.833 -21 -139.5s-24 -70.167 -42 -94.5
s-42.167 -43.5 -72.5 -57.5s-67.833 -23.667 -112.5 -29s-98 -8 -160 -8v240zM134.001 1408h410l562 -758v758h366v-1408h-410l-564 734v-734h-364v1408z" />
    <glyph glyph-name="ncommaaccent" unicode="&#x146;" horiz-adv-x="1407" 
d="M496 -608c46 0 81.668 0.332031 107.001 0.999023s44.166 4.33398 56.499 11.001s19.833 17.167 22.5 31.5s4 35.166 4 62.499h-190v382h420l-4 -208c-1.33301 -73.333 -4 -137.166 -8 -191.499s-11 -100.833 -21 -139.5s-24 -70.167 -42 -94.5
s-42.167 -43.5 -72.5 -57.5s-67.833 -23.667 -112.5 -29s-98 -8 -160 -8v240zM102.001 1011l411.998 -0.00195312v-209c40 80.667 91.5 140.667 154.5 180s136.833 59 221.5 59c68 0 128 -12.667 180 -38s95.833 -61.166 131.5 -107.499s62.667 -102 81 -167
s27.5 -137.167 27.5 -216.5v-512h-430v554c0 26.667 -2.5 51.334 -7.5 74.001s-13 42.167 -24 58.5s-24.833 29 -41.5 38s-37 13.5 -61 13.5c-29.333 0 -56.333 -7.16699 -81 -21.5s-46.167 -31.833 -64.5 -52.5s-33.166 -42.167 -44.499 -64.5s-18.666 -41.5 -21.999 -57.5
v-542h-432v1011z" />
    <glyph glyph-name="Ncaron" unicode="&#x147;" horiz-adv-x="1606" 
d="M362 2071l340 -0.000976562l78 -218l22 -80c5.33301 18 12.5 40.167 21.5 66.5l28.5 81.5l29 82c9.33301 26.667 17 49.334 23 68.001h340l-252 -510h-378zM134 1408h410l562 -758v758h366v-1408h-410l-564 734v-734h-364v1408z" />
    <glyph glyph-name="ncaron" unicode="&#x148;" horiz-adv-x="1407" 
d="M265 1688l340 -0.000976562l78 -218l22 -80c5.33301 18 12.5 40.167 21.5 66.5l28.5 81.5l29 82c9.33301 26.667 17 49.334 23 68.001h340l-252 -510h-378zM102 1011l411.998 -0.00195312v-209c40 80.667 91.5 140.667 154.5 180s136.833 59 221.5 59
c68 0 128 -12.667 180 -38s95.833 -61.166 131.5 -107.499s62.667 -102 81 -167s27.5 -137.167 27.5 -216.5v-512h-430v554c0 26.667 -2.5 51.334 -7.5 74.001s-13 42.167 -24 58.5s-24.833 29 -41.5 38s-37 13.5 -61 13.5c-29.333 0 -56.333 -7.16699 -81 -21.5
s-46.167 -31.833 -64.5 -52.5s-33.166 -42.167 -44.499 -64.5s-18.666 -41.5 -21.999 -57.5v-542h-432v1011z" />
    <glyph glyph-name="napostrophe" unicode="&#x149;" horiz-adv-x="1406" 
d="M102 1011l411.998 -0.00195312v-209c40 80.667 91.5 140.667 154.5 180s136.833 59 221.5 59c68 0 128 -12.667 180 -38s95.833 -61.166 131.5 -107.499s62.667 -102 81 -167s27.5 -137.167 27.5 -216.5v-512h-430v554c0 26.667 -2.5 51.334 -7.5 74.001
s-13 42.167 -24 58.5s-24.833 29 -41.5 38s-37 13.5 -61 13.5c-29.333 0 -56.333 -7.16699 -81 -21.5s-46.167 -31.833 -64.5 -52.5s-33.166 -42.167 -44.499 -64.5s-18.666 -41.5 -21.999 -57.5v-542h-432v1011zM101.998 1356c46 0 81.668 0.332031 107.001 0.999023
s44.166 4.33398 56.499 11.001s19.833 17.167 22.5 31.5s4 35.166 4 62.499h-190v382h420l-4 -208c-1.33301 -73.333 -4 -137.166 -8 -191.499s-11 -100.833 -21 -139.5s-24 -70.167 -42 -94.5s-42.167 -43.5 -72.5 -57.5s-67.833 -23.667 -112.5 -29s-98 -8 -160 -8v240z
" />
    <glyph glyph-name="Eng" unicode="&#x14a;" horiz-adv-x="1606" 
d="M832 -172c62.667 -20 110 -30 142 -30c89.333 0 134 56.667 134 170l-610 766v-734h-364v1376h410l562 -726v726h366v-1408c0 -70 -8.66699 -134.167 -26 -192.5s-42.5 -108.5 -75.5 -150.5s-73.333 -74.667 -121 -98s-101.5 -35 -161.5 -35
c-101.333 0 -218 27.333 -350 82z" />
    <glyph glyph-name="eng" unicode="&#x14b;" horiz-adv-x="1406" 
d="M742 -170c92 0 138.003 56.665 138.003 169.998v512c0 26 -3.66699 51.333 -11 76s-17.333 46.5 -30 65.5s-27.834 34.167 -45.501 45.5s-36.834 17 -57.501 17c-28 0 -54.167 -5.33301 -78.5 -16s-45.5 -25 -63.5 -43s-32.333 -38.833 -43 -62.5
s-16.334 -48.5 -17.001 -74.5v-520h-432v990l432 66v-254c36 80 84.167 142.333 144.5 187s130.833 67 211.5 67c60 0 115.667 -14 167 -42s95.833 -66.5 133.5 -115.5s67 -106.5 88 -172.5s31.5 -137.333 31.5 -214v-512c0 -78 -10.167 -148.167 -30.5 -210.5
s-50 -115.166 -89 -158.499s-86.5 -76.666 -142.5 -99.999s-119.333 -35 -190 -35c-125.333 0 -242 36 -350 108l94 254c54 -18.667 100.667 -28 140 -28z" />
    <glyph glyph-name="Omacron" unicode="&#x14c;" 
d="M543 1803h550v-242h-550v242zM64 702c0 203.333 64.666 374.665 193.999 513.998c138 148.667 324.667 223 560 223c114.667 0 218.334 -18.5 311.001 -55.5s171.667 -88.167 237 -153.5s115.666 -143.166 150.999 -233.499s53 -188.5 53 -294.5
c0 -64 -7.33301 -126.667 -22 -188s-36.5 -119.166 -65.5 -173.499s-64.833 -104.333 -107.5 -150s-91.834 -85 -147.501 -118s-117.667 -58.667 -186 -77s-142.833 -27.5 -223.5 -27.5c-82.667 0 -158.5 9.33301 -227.5 28s-131.5 44.667 -187.5 78s-105.167 73 -147.5 119
s-77.666 96.167 -105.999 150.5s-49.666 111.833 -63.999 172.5s-21.5 122.667 -21.5 186zM817.999 339.999c52.667 0 97.498 11.168 134.498 33.501s67.333 51 91 86s41 74.167 52 117.5s16.5 85.666 16.5 126.999c0 54 -6.83301 103.5 -20.5 148.5s-33.334 84 -59.001 117
s-56.667 59.167 -93 78.5s-76.833 30 -121.5 32c-53.333 -1.33301 -98.666 -13.333 -135.999 -36s-67.833 -51.834 -91.5 -87.501s-41 -75.667 -52 -120s-16.5 -88.5 -16.5 -132.5c0 -52 6.83301 -100.167 20.5 -144.5s33.334 -82.666 59.001 -114.999
s56.834 -57.833 93.501 -76.5s77.667 -28 123 -28z" />
    <glyph glyph-name="omacron" unicode="&#x14d;" horiz-adv-x="1284" 
d="M369 1420h550v-242h-550v242zM452 514c0 -37.333 5.5 -70 16.5 -98s25.5 -51.333 43.5 -70s38.667 -32.667 62 -42s47 -14 71 -14s47.5 4.66699 70.5 14s43.667 23.333 62 42s33 42 44 70s16.5 60.667 16.5 98s-5.5 70 -16.5 98s-25.667 51.167 -44 69.5
s-39 32.166 -62 41.499s-46.5 14 -70.5 14s-47.667 -4.66699 -71 -14s-44 -23.166 -62 -41.499s-32.5 -41.5 -43.5 -69.5s-16.5 -60.667 -16.5 -98zM52 514c3.33301 86 21.1699 161.666 53.5029 226.999s75.166 120.333 128.499 165s115.166 78.334 185.499 101.001
s145.166 34 224.499 34c86.667 0 166 -13 238 -39s134 -62.167 186 -108.5s92.333 -101.833 121 -166.5s43 -135.667 43 -213c0 -62.667 -8.16699 -119.334 -24.5 -170.001s-38.5 -95.5 -66.5 -134.5s-61 -72.833 -99 -101.5s-79 -52.167 -123 -70.5
s-89.5 -31.833 -136.5 -40.5s-93.833 -13 -140.5 -13c-88 0 -168.167 12.833 -240.5 38.5s-134.5 61.834 -186.5 108.501s-92.167 102.5 -120.5 167.5s-42.5 136.833 -42.5 215.5z" />
    <glyph glyph-name="Obreve" unicode="&#x14e;" 
d="M1169 1911c0 -53.333 -8.66797 -101.5 -26.001 -144.5s-41.5 -79.667 -72.5 -110s-68 -53.833 -111 -70.5s-89.833 -25 -140.5 -25c-52 0 -99.667 8.5 -143 25.5s-80.5 41 -111.5 72s-55 68 -72 111s-25.5 90.167 -25.5 141.5h226c0 -36.667 11.833 -66.5 35.5 -89.5
s53.834 -34.5 90.501 -34.5s65.5 11.167 86.5 33.5s31.5 52.5 31.5 90.5h232zM63.999 702c0 203.333 64.666 374.665 193.999 513.998c138 148.667 324.667 223 560 223c114.667 0 218.334 -18.5 311.001 -55.5s171.667 -88.167 237 -153.5
s115.666 -143.166 150.999 -233.499s53 -188.5 53 -294.5c0 -64 -7.33301 -126.667 -22 -188s-36.5 -119.166 -65.5 -173.499s-64.833 -104.333 -107.5 -150s-91.834 -85 -147.501 -118s-117.667 -58.667 -186 -77s-142.833 -27.5 -223.5 -27.5
c-82.667 0 -158.5 9.33301 -227.5 28s-131.5 44.667 -187.5 78s-105.167 73 -147.5 119s-77.666 96.167 -105.999 150.5s-49.666 111.833 -63.999 172.5s-21.5 122.667 -21.5 186zM817.998 339.999c52.667 0 97.498 11.168 134.498 33.501s67.333 51 91 86
s41 74.167 52 117.5s16.5 85.666 16.5 126.999c0 54 -6.83301 103.5 -20.5 148.5s-33.334 84 -59.001 117s-56.667 59.167 -93 78.5s-76.833 30 -121.5 32c-53.333 -1.33301 -98.666 -13.333 -135.999 -36s-67.833 -51.834 -91.5 -87.501s-41 -75.667 -52 -120
s-16.5 -88.5 -16.5 -132.5c0 -52 6.83301 -100.167 20.5 -144.5s33.334 -82.666 59.001 -114.999s56.834 -57.833 93.501 -76.5s77.667 -28 123 -28z" />
    <glyph glyph-name="obreve" unicode="&#x14f;" horiz-adv-x="1284" 
d="M995 1528c0 -53.333 -8.66797 -101.5 -26.001 -144.5s-41.5 -79.667 -72.5 -110s-68 -53.833 -111 -70.5s-89.833 -25 -140.5 -25c-52 0 -99.667 8.5 -143 25.5s-80.5 41 -111.5 72s-55 68 -72 111s-25.5 90.167 -25.5 141.5h226c0 -36.667 11.833 -66.5 35.5 -89.5
s53.834 -34.5 90.501 -34.5s65.5 11.167 86.5 33.5s31.5 52.5 31.5 90.5h232zM451.999 514c0 -37.333 5.5 -70 16.5 -98s25.5 -51.333 43.5 -70s38.667 -32.667 62 -42s47 -14 71 -14s47.5 4.66699 70.5 14s43.667 23.333 62 42s33 42 44 70s16.5 60.667 16.5 98
s-5.5 70 -16.5 98s-25.667 51.167 -44 69.5s-39 32.166 -62 41.499s-46.5 14 -70.5 14s-47.667 -4.66699 -71 -14s-44 -23.166 -62 -41.499s-32.5 -41.5 -43.5 -69.5s-16.5 -60.667 -16.5 -98zM51.999 514c3.33301 86 21.1699 161.666 53.5029 226.999
s75.166 120.333 128.499 165s115.166 78.334 185.499 101.001s145.166 34 224.499 34c86.667 0 166 -13 238 -39s134 -62.167 186 -108.5s92.333 -101.833 121 -166.5s43 -135.667 43 -213c0 -62.667 -8.16699 -119.334 -24.5 -170.001s-38.5 -95.5 -66.5 -134.5
s-61 -72.833 -99 -101.5s-79 -52.167 -123 -70.5s-89.5 -31.833 -136.5 -40.5s-93.833 -13 -140.5 -13c-88 0 -168.167 12.833 -240.5 38.5s-134.5 61.834 -186.5 108.501s-92.167 102.5 -120.5 167.5s-42.5 136.833 -42.5 215.5z" />
    <glyph glyph-name="Ohungarumlaut" unicode="&#x150;" 
d="M488 2351l400 -118l-300 -670l-244 70zM1090 2355l374 -188l-416 -606l-226 112zM64 702c0 203.333 64.666 374.665 193.999 513.998c138 148.667 324.667 223 560 223c114.667 0 218.334 -18.5 311.001 -55.5s171.667 -88.167 237 -153.5
s115.666 -143.166 150.999 -233.499s53 -188.5 53 -294.5c0 -64 -7.33301 -126.667 -22 -188s-36.5 -119.166 -65.5 -173.499s-64.833 -104.333 -107.5 -150s-91.834 -85 -147.501 -118s-117.667 -58.667 -186 -77s-142.833 -27.5 -223.5 -27.5
c-82.667 0 -158.5 9.33301 -227.5 28s-131.5 44.667 -187.5 78s-105.167 73 -147.5 119s-77.666 96.167 -105.999 150.5s-49.666 111.833 -63.999 172.5s-21.5 122.667 -21.5 186zM817.999 339.999c52.667 0 97.498 11.168 134.498 33.501s67.333 51 91 86
s41 74.167 52 117.5s16.5 85.666 16.5 126.999c0 54 -6.83301 103.5 -20.5 148.5s-33.334 84 -59.001 117s-56.667 59.167 -93 78.5s-76.833 30 -121.5 32c-53.333 -1.33301 -98.666 -13.333 -135.999 -36s-67.833 -51.834 -91.5 -87.501s-41 -75.667 -52 -120
s-16.5 -88.5 -16.5 -132.5c0 -52 6.83301 -100.167 20.5 -144.5s33.334 -82.666 59.001 -114.999s56.834 -57.833 93.501 -76.5s77.667 -28 123 -28z" />
    <glyph glyph-name="ohungarumlaut" unicode="&#x151;" horiz-adv-x="1284" 
d="M314 1970l400 -118l-300 -670l-244 70zM916 1974l374 -188l-416 -606l-226 112zM452 514c0 -37.333 5.5 -70 16.5 -98s25.5 -51.333 43.5 -70s38.667 -32.667 62 -42s47 -14 71 -14s47.5 4.66699 70.5 14s43.667 23.333 62 42s33 42 44 70s16.5 60.667 16.5 98
s-5.5 70 -16.5 98s-25.667 51.167 -44 69.5s-39 32.166 -62 41.499s-46.5 14 -70.5 14s-47.667 -4.66699 -71 -14s-44 -23.166 -62 -41.499s-32.5 -41.5 -43.5 -69.5s-16.5 -60.667 -16.5 -98zM52 514c3.33301 86 21.1699 161.666 53.5029 226.999
s75.166 120.333 128.499 165s115.166 78.334 185.499 101.001s145.166 34 224.499 34c86.667 0 166 -13 238 -39s134 -62.167 186 -108.5s92.333 -101.833 121 -166.5s43 -135.667 43 -213c0 -62.667 -8.16699 -119.334 -24.5 -170.001s-38.5 -95.5 -66.5 -134.5
s-61 -72.833 -99 -101.5s-79 -52.167 -123 -70.5s-89.5 -31.833 -136.5 -40.5s-93.833 -13 -140.5 -13c-88 0 -168.167 12.833 -240.5 38.5s-134.5 61.834 -186.5 108.501s-92.167 102.5 -120.5 167.5s-42.5 136.833 -42.5 215.5z" />
    <glyph glyph-name="OE" unicode="&#x152;" horiz-adv-x="2098" 
d="M712 1414c29.333 0 57 -2.17188 83 -6.50488s51.333 -10.666 76 -18.999s49.167 -18.833 73.5 -31.5s49.5 -27 75.5 -43v62h980v-310h-492v-224h450v-258h-450v-276h492v-308h-986v60c-117.333 -61.333 -223.333 -92 -318 -92c-194 0 -350.667 77.667 -470 233
c-108 140.667 -162 304.334 -162 491.001c0 56 6.83301 112.833 20.5 170.5s33.5 113.334 59.5 167.001s57.833 103.834 95.5 150.501s80.5 87.334 128.5 122.001s100.833 62 158.5 82s119.5 30 185.5 30zM748 337.995c100 0 188.668 9.99902 266.001 29.999v650
c-96.667 21.333 -185.334 32 -266.001 32c-33.333 0 -63.833 -8.66699 -91.5 -26s-51.5 -41.5 -71.5 -72.5s-35.5 -68.5 -46.5 -112.5s-16.5 -92.333 -16.5 -145c0 -48 4.5 -93.5 13.5 -136.5s22.833 -80.667 41.5 -113s42.167 -58.166 70.5 -77.499s61.833 -29 100.5 -29z
" />
    <glyph glyph-name="oe" unicode="&#x153;" horiz-adv-x="1894" 
d="M1454 262c19.333 0 38.5 1.16504 57.5 3.49805s38.5 5.5 58.5 9.5c22.667 4.66699 40.667 8.66699 54 12s26 6.83301 38 10.5s24.833 8.33398 38.5 14.001l55.5 22.5l50 -282c-124 -56 -264 -84 -420 -84c-147.333 0 -273.333 55.333 -378 166
c-100.667 -110.667 -222.667 -166 -366 -166c-88 0 -168.167 13.667 -240.5 41s-134.5 65.333 -186.5 114s-92.167 106.334 -120.5 173.001s-42.5 139.334 -42.5 218.001c0 88.667 16.667 166.5 50 233.5s78.333 123.833 135 170.5c48.667 40 107.667 73 177 99
s146 39 230 39c137.333 0 258.666 -48.667 363.999 -146c105.333 97.333 227.333 146 366 146c70.667 0 135.167 -12.333 193.5 -37s108.333 -59.5 150 -104.5s73.834 -99.5 96.501 -163.5s34 -135 34 -213c0 -9.33301 -0.333008 -18.333 -1 -27s-1.66699 -17 -3 -25
l-616 -80c17.333 -48.667 43.833 -84.834 79.5 -108.501s84.5 -35.5 146.5 -35.5zM644 309.998c30.667 0 57.5 6.83105 80.5 20.498s42.167 30.834 57.5 51.501s26.833 42.834 34.5 66.501s11.5 45.5 11.5 65.5c0 28 -5 54.333 -15 79s-23.333 46.334 -40 65.001
s-36.167 33.334 -58.5 44.001s-45.833 16 -70.5 16c-27.333 0 -52.333 -5.5 -75 -16.5s-42 -26 -58 -45s-28.5 -40.833 -37.5 -65.5s-13.5 -50.334 -13.5 -77.001c0 -28.667 4.83301 -55.334 14.5 -80.001s23 -46.167 40 -64.5s36.5 -32.833 58.5 -43.5s45.667 -16 71 -16z
M1530 663.996c-23.333 85.333 -75.335 128 -156.002 128c-26 0 -48.833 -5 -68.5 -15s-36.167 -24 -49.5 -42s-23.666 -39 -30.999 -63s-11.666 -50 -12.999 -78z" />
    <glyph glyph-name="Racute" unicode="&#x154;" horiz-adv-x="1429" 
d="M321 1781l600 420l208 -366l-682 -274zM1389 4c-87.333 -24 -150.334 -36 -189.001 -36c-247.333 0 -402.666 112.667 -465.999 338l-56 228h-96v-534h-448v1408h626c81.333 0 157.666 -9.16699 228.999 -27.5s133.5 -45 186.5 -80s94.667 -78.167 125 -129.5
s45.5 -110.333 45.5 -177c0 -49.333 -6.16699 -93.5 -18.5 -132.5s-30.166 -74 -53.499 -105s-51.833 -58.5 -85.5 -82.5s-71.834 -45.333 -114.501 -64l9 -49c2 -11.333 4 -21 6 -29l5 -20l11 -43c8 -25.333 17.167 -46.833 27.5 -64.5s23.5 -32 39.5 -43
s35.833 -19 59.5 -24s52.5 -7.5 86.5 -7.5c5.33301 0 13.833 0.666992 25.5 2s26.834 3.33301 45.501 6v-334zM935.999 974c0 26 -5.5 47.499 -16.5 64.499s-26.167 30.333 -45.5 40s-42 16.334 -68 20.001s-54 5.5 -84 5.5h-140v-282h78l66 3c26 2 51.5 5.5 76.5 10.5
s47.5 13 67.5 24s36 25.667 48 44s18 41.833 18 70.5z" />
    <glyph glyph-name="racute" unicode="&#x155;" horiz-adv-x="914" 
d="M87 1398l600 420l208 -366l-682 -274zM102 1011l432 0.000976562v-209c32.667 82.667 76.167 143.167 130.5 181.5s116.833 57.5 187.5 57.5l60 -335c-130 0 -225.5 -13.833 -286.5 -41.5s-91.5 -71.834 -91.5 -132.501v-532h-432v1011z" />
    <glyph glyph-name="Rcommaaccent" unicode="&#x156;" horiz-adv-x="1429" 
d="M534 -640c46 0 81.668 0.332031 107.001 0.999023s44.166 4.33398 56.499 11.001s19.833 17.167 22.5 31.5s4 35.166 4 62.499h-190v382h420l-4 -208c-1.33301 -73.333 -4 -137.166 -8 -191.499s-11 -100.833 -21 -139.5s-24 -70.167 -42 -94.5
s-42.167 -43.5 -72.5 -57.5s-67.833 -23.667 -112.5 -29s-98 -8 -160 -8v240zM1389 3.99902c-87.333 -24 -150.334 -36 -189.001 -36c-247.333 0 -402.666 112.667 -465.999 338l-56 228h-96v-534h-448v1408h626c81.333 0 157.666 -9.16699 228.999 -27.5
s133.5 -45 186.5 -80s94.667 -78.167 125 -129.5s45.5 -110.333 45.5 -177c0 -49.333 -6.16699 -93.5 -18.5 -132.5s-30.166 -74 -53.499 -105s-51.833 -58.5 -85.5 -82.5s-71.834 -45.333 -114.501 -64l9 -49c2 -11.333 4 -21 6 -29l5 -20l11 -43
c8 -25.333 17.167 -46.833 27.5 -64.5s23.5 -32 39.5 -43s35.833 -19 59.5 -24s52.5 -7.5 86.5 -7.5c5.33301 0 13.833 0.666992 25.5 2s26.834 3.33301 45.501 6v-334zM936 973.999c0 26 -5.5 47.499 -16.5 64.499s-26.167 30.333 -45.5 40s-42 16.334 -68 20.001
s-54 5.5 -84 5.5h-140v-282h78l66 3c26 2 51.5 5.5 76.5 10.5s47.5 13 67.5 24s36 25.667 48 44s18 41.833 18 70.5z" />
    <glyph glyph-name="rcommaaccent" unicode="&#x157;" horiz-adv-x="914" 
d="M108 -608c46 0 81.668 0.332031 107.001 0.999023s44.166 4.33398 56.499 11.001s19.833 17.167 22.5 31.5s4 35.166 4 62.499h-190v382h420l-4 -208c-1.33301 -73.333 -4 -137.166 -8 -191.499s-11 -100.833 -21 -139.5s-24 -70.167 -42 -94.5
s-42.167 -43.5 -72.5 -57.5s-67.833 -23.667 -112.5 -29s-98 -8 -160 -8v240zM102.001 1011l432 0.000976562v-209c32.667 82.667 76.167 143.167 130.5 181.5s116.833 57.5 187.5 57.5l60 -335c-130 0 -225.5 -13.833 -286.5 -41.5s-91.5 -71.834 -91.5 -132.501v-532h-432
v1011z" />
    <glyph glyph-name="Rcaron" unicode="&#x158;" horiz-adv-x="1429" 
d="M8 2071l340 -0.000976562l78 -218l22 -80c5.33301 18 12.5 40.167 21.5 66.5l28.5 81.5l29 82c9.33301 26.667 17 49.334 23 68.001h340l-252 -510h-378zM1389 3.99902c-87.333 -24 -150.334 -36 -189.001 -36c-247.333 0 -402.666 112.667 -465.999 338l-56 228h-96
v-534h-448v1408h626c81.333 0 157.666 -9.16699 228.999 -27.5s133.5 -45 186.5 -80s94.667 -78.167 125 -129.5s45.5 -110.333 45.5 -177c0 -49.333 -6.16699 -93.5 -18.5 -132.5s-30.166 -74 -53.499 -105s-51.833 -58.5 -85.5 -82.5s-71.834 -45.333 -114.501 -64l9 -49
c2 -11.333 4 -21 6 -29l5 -20l11 -43c8 -25.333 17.167 -46.833 27.5 -64.5s23.5 -32 39.5 -43s35.833 -19 59.5 -24s52.5 -7.5 86.5 -7.5c5.33301 0 13.833 0.666992 25.5 2s26.834 3.33301 45.501 6v-334zM935.999 973.999c0 26 -5.5 47.499 -16.5 64.499
s-26.167 30.333 -45.5 40s-42 16.334 -68 20.001s-54 5.5 -84 5.5h-140v-282h78l66 3c26 2 51.5 5.5 76.5 10.5s47.5 13 67.5 24s36 25.667 48 44s18 41.833 18 70.5z" />
    <glyph glyph-name="rcaron" unicode="&#x159;" horiz-adv-x="914" 
d="M66 1688l340 -0.000976562l78 -218l22 -80c5.33301 18 12.5 40.167 21.5 66.5l28.5 81.5l29 82c9.33301 26.667 17 49.334 23 68.001h340l-252 -510h-378zM102 1011l432 0.000976562v-209c32.667 82.667 76.167 143.167 130.5 181.5s116.833 57.5 187.5 57.5l60 -335
c-130 0 -225.5 -13.833 -286.5 -41.5s-91.5 -71.834 -91.5 -132.501v-532h-432v1011z" />
    <glyph glyph-name="Sacute" unicode="&#x15a;" horiz-adv-x="1213" 
d="M288 1782l600 420l208 -366l-682 -274zM1152 460c0 -84 -12.832 -156.83 -38.499 -218.497s-62.5 -112.667 -110.5 -153s-106.833 -70.5 -176.5 -90.5s-148.5 -30 -236.5 -30c-195.333 0 -366.666 35.333 -513.999 106c40.667 101.333 72.667 194 96 278c4 14 8 26 12 36
l150 -37l58 -13c20.667 -4.66699 41.334 -8.83398 62.001 -12.501s40.334 -6.83398 59.001 -9.50098s35 -4 49 -4c22.667 0 44.5 0.833008 65.5 2.5s39.5 5.5 55.5 11.5s28.833 14.667 38.5 26s14.5 26.666 14.5 45.999c0 23.333 -11 43 -33 59s-49.5 30.333 -82.5 43
s-69.167 24.167 -108.5 34.5s-76 21.5 -110 33.5c-47.333 14.667 -91.333 34.667 -132 60s-75.834 55.5 -105.501 90.5s-52.834 74.667 -69.501 119s-25 93.166 -25 146.499c0 304 182.667 456 548 456c173.333 0 334.666 -36 483.999 -108l-110 -306l-153.5 39.5
c-37.667 9.66699 -67.834 16.834 -90.501 21.501s-40.667 7.66699 -54 9s-27.333 2 -42 2h-34c-7.33301 0 -13.5 0.166992 -18.5 0.5s-9.83301 0.5 -14.5 0.5c-30 0 -53 -4.5 -69 -13.5s-24 -27.5 -24 -55.5c0 -42 36.667 -74 110 -96c180.667 -42 317.5 -103 410.5 -183
s139.5 -177 139.5 -291z" />
    <glyph glyph-name="sacute" unicode="&#x15b;" horiz-adv-x="947" 
d="M104 1398l600 420l208 -366l-682 -274zM546 786c-81.333 0 -122.001 -14.0029 -122.001 -42.0029c0 -10.667 3 -20.167 9 -28.5s14 -15.666 24 -21.999s21 -11.5 33 -15.5s24 -6.66699 36 -8c52.667 -8 101.5 -20.167 146.5 -36.5s84 -38.166 117 -65.499
s59 -60.833 78 -100.5s28.5 -86.834 28.5 -141.501c0 -54 -9.5 -102.167 -28.5 -144.5s-45.5 -78.166 -79.5 -107.499s-74 -51.666 -120 -66.999s-96 -23 -150 -23c-87.333 0 -167.166 4 -239.499 12s-138.5 25.333 -198.5 52l46 236l57.5 -16
c16.333 -4.66699 29.833 -8 40.5 -10l38 -7.5c15.333 -3 31.833 -5.83301 49.5 -8.5s35.5 -5 53.5 -7s34.333 -3 49 -3c68 0 102 16 102 48c-2 12.667 -7.16699 23.834 -15.5 33.501s-18.833 18 -31.5 25s-27.167 12.833 -43.5 17.5s-33.5 8.66699 -51.5 12
c-52 10 -97.833 23.333 -137.5 40s-72.834 38.167 -99.501 64.5s-46.834 58.666 -60.501 96.999s-20.5 83.833 -20.5 136.5c2.66699 60 15.334 111.167 38.001 153.5s53.334 77 92.001 104s84.167 46.667 136.5 59s109.5 18.5 171.5 18.5c64.667 0 125.667 -3.5 183 -10.5
s111 -22.5 161 -46.5l-44 -244c-100 30.667 -182.667 46 -248 46z" />
    <glyph glyph-name="Scircumflex" unicode="&#x15c;" horiz-adv-x="1213" 
d="M429 2072h378l252 -510h-340l-78 218l-24 78l-22 -78l-78 -218h-340zM1152 460c0 -84 -12.832 -156.83 -38.499 -218.497s-62.5 -112.667 -110.5 -153s-106.833 -70.5 -176.5 -90.5s-148.5 -30 -236.5 -30c-195.333 0 -366.666 35.333 -513.999 106
c40.667 101.333 72.667 194 96 278c4 14 8 26 12 36l150 -37l58 -13c20.667 -4.66699 41.334 -8.83398 62.001 -12.501s40.334 -6.83398 59.001 -9.50098s35 -4 49 -4c22.667 0 44.5 0.833008 65.5 2.5s39.5 5.5 55.5 11.5s28.833 14.667 38.5 26s14.5 26.666 14.5 45.999
c0 23.333 -11 43 -33 59s-49.5 30.333 -82.5 43s-69.167 24.167 -108.5 34.5s-76 21.5 -110 33.5c-47.333 14.667 -91.333 34.667 -132 60s-75.834 55.5 -105.501 90.5s-52.834 74.667 -69.501 119s-25 93.166 -25 146.499c0 304 182.667 456 548 456
c173.333 0 334.666 -36 483.999 -108l-110 -306l-153.5 39.5c-37.667 9.66699 -67.834 16.834 -90.501 21.501s-40.667 7.66699 -54 9s-27.333 2 -42 2h-34c-7.33301 0 -13.5 0.166992 -18.5 0.5s-9.83301 0.5 -14.5 0.5c-30 0 -53 -4.5 -69 -13.5s-24 -27.5 -24 -55.5
c0 -42 36.667 -74 110 -96c180.667 -42 317.5 -103 410.5 -183s139.5 -177 139.5 -291z" />
    <glyph glyph-name="scircumflex" unicode="&#x15d;" horiz-adv-x="947" 
d="M305 1688h378l252 -510h-340l-78 218l-24 78l-22 -78l-78 -218h-340zM546 786c-81.333 0 -122.001 -14.0029 -122.001 -42.0029c0 -10.667 3 -20.167 9 -28.5s14 -15.666 24 -21.999s21 -11.5 33 -15.5s24 -6.66699 36 -8c52.667 -8 101.5 -20.167 146.5 -36.5
s84 -38.166 117 -65.499s59 -60.833 78 -100.5s28.5 -86.834 28.5 -141.501c0 -54 -9.5 -102.167 -28.5 -144.5s-45.5 -78.166 -79.5 -107.499s-74 -51.666 -120 -66.999s-96 -23 -150 -23c-87.333 0 -167.166 4 -239.499 12s-138.5 25.333 -198.5 52l46 236l57.5 -16
c16.333 -4.66699 29.833 -8 40.5 -10l38 -7.5c15.333 -3 31.833 -5.83301 49.5 -8.5s35.5 -5 53.5 -7s34.333 -3 49 -3c68 0 102 16 102 48c-2 12.667 -7.16699 23.834 -15.5 33.501s-18.833 18 -31.5 25s-27.167 12.833 -43.5 17.5s-33.5 8.66699 -51.5 12
c-52 10 -97.833 23.333 -137.5 40s-72.834 38.167 -99.501 64.5s-46.834 58.666 -60.501 96.999s-20.5 83.833 -20.5 136.5c2.66699 60 15.334 111.167 38.001 153.5s53.334 77 92.001 104s84.167 46.667 136.5 59s109.5 18.5 171.5 18.5c64.667 0 125.667 -3.5 183 -10.5
s111 -22.5 161 -46.5l-44 -244c-100 30.667 -182.667 46 -248 46z" />
    <glyph glyph-name="Scedilla" unicode="&#x15e;" horiz-adv-x="1213" 
d="M595 -287c0 32 -10.668 55.667 -32.001 71s-50 23 -86 23h-4l60 180h114l-40 -116c66.667 -7.33301 118.667 -24.333 156 -51s56 -63 56 -109c0 -41.333 -10.333 -76.666 -31 -105.999s-46 -53.333 -76 -72s-62.167 -32.334 -96.5 -41.001s-65.166 -13 -92.499 -13
c-59.333 0 -119.333 14.667 -180 44l28 76c35.333 -9.33301 66 -14 92 -14c88 0 132 42.667 132 128zM1152 460c0 -84 -12.832 -156.83 -38.499 -218.497s-62.5 -112.667 -110.5 -153s-106.833 -70.5 -176.5 -90.5s-148.5 -30 -236.5 -30
c-195.333 0 -366.666 35.333 -513.999 106c40.667 101.333 72.667 194 96 278c4 14 8 26 12 36l150 -37l58 -13c20.667 -4.66699 41.334 -8.83398 62.001 -12.501s40.334 -6.83398 59.001 -9.50098s35 -4 49 -4c22.667 0 44.5 0.833008 65.5 2.5s39.5 5.5 55.5 11.5
s28.833 14.667 38.5 26s14.5 26.666 14.5 45.999c0 23.333 -11 43 -33 59s-49.5 30.333 -82.5 43s-69.167 24.167 -108.5 34.5s-76 21.5 -110 33.5c-47.333 14.667 -91.333 34.667 -132 60s-75.834 55.5 -105.501 90.5s-52.834 74.667 -69.501 119s-25 93.166 -25 146.499
c0 304 182.667 456 548 456c173.333 0 334.666 -36 483.999 -108l-110 -306l-153.5 39.5c-37.667 9.66699 -67.834 16.834 -90.501 21.501s-40.667 7.66699 -54 9s-27.333 2 -42 2h-34c-7.33301 0 -13.5 0.166992 -18.5 0.5s-9.83301 0.5 -14.5 0.5
c-30 0 -53 -4.5 -69 -13.5s-24 -27.5 -24 -55.5c0 -42 36.667 -74 110 -96c180.667 -42 317.5 -103 410.5 -183s139.5 -177 139.5 -291z" />
    <glyph glyph-name="scedilla" unicode="&#x15f;" horiz-adv-x="947" 
d="M523 -287c0 32 -10.668 55.667 -32.001 71s-50 23 -86 23h-4l60 180h114l-40 -116c66.667 -7.33301 118.667 -24.333 156 -51s56 -63 56 -109c0 -41.333 -10.333 -76.666 -31 -105.999s-46 -53.333 -76 -72s-62.167 -32.334 -96.5 -41.001s-65.166 -13 -92.499 -13
c-59.333 0 -119.333 14.667 -180 44l28 76c35.333 -9.33301 66 -14 92 -14c88 0 132 42.667 132 128zM545.999 786c-81.333 0 -122.001 -14.0029 -122.001 -42.0029c0 -10.667 3 -20.167 9 -28.5s14 -15.666 24 -21.999s21 -11.5 33 -15.5s24 -6.66699 36 -8
c52.667 -8 101.5 -20.167 146.5 -36.5s84 -38.166 117 -65.499s59 -60.833 78 -100.5s28.5 -86.834 28.5 -141.501c0 -54 -9.5 -102.167 -28.5 -144.5s-45.5 -78.166 -79.5 -107.499s-74 -51.666 -120 -66.999s-96 -23 -150 -23c-87.333 0 -167.166 4 -239.499 12
s-138.5 25.333 -198.5 52l46 236l57.5 -16c16.333 -4.66699 29.833 -8 40.5 -10l38 -7.5c15.333 -3 31.833 -5.83301 49.5 -8.5s35.5 -5 53.5 -7s34.333 -3 49 -3c68 0 102 16 102 48c-2 12.667 -7.16699 23.834 -15.5 33.501s-18.833 18 -31.5 25
s-27.167 12.833 -43.5 17.5s-33.5 8.66699 -51.5 12c-52 10 -97.833 23.333 -137.5 40s-72.834 38.167 -99.501 64.5s-46.834 58.666 -60.501 96.999s-20.5 83.833 -20.5 136.5c2.66699 60 15.334 111.167 38.001 153.5s53.334 77 92.001 104s84.167 46.667 136.5 59
s109.5 18.5 171.5 18.5c64.667 0 125.667 -3.5 183 -10.5s111 -22.5 161 -46.5l-44 -244c-100 30.667 -182.667 46 -248 46z" />
    <glyph glyph-name="Scaron" unicode="&#x160;" horiz-adv-x="1213" 
d="M177 2072l340 -0.000976562l78 -218l22 -80c5.33301 18 12.5 40.167 21.5 66.5l28.5 81.5l29 82c9.33301 26.667 17 49.334 23 68.001h340l-252 -510h-378zM1152 459.999c0 -84 -12.832 -156.83 -38.499 -218.497s-62.5 -112.667 -110.5 -153
s-106.833 -70.5 -176.5 -90.5s-148.5 -30 -236.5 -30c-195.333 0 -366.666 35.333 -513.999 106c40.667 101.333 72.667 194 96 278c4 14 8 26 12 36l150 -37l58 -13c20.667 -4.66699 41.334 -8.83398 62.001 -12.501s40.334 -6.83398 59.001 -9.50098s35 -4 49 -4
c22.667 0 44.5 0.833008 65.5 2.5s39.5 5.5 55.5 11.5s28.833 14.667 38.5 26s14.5 26.666 14.5 45.999c0 23.333 -11 43 -33 59s-49.5 30.333 -82.5 43s-69.167 24.167 -108.5 34.5s-76 21.5 -110 33.5c-47.333 14.667 -91.333 34.667 -132 60s-75.834 55.5 -105.501 90.5
s-52.834 74.667 -69.501 119s-25 93.166 -25 146.499c0 304 182.667 456 548 456c173.333 0 334.666 -36 483.999 -108l-110 -306l-153.5 39.5c-37.667 9.66699 -67.834 16.834 -90.501 21.501s-40.667 7.66699 -54 9s-27.333 2 -42 2h-34
c-7.33301 0 -13.5 0.166992 -18.5 0.5s-9.83301 0.5 -14.5 0.5c-30 0 -53 -4.5 -69 -13.5s-24 -27.5 -24 -55.5c0 -42 36.667 -74 110 -96c180.667 -42 317.5 -103 410.5 -183s139.5 -177 139.5 -291z" />
    <glyph glyph-name="scaron" unicode="&#x161;" horiz-adv-x="947" 
d="M53 1688l340 -0.000976562l78 -218l22 -80c5.33301 18 12.5 40.167 21.5 66.5l28.5 81.5l29 82c9.33301 26.667 17 49.334 23 68.001h340l-252 -510h-378zM546 785.999c-81.333 0 -122.001 -14.0029 -122.001 -42.0029c0 -10.667 3 -20.167 9 -28.5
s14 -15.666 24 -21.999s21 -11.5 33 -15.5s24 -6.66699 36 -8c52.667 -8 101.5 -20.167 146.5 -36.5s84 -38.166 117 -65.499s59 -60.833 78 -100.5s28.5 -86.834 28.5 -141.501c0 -54 -9.5 -102.167 -28.5 -144.5s-45.5 -78.166 -79.5 -107.499s-74 -51.666 -120 -66.999
s-96 -23 -150 -23c-87.333 0 -167.166 4 -239.499 12s-138.5 25.333 -198.5 52l46 236l57.5 -16c16.333 -4.66699 29.833 -8 40.5 -10l38 -7.5c15.333 -3 31.833 -5.83301 49.5 -8.5s35.5 -5 53.5 -7s34.333 -3 49 -3c68 0 102 16 102 48
c-2 12.667 -7.16699 23.834 -15.5 33.501s-18.833 18 -31.5 25s-27.167 12.833 -43.5 17.5s-33.5 8.66699 -51.5 12c-52 10 -97.833 23.333 -137.5 40s-72.834 38.167 -99.501 64.5s-46.834 58.666 -60.501 96.999s-20.5 83.833 -20.5 136.5
c2.66699 60 15.334 111.167 38.001 153.5s53.334 77 92.001 104s84.167 46.667 136.5 59s109.5 18.5 171.5 18.5c64.667 0 125.667 -3.5 183 -10.5s111 -22.5 161 -46.5l-44 -244c-100 30.667 -182.667 46 -248 46z" />
    <glyph glyph-name="Tcommaaccent" unicode="&#x162;" horiz-adv-x="1182" 
d="M596 -257c0 32 -10.668 55.667 -32.001 71s-50 23 -86 23h-4l60 180h114l-40 -116c66.667 -7.33301 118.667 -24.333 156 -51s56 -63 56 -109c0 -41.333 -10.333 -76.666 -31 -105.999s-46 -53.333 -76 -72s-62.167 -32.334 -96.5 -41.001s-65.166 -13 -92.499 -13
c-59.333 0 -119.333 14.667 -180 44l28 76c35.333 -9.33301 66 -14 92 -14c88 0 132 42.667 132 128zM351.999 1110h-292v298h1062v-298h-292v-1110h-478v1110z" />
    <glyph glyph-name="tcommaaccent" unicode="&#x163;" horiz-adv-x="890" 
d="M536 -287c0 32 -10.668 55.667 -32.001 71s-50 23 -86 23h-4l60 180h114l-40 -116c66.667 -7.33301 118.667 -24.333 156 -51s56 -63 56 -109c0 -41.333 -10.333 -76.666 -31 -105.999s-46 -53.333 -76 -72s-62.167 -32.334 -96.5 -41.001s-65.166 -13 -92.499 -13
c-59.333 0 -119.333 14.667 -180 44l28 76c35.333 -9.33301 66 -14 92 -14c88 0 132 42.667 132 128zM838.999 54c-92.667 -46.667 -195.332 -69.999 -307.999 -69.999c-58 0 -109.667 9.5 -155 28.5s-83.5 46.333 -114.5 82s-54.5 78.667 -70.5 129
s-24 107.166 -24 170.499l2 378h-130v254h162l190 388h208v-388h236v-254h-236v-348c0 -36 11.667 -63 35 -81s55 -27 95 -27c31.333 0 62.666 8 93.999 24z" />
    <glyph glyph-name="Tcaron" unicode="&#x164;" horiz-adv-x="1182" 
d="M150 2071l340 -0.000976562l78 -218l22 -80c5.33301 18 12.5 40.167 21.5 66.5l28.5 81.5l29 82c9.33301 26.667 17 49.334 23 68.001h340l-252 -510h-378zM352 1110h-292v298h1062v-298h-292v-1110h-478v1110z" />
    <glyph glyph-name="tcaron" unicode="&#x165;" horiz-adv-x="890" 
d="M890 1024c46 0 81.668 0.332031 107.001 0.999023s44.166 4.33398 56.499 11.001s19.833 17.167 22.5 31.5s4 35.166 4 62.499h-190v382h420l-4 -208c-1.33301 -73.333 -4 -137.166 -8 -191.499s-11 -100.833 -21 -139.5s-24 -70.167 -42 -94.5
s-42.167 -43.5 -72.5 -57.5s-67.833 -23.667 -112.5 -29s-98 -8 -160 -8v240zM839.001 53.999c-92.667 -46.667 -195.332 -69.999 -307.999 -69.999c-58 0 -109.667 9.5 -155 28.5s-83.5 46.333 -114.5 82s-54.5 78.667 -70.5 129s-24 107.166 -24 170.499l2 378h-130v254
h162l190 388h208v-388h236v-254h-236v-348c0 -36 11.667 -63 35 -81s55 -27 95 -27c31.333 0 62.666 8 93.999 24z" />
    <glyph glyph-name="Tbar" unicode="&#x166;" horiz-adv-x="1202" 
d="M362 518h-146v174h146v386h-292v298h1062v-298h-292v-386h146v-174h-146v-518h-478v518z" />
    <glyph glyph-name="tbar" unicode="&#x167;" horiz-adv-x="921" 
d="M856 38c-92.667 -46.667 -195.332 -70 -307.999 -70c-58.667 0 -110.5 9.66699 -155.5 29s-83 46.666 -114 81.999s-54.5 78.333 -70.5 129s-24 107.334 -24 170.001v140h-114v174h116v80h-130v254h130v248l430 140v-388h236v-254h-236v-80h224v-174h-224v-110
c0 -36 11.667 -63 35 -81s55 -27 95 -27c31.333 0 62.666 8 93.999 24z" />
    </font>
</defs>
</svg>
